<svg id="Calque_1" data-name="Calque 1" xmlns="http://www.w3.org/2000/svg" viewBox="0 0 401.77 202.26"><defs><style>.cls-1{fill:#091494;}</style></defs><path class="cls-1" d="M290.33,321.79a17.84,17.84,0,1,0,17.84,17.84A17.84,17.84,0,0,0,290.33,321.79Z" transform="translate(-210.34 -194.97)"/><path class="cls-1" d="M222.42,371.89a8.18,8.18,0,0,0,.17,1.18l1.43,6.49H218.2a7.87,7.87,0,0,0,0,15.73h15.62a7.87,7.87,0,0,0,7.68-9.56l-1.19-5.34-19-10.87A18,18,0,0,0,222.42,371.89Z" transform="translate(-210.34 -194.97)"/><path class="cls-1" d="M275.68,361.12a8.05,8.05,0,0,0-1-2.12,17.07,17.07,0,0,0-16.51-12.77h-21a17.85,17.85,0,0,0-2.94.25c-4.8,13.23,6.08,33.9,6.08,33.9h17.88a17.05,17.05,0,0,0,6.4-1.25l3.2,10.86a7.86,7.86,0,0,0,15.08-4.44Z" transform="translate(-210.34 -194.97)"/><path class="cls-1" d="M373,294.38a5.63,5.63,0,0,0,.71,0,7.5,7.5,0,0,0,.82,0,7.11,7.11,0,0,0,6.26-7.88,62.27,62.27,0,0,1-.42-7.06c0-8.27,1.86-13.85,4.33-17.9a23.07,23.07,0,0,1,2.37-3.2c-4.09,14.17-4.78,25.19-2.8,42.19,1.05,5.4,3.1,9,5.68,11.32,0,.56,0,1.16,0,1.78a88.11,88.11,0,0,1-5,29,83.15,83.15,0,0,1-23.62,34.78,11.12,11.12,0,1,0,14.78,16.62h0a105.58,105.58,0,0,0,29.8-44,110.22,110.22,0,0,0,3.46-11.93c5,12,9.63,28.14,11.23,48.81a11.13,11.13,0,0,0,11.08,10.27,8.38,8.38,0,0,0,.86,0,11.11,11.11,0,0,0,10.23-11.93c-3.17-41.45-17.42-67.82-26.69-80.89,0-.5,0-1-.06-1.55a69.87,69.87,0,0,1-.44-12.41l-.31-.19c-7.54-5-12.87-12.53-15.85-22.39a58.18,58.18,0,0,1-2.44-16.22c0-.51,0-.85,0-1A8.86,8.86,0,0,1,406,242h.35a8.91,8.91,0,0,1,8.54,9.23v.38c0,2.39.53,9.9,3.61,15.91.06.13.14.25.21.39.75-3.85,1.51-7.47,2.15-10.73,2.55-8.85-.79-19.44-8.38-21.33a15.84,15.84,0,0,0-1.72-.32,7.2,7.2,0,0,0-3-.65,46.82,46.82,0,0,0-20.62,5.53,38.22,38.22,0,0,0-14.51,13.63c-4,6.47-6.45,14.92-6.44,25.35a78.45,78.45,0,0,0,.51,8.68,7.12,7.12,0,0,0,3.67,5.43Z" transform="translate(-210.34 -194.97)"/><path class="cls-1" d="M403.94,210.45a20,20,0,1,0,24-14.95A20,20,0,0,0,403.94,210.45Z" transform="translate(-210.34 -194.97)"/><path class="cls-1" d="M413.07,251.62v-.43h0a7.12,7.12,0,0,0-14.22-.54c0,.09,0,.43,0,1a56.3,56.3,0,0,0,2.36,15.71c2.16,7.15,6.46,15.67,15.13,21.42,5.73,3.8,13.2,6.11,22.15,6.11h.1a65,65,0,0,0,10.34-.88,7.12,7.12,0,1,0-2.29-14.05,49.62,49.62,0,0,1-8.05.7c-6.67,0-11.09-1.59-14.4-3.76a21.61,21.61,0,0,1-7.32-8.5C413.43,261.69,413,253.55,413.07,251.62Z" transform="translate(-210.34 -194.97)"/><path class="cls-1" d="M604.31,309.4a37.2,37.2,0,0,0-6,0c1-2.15.79-4.43-.72-5.46l-20.19-13.84a6.92,6.92,0,0,1-2.7-5.1s-.23-6.39-.62-10c.22-15.79-5.71-33.27-18.51-35.68-7.38-1.39-27.57,10.31-41.2,24-27.13,27.31-19.14,56-19.14,56h3.83l3.82,22.91-3.82,46a7.49,7.49,0,0,0,7.56,7.41h3.09a7.48,7.48,0,0,0,7.56-7.41l3.82-46-3.82-22.91h6.6l3.82,22.91-3.82,46a7.48,7.48,0,0,0,7.56,7.41h3.09a7.48,7.48,0,0,0,7.55-7.41l3.82-46-3.82-22.91h4.13l-1-26.31c6.63-3.22,9.12-7.47,16.36-10.1v8.76a7,7,0,0,0,2.7,5.1l25.45,17.44a7.78,7.78,0,0,0-.48,4v77.5H595V323.62a2,2,0,0,0,0-.35c.18-3.56,1.61-5.54,3.45-5.65,9.9-.62,11.41,10.9,13.46.14C613,312.56,609.29,309.8,604.31,309.4Z" transform="translate(-210.34 -194.97)"/><ellipse class="cls-1" cx="375.05" cy="40.35" rx="19.09" ry="17.18"/></svg>