<svg id="Calque_1" data-name="Calque 1" xmlns="http://www.w3.org/2000/svg" viewBox="0 0 154.09 258.66"><defs><style>.cls-1{fill:#1d70b7;}.cls-2{fill:#091494;}.cls-3,.cls-4{fill:none;stroke-miterlimit:10;stroke-width:2px;}.cls-3{stroke:#fff;}.cls-4{stroke:#091494;}.cls-5{fill:#fff;}</style></defs><path class="cls-1" d="M427.46,322.17a8,8,0,0,0,8,7.53h.48a8,8,0,0,0,7.52-8.45c-1.9-32.52,0-50.69,2.44-60.75l2.28.48c-2.32,9.64-4.33,27.53-2.43,60.13a10.23,10.23,0,0,1-2.58,7.45,11.15,11.15,0,0,1-.92.9v77.36a12.36,12.36,0,0,0,24.72,0V316.54h4.64v90.27a12.37,12.37,0,0,0,24.73,0V329.45a11.26,11.26,0,0,1-.93-.9,10.27,10.27,0,0,1-2.58-7.45c1.91-32.6-.1-50.49-2.43-60.13l2.28-.48c2.42,10.06,4.35,28.23,2.44,60.75a8,8,0,0,0,7.52,8.45h.48a8,8,0,0,0,8-7.53c1.65-28.3.7-50-2.83-65-2.21-9.34-5.41-16-9.62-20.07a15.8,15.8,0,0,0-6.75-4,24.79,24.79,0,0,1-45.22,0,15.8,15.8,0,0,0-6.75,4c-4.21,4-7.41,10.73-9.62,20.07C426.76,272.16,425.81,293.87,427.46,322.17Z" transform="translate(-357.78 -160.52)"/><path class="cls-1" d="M469.12,217.58c-9.7,0-18.1,4.63-21.5,6.79a21.51,21.51,0,1,0,43,0C487.24,222.22,478.81,217.58,469.12,217.58Zm12.32,16.2L480,236.42a19,19,0,0,0-20.13.87l-1.82-2.38A21.94,21.94,0,0,1,481.44,233.78Z" transform="translate(-357.78 -160.52)"/><path class="cls-1" d="M446.56,222.31c3.71-2.36,12.36-7,22.56-7s18.84,4.67,22.56,7a29.12,29.12,0,0,0-1-5.48c-2.57-1.55-8.82-4.89-15.76-5.27,0,0,7.75-1.37,14.34,1.27-3.48-7.9-10.5-14-20.18-14C455.77,198.83,447.49,210.41,446.56,222.31Z" transform="translate(-357.78 -160.52)"/><path class="cls-2" d="M393.11,236.29A6,6,0,0,1,390,231V199a6,6,0,0,1,3.15-5.28v-5.39h9.45a19.81,19.81,0,0,0-.2,2.79c0,.63,0,1.26.09,1.88a18.52,18.52,0,0,0,.31,2H396a4,4,0,0,0-4,4v32a4,4,0,0,0,4,4h9v1.66h-.75a2.11,2.11,0,0,0-2.08,2.09,2.08,2.08,0,0,0,2.08,2.08h2.17c0,.52,0,1.12,0,1.81,0,6.24.09,19.1.53,31.94,0,.84.06,1.65.09,2.45h2c-.39-9.7-.6-20.62-.61-31.58,0-1.54,0-3.08,0-4.62h2.18a2.08,2.08,0,0,0,1.12-3.83,2.05,2.05,0,0,0-1.12-.34h-.75V235h9a4,4,0,0,0,4-4V199a4,4,0,0,0-4-4H412a16.34,16.34,0,0,0,.31-2c.06-.62.09-1.25.09-1.88a19.8,19.8,0,0,0-.23-3,11.51,11.51,0,0,0,9.31-11.29,1.5,1.5,0,1,0-3,0,8.5,8.5,0,0,1-7.06,8.37c-.83-2.18-2.18-3.7-4-3.7s-3.24,1.58-4.06,3.83H393.11V164a3.5,3.5,0,1,0-7,0v21.33H369.28a8.51,8.51,0,0,1-8.5-8.5,1.5,1.5,0,0,0-3,0,11.51,11.51,0,0,0,11.5,11.5h16.83v88.7h7ZM419,203.85V212a2,2,0,0,1-2,2H397.69a2,2,0,0,1-2-2v-8.17a2,2,0,0,1,2-2H417A2,2,0,0,1,419,203.85ZM408.88,195h-3a14.06,14.06,0,0,1-.37-2,18,18,0,0,1-.11-1.88,15.35,15.35,0,0,1,.24-2.79h3.52a15.35,15.35,0,0,1,.24,2.79,18,18,0,0,1-.11,1.88A14.06,14.06,0,0,1,408.88,195Zm-1.52-10.5c.17,0,.46.29.77.83h-1.54C406.9,184.81,407.19,184.52,407.36,184.52Z" transform="translate(-357.78 -160.52)"/><path class="cls-2" d="M393.11,406.55V398.6c11.66.64,16.33,4.33,17.64,5.66v2.39a5.93,5.93,0,1,0,6-.44v-3.83l-.42-.71c-.52-.88-5.4-8.21-23.22-9.09V336.15h-7v56.42c-18,.84-22.91,8.22-23.43,9.1l-.42.71v3.93a5.92,5.92,0,1,0,6,.2v-2.24c1.37-1.39,6.1-5.08,17.85-5.69V407a5.93,5.93,0,1,0,7-.4Z" transform="translate(-357.78 -160.52)"/><path class="cls-2" d="M417.86,333.85v-54.5h-56.5v54.5Zm-49.75-47.5h42.75v16H368.11Zm19.5,32.5H367.94V316.3h19.67Zm0-4.77H367.94v-2.55h19.67Zm0-4.76H367.94v-2.55h19.67Z" transform="translate(-357.78 -160.52)"/><path class="cls-3" d="M411.73,337.92s-2.63,36,11.64,36,10.51-37.16,10.51-37.16-4.13-44.68,2.25-45.43" transform="translate(-357.78 -160.52)"/><path class="cls-4" d="M410.14,337.92s-2.63,36,11.63,36,10.51-37.16,10.51-37.16-4.12-44.68,2.26-45.43" transform="translate(-357.78 -160.52)"/><rect class="cls-5" x="427.59" y="289.87" width="13.89" height="3" transform="translate(-24.47 -382.44) rotate(45)"/><rect class="cls-5" x="427.59" y="289.87" width="13.89" height="3" transform="translate(590.06 29.62) rotate(135)"/></svg>