<svg id="Calque_1" data-name="Calque 1" xmlns="http://www.w3.org/2000/svg" viewBox="0 0 144.06 101.83"><defs><style>.cls-1,.cls-4{fill:#091494;}.cls-2{fill:#fff;}.cls-3{fill:#1d70b7;}.cls-4{stroke:#091494;stroke-miterlimit:10;stroke-width:0.29px;}.cls-5{font-size:4.46px;font-family:FiraSans-SemiBold, Fira Sans;font-weight:600;}.cls-6{letter-spacing:-0.01em;}.cls-7{letter-spacing:-0.02em;}.cls-8{letter-spacing:-0.01em;}.cls-9{letter-spacing:-0.02em;}.cls-10{fill:none;stroke:#e20613;stroke-linecap:round;stroke-linejoin:round;stroke-width:1.11px;}</style></defs><path class="cls-1" d="M628.45,296.47a13.39,13.39,0,0,0-13.39-13.38H546.24a13.38,13.38,0,0,0-13.38,13.38v79.69a8.76,8.76,0,0,0,8.76,8.76h78.11a8.76,8.76,0,0,0,8.76-8.76Z" transform="translate(-484.44 -283.09)"/><path class="cls-2" d="M578.93,301.52h2.53v9.86h43.43v-8.49a8.23,8.23,0,0,0-8.22-8.23H543.72a8.23,8.23,0,0,0-8.23,8.23v8.49h43.44Z" transform="translate(-484.44 -283.09)"/><rect class="cls-3" x="51.47" y="33.38" width="88.52" height="19.3"/><rect class="cls-2" x="90.1" y="35.63" width="11.25" height="14.8"/><rect class="cls-2" x="66.87" y="37.71" width="13.07" height="2.23"/><rect class="cls-2" x="66.87" y="41.96" width="13.25" height="2.23"/><rect class="cls-2" x="66.87" y="46.21" width="18.85" height="2.23"/><polygon class="cls-2" points="64.04 41.74 59.24 36.87 59.18 36.93 59.12 36.87 54.32 41.74 56.81 41.74 58.31 40.24 58.31 49.27 60.05 49.27 60.05 40.24 61.55 41.74 64.04 41.74"/><rect class="cls-2" x="111.76" y="37.71" width="13.07" height="2.23"/><rect class="cls-2" x="111.58" y="41.96" width="13.25" height="2.23"/><rect class="cls-2" x="105.98" y="46.21" width="18.85" height="2.23"/><polygon class="cls-2" points="127.67 41.74 132.46 36.87 132.52 36.93 132.58 36.87 137.38 41.74 134.89 41.74 133.39 40.24 133.39 49.27 131.66 49.27 131.66 40.24 130.16 41.74 127.67 41.74"/><path class="cls-2" d="M577.91,379a2.77,2.77,0,1,1,2.77,2.77A2.77,2.77,0,0,1,577.91,379Z" transform="translate(-484.44 -283.09)"/><path class="cls-2" d="M554.38,367.19v1.69a2.35,2.35,0,0,0,2.35,2.35h47.89a2.35,2.35,0,0,0,2.35-2.35v-1.69Z" transform="translate(-484.44 -283.09)"/><path class="cls-2" d="M547.92,348.76l-63.17-12.89,8-39.22,63.17,12.9Z" transform="translate(-484.44 -283.09)"/><path class="cls-4" d="M547.77,348.76l-63.16-12.89,8-39.22,63.17,12.9Zm-62.63-13.24,62.28,12.71,7.82-38.33L493,297.19Z" transform="translate(-484.44 -283.09)"/><rect class="cls-1" x="494.68" y="320.92" width="35.13" height="0.34" transform="translate(-389.24 475.68) rotate(-78.46)"/><path class="cls-1" d="M550.49,323.79,540,321.65l2.55-12.48L553,311.31Zm-10.07-2.41,9.81,2,2.41-11.81-9.81-2Z" transform="translate(-484.44 -283.09)"/><rect class="cls-1" x="532.5" y="311.22" width="0.29" height="31.25" transform="translate(-378.56 500.27) rotate(-78.46)"/><rect class="cls-1" x="531.65" y="315.39" width="0.29" height="31.25" transform="translate(-383.33 502.77) rotate(-78.46)"/><rect class="cls-1" x="530.78" y="319.63" width="0.29" height="31.25" transform="translate(-388.18 505.31) rotate(-78.46)"/><rect class="cls-1" x="529.93" y="323.8" width="0.29" height="31.25" transform="translate(-392.94 507.81) rotate(-78.46)"/><text class="cls-5" transform="translate(34.14 39.89) rotate(11.54)">J<tspan class="cls-6" x="1.4" y="0">e</tspan><tspan x="3.81" y="0">an Dupont</tspan></text><text class="cls-5" transform="translate(33.14 44.81) rotate(11.54)"><tspan class="cls-6">2</tspan><tspan x="2.24" y="0">7 rue </tspan><tspan class="cls-7" x="13.26" y="0">V</tspan><tspan x="15.67" y="0">ert</tspan></text><text class="cls-5" transform="translate(31.48 52.94) rotate(11.54)"><tspan class="cls-8">6</tspan><tspan class="cls-9" x="2.41" y="0">9</tspan><tspan x="4.78" y="0">150 VILLE</tspan></text><ellipse class="cls-10" cx="522.52" cy="336.11" rx="5.01" ry="9.51" transform="translate(-395.74 497.75) rotate(-78.46)"/></svg>