<svg id="Calque_1" data-name="Calque 1" xmlns="http://www.w3.org/2000/svg" viewBox="0 0 197.43 340.8"><defs><style>.cls-1{fill:#28337a;}.cls-2{fill:none;}.cls-3{fill:#e30613;}.cls-4{fill:#e94e1b;}.cls-5{fill:#fff;stroke:#28337a;stroke-miterlimit:10;}</style></defs><path class="cls-1" d="M374.27,314.19a22.5,22.5,0,1,0-13.77-28.68A22.5,22.5,0,0,0,374.27,314.19Z" transform="translate(-321.11 -129.82)"/><path class="cls-1" d="M357.05,408c1.12.1,2.16.19,3.14.23a11.15,11.15,0,0,0,2.25.23c8.92,0,16,1.91,20.18,5.35a17.6,17.6,0,0,1,5.23,7.19c1.37,3.31,2.35,7.92,2.35,14.25a95.37,95.37,0,0,1-2.49,20.12,11.5,11.5,0,0,0,8.77,13.7,11.7,11.7,0,0,0,2.48.27,11.51,11.51,0,0,0,11.22-9,117.66,117.66,0,0,0,3-25.05,60.13,60.13,0,0,0-4.09-23,40.62,40.62,0,0,0-10.59-15.05,10,10,0,0,1-13.46,0,100.51,100.51,0,0,1-10.38-10.79c-1.1-.18-2.2-.34-3.31-.46.11-1.1.23-2.19.37-3.3-12.86-17.4-14.43-33.1-14.37-40.05a41.85,41.85,0,0,1,1.55-12,10,10,0,0,1,19.08,6l0,.08c-.05.22-.13.57-.22,1.07a28.46,28.46,0,0,0-.39,4.86,41.58,41.58,0,0,0,1.55,10.63c1-3.29,2.05-6.4,2.93-9.26,3.94-9.58,1.5-21.83-6.76-24.87s-21.06.23-27.65,14.24c-8.95,19.31-11.83,32.21-11.67,54.57C337.13,404.23,347.92,407.07,357.05,408Z" transform="translate(-321.11 -129.82)"/><path class="cls-1" d="M375.79,337.37c.1-.57.19-1,.25-1.2s0-.18,0-.2h0a8,8,0,0,0-15.27-4.79,40.13,40.13,0,0,0-1.45,11.39c-.07,9,2.49,22.61,12.79,37.21a88.85,88.85,0,0,0,5.65,7.18,101.54,101.54,0,0,0,8.59,8.71,8,8,0,0,0,10.58.14,9.49,9.49,0,0,0,.72-.7,8,8,0,0,0-.55-11.3c-11.07-10.1-16.58-19.48-19.28-27.23a43.87,43.87,0,0,1-2.5-14A30.22,30.22,0,0,1,375.79,337.37Z" transform="translate(-321.11 -129.82)"/><path class="cls-1" d="M364.5,470.62h10l-4.13-48.25V414H325.24v8.43l-4.13,48.24h10l1.93-22.5h29.5Zm-31.06-26.83,1.7-19.84H360.5l1.7,19.84Z" transform="translate(-321.11 -129.82)"/><path class="cls-2" d="M442.89,199.45a10.91,10.91,0,0,1-.56,15.4L426,230a26.12,26.12,0,1,0-15.42-15.48l16.92-15.66A10.91,10.91,0,0,1,442.89,199.45Z" transform="translate(-321.11 -129.82)"/><path class="cls-2" d="M410.88,179.3A35.67,35.67,0,1,1,418.4,237l-21.93,20.3c.86.6,1.74,1.19,2.62,1.75l12.32-11.4a10.92,10.92,0,0,1,14.84,16l-4.74,4.38c.88.18,1.77.34,2.66.48l1.78-1.65a10.92,10.92,0,0,1,15.39.63,10.44,10.44,0,0,1,1.17,1.52,67.36,67.36,0,1,0-61.68-27l22.33-20.67A35.67,35.67,0,0,1,410.88,179.3Z" transform="translate(-321.11 -129.82)"/><path class="cls-1" d="M396.47,257.3l-3.76,3.48c.85.61,1.71,1.21,2.59,1.78l3.79-3.51C398.21,258.49,397.33,257.9,396.47,257.3Z" transform="translate(-321.11 -129.82)"/><path class="cls-1" d="M488.13,153a72.33,72.33,0,0,0-111,92.46l3.7-3.42a67.28,67.28,0,1,1,61.68,27,10.93,10.93,0,0,1,1.68,4.82A72.33,72.33,0,0,0,488.13,153Z" transform="translate(-321.11 -129.82)"/><path class="cls-1" d="M417.07,272.17c.84.22,1.68.41,2.54.6l4.56-4.23c-.89-.14-1.78-.3-2.66-.48Z" transform="translate(-321.11 -129.82)"/><path class="cls-1" d="M426,230l16.33-15.11a10.92,10.92,0,0,0-14.83-16l-16.92,15.66A26.18,26.18,0,0,0,426,230Zm3.37-24c.73-2.24,2.64-4.49,5.3-4.23a5.16,5.16,0,0,1,3.12,1.9h0l.07.1a8,8,0,0,1,.77,1.09s.05.11.09.17a6.46,6.46,0,0,1,.51,1.19c.9,3.18-2,4.91-4.5,5.59l-1.57.43-.43.1-1,.24c-.17,0-.31.06-.46.09l-.81.17-.42.09-.63.12-.4.07-.47.08-.35.06-.29,0-.3,0a.41.41,0,0,1-.11,0l-.3.05S427.83,210.64,429.37,205.92Z" transform="translate(-321.11 -129.82)"/><path class="cls-1" d="M426.25,263.68a10.92,10.92,0,0,0-14.84-16l-12.32,11.4a66.46,66.46,0,0,0,22.42,9Z" transform="translate(-321.11 -129.82)"/><path class="cls-1" d="M426,266.89l-1.78,1.65a67.13,67.13,0,0,0,18.34.5,10.44,10.44,0,0,0-1.17-1.52A10.92,10.92,0,0,0,426,266.89Z" transform="translate(-321.11 -129.82)"/><path class="cls-1" d="M396.47,257.3,418.4,237a35.73,35.73,0,0,1-15.24-15.65L380.83,242a67.72,67.72,0,0,0,15.64,15.28Z" transform="translate(-321.11 -129.82)"/><path class="cls-1" d="M392.71,260.78l3.76-3.48A67.72,67.72,0,0,1,380.83,242l-3.7,3.42a71.48,71.48,0,0,0,4.84,5.8A72.7,72.7,0,0,0,392.71,260.78Z" transform="translate(-321.11 -129.82)"/><path class="cls-1" d="M432.45,269.39a68.7,68.7,0,0,1-8.28-.85l-4.56,4.23a72.6,72.6,0,0,0,12.64,1.61c1,0,1.91.06,2.87.06a73.87,73.87,0,0,0,9.07-.58,10.93,10.93,0,0,0-1.68-4.82A68.67,68.67,0,0,1,432.45,269.39Z" transform="translate(-321.11 -129.82)"/><path class="cls-1" d="M399.09,259.05l-3.79,3.51a71.38,71.38,0,0,0,21.77,9.61l4.44-4.11A66.46,66.46,0,0,1,399.09,259.05Z" transform="translate(-321.11 -129.82)"/><path class="cls-3" d="M427.62,213.26l.3,0,.29,0,.35-.06L429,213l.4-.07.63-.12.42-.09.81-.17c.15,0,.29-.07.46-.09l1-.24.43-.1,1.57-.43c2.49-.68,5.4-2.41,4.5-5.59a6.46,6.46,0,0,0-.51-1.19c0-.06-.06-.12-.09-.17a8,8,0,0,0-.77-1.09l-.07-.1h0a5.16,5.16,0,0,0-3.12-1.9c-2.66-.26-4.57,2-5.3,4.23-1.54,4.72-2.16,7.39-2.16,7.39l.3-.05A.41.41,0,0,0,427.62,213.26Z" transform="translate(-321.11 -129.82)"/><path class="cls-4" d="M459.34,231.66a35.67,35.67,0,1,0-56.18-10.31l7.42-6.87A26.14,26.14,0,1,1,426,230l-7.6,7A35.68,35.68,0,0,0,459.34,231.66Z" transform="translate(-321.11 -129.82)"/><path class="cls-4" d="M415.94,223.22a25.92,25.92,0,0,1-5.36-8.74l-7.42,6.87A35.73,35.73,0,0,0,418.4,237l7.6-7A25.9,25.9,0,0,1,415.94,223.22Z" transform="translate(-321.11 -129.82)"/><path class="cls-1" d="M429.48,340.92l17.85-8.21-2.95-6.42-17.85,8.2,1.22,2.65-15.29,7,.52,1.13,15.28-7Zm14.42-12.77,1.71,3.72L430.21,339l-1.71-3.73Z" transform="translate(-321.11 -129.82)"/><circle class="cls-1" cx="153.42" cy="170.6" r="21.88"/><rect class="cls-1" x="142.81" y="285.87" width="53.96" height="54.93"/><path class="cls-1" d="M472.21,385.93H447.47a12.15,12.15,0,0,0-12.12,11.3l-4.22,59.64a12.17,12.17,0,0,0,11.27,13l.87,0a12.16,12.16,0,0,0,12.11-11.3l3.42-48.34h36.79a11.8,11.8,0,0,0,1.46-.1c8.36-.25,17.55-2.83,20.33-17.13,2.51-21.6,1.09-34.37-5.53-54-4.89-14.24-16.92-18.74-25.22-16.67a9.93,9.93,0,0,0-2.25.84,7.67,7.67,0,0,0-2.84,1.71l-19.89,18.85-14.31-8.7-16.83,7.74a7.09,7.09,0,0,0,1.36,1.06L454,357.29,484.35,334a10,10,0,1,1,12.18,15.89L480.68,362a139.83,139.83,0,0,1,2.52,23.89h-11Z" transform="translate(-321.11 -129.82)"/><path class="cls-1" d="M412.7,375.94h.08l44.09-.43a7.7,7.7,0,0,0,4.65-1.6l33.65-25.79a7.78,7.78,0,0,0-9.46-12.35L454.12,360l-41.5.41a7.78,7.78,0,0,0,.08,15.55Z" transform="translate(-321.11 -129.82)"/><path class="cls-1" d="M430.75,347.69a7.77,7.77,0,0,0-9.05-6.24l-40.82,7.48-3.08-1.54a44.2,44.2,0,0,0,2.18,9.33,52.56,52.56,0,0,0,3.36,7.57l41.16-7.54.08,0A7.78,7.78,0,0,0,430.75,347.69Z" transform="translate(-321.11 -129.82)"/><polygon class="cls-1" points="101.96 141.71 111.72 195.4 119.23 144.34 101.96 141.71"/><rect class="cls-5" x="463.37" y="345.43" width="23.65" height="16.89" transform="translate(-438.29 235.33) rotate(-37.77)"/><polygon class="cls-3" points="156.89 219.89 154 222.12 151.77 219.24 148.78 221.55 151.01 224.43 148.13 226.66 150.44 229.65 153.32 227.42 155.56 230.3 158.54 227.99 156.31 225.11 159.2 222.88 156.89 219.89"/></svg>