<svg width="150" height="150" viewBox="0 0 150 150" fill="none" xmlns="http://www.w3.org/2000/svg">
<g clip-path="url(#clip0)">
<path d="M49.271 94.6049C49.271 94.6049 45.0657 93.61 45.0657 90.3731V71.3633C45.0657 70.3078 44.6464 69.2955 43.9001 68.5492C43.1538 67.8028 42.1415 67.3835 41.086 67.3835H23.9797C22.9242 67.3835 21.912 67.8028 21.1656 68.5492C20.4193 69.2955 20 70.3078 20 71.3633V131.059H75.7164L80.1405 112.845C80.1405 112.845 87.2974 111.592 91.3501 107.015L89.5725 94.6049H49.271Z" fill="#091494"/>
<path d="M127.115 45.6342C128.859 43.2529 129.858 40.4076 129.985 37.4584C130.113 34.5092 129.363 31.5885 127.83 29.0657C126.297 26.5429 124.05 24.5313 121.374 23.2854C118.698 22.0394 115.713 21.6151 112.795 22.0661C109.878 22.517 107.16 23.823 104.985 25.8188C102.81 27.8146 101.276 30.4107 100.576 33.2785C99.8769 36.1464 100.044 39.1573 101.055 41.9304C102.067 44.7036 103.879 47.1143 106.261 48.8578C109.454 51.1949 113.445 52.1683 117.355 51.5638C121.266 50.9592 124.776 48.8264 127.115 45.6342V45.6342ZM110.884 44.7918C110.095 42.2249 113.053 39.0411 117.484 37.6747C121.914 36.3084 126.16 37.2834 126.949 39.8503C127.738 42.4173 123.354 40.958 118.916 42.3244C114.479 43.6908 111.68 47.3919 110.884 44.7918V44.7918Z" fill="#091494"/>
<path d="M63.1669 91.2619C63.7696 91.4006 64.3858 91.4718 65.0042 91.4742H90.6404L95.5089 125.448C95.7898 127.421 96.7727 129.227 98.2773 130.534C99.7819 131.842 101.707 132.563 103.701 132.565C104.098 132.566 104.495 132.537 104.888 132.479C105.966 132.325 107.002 131.961 107.939 131.406C108.876 130.851 109.694 130.117 110.347 129.246C111 128.375 111.475 127.384 111.745 126.33C112.014 125.275 112.073 124.177 111.919 123.1L106.035 82.009C105.754 80.0335 104.769 78.2258 103.262 76.9183C101.755 75.6107 99.8259 74.8912 97.8305 74.8919H91.1113L74.6684 76.3711C74.4628 76.3711 74.2571 76.3711 74.0515 76.3711C72.8038 76.3688 71.5806 76.0252 70.5142 75.3776C69.4477 74.7299 68.5789 73.8028 68.0016 72.6967C67.4243 71.5906 67.1606 70.3477 67.239 69.1025C67.3175 67.8573 67.7351 66.6573 68.4467 65.6324L81.2747 47.1996C82.3135 45.7131 83.9003 44.7001 85.6859 44.3836C87.4715 44.067 89.3098 44.4727 90.7963 45.5115C92.2827 46.5503 93.2957 48.137 93.6123 49.9227C93.9289 51.7083 93.5231 53.5465 92.4843 55.033L88.0204 61.447L91.4364 61.1419L92.6369 60.0409C98.0759 55.8356 100.736 47.9889 97.0013 43.5051C93.267 39.0212 84.8233 36.6533 76.3929 42.5167C64.845 50.6487 58.9152 57.1091 51.5991 70.0035C47.1617 79.4222 51.7782 84.5959 56.5208 88.1113L57.184 88.5822C59.5387 90.267 61.3628 91.388 63.1669 91.2619Z" fill="#091494"/>
<path d="M74.5291 74.8455L103.435 72.2521C104.129 72.1898 104.805 71.9914 105.422 71.6682C106.04 71.345 106.588 70.9033 107.034 70.3683C107.481 69.8334 107.818 69.2157 108.026 68.5505C108.235 67.8853 108.31 67.1856 108.247 66.4914C108.185 65.7972 107.987 65.122 107.664 64.5045C107.34 63.8869 106.899 63.3391 106.364 62.8922C105.829 62.4454 105.211 62.1082 104.546 61.9001C103.881 61.692 103.181 61.6169 102.487 61.6792L84.9029 63.2579L91.244 54.1575C92.0216 53.002 92.3138 51.587 92.0573 50.218C91.8009 48.8489 91.0165 47.6356 89.8733 46.8398C88.7302 46.0441 87.32 45.7297 85.9471 45.9645C84.5742 46.1993 83.3486 46.9646 82.535 48.095L69.7069 66.5345C69.1533 67.3299 68.8281 68.2618 68.7666 69.2289C68.7051 70.1961 68.9096 71.1616 69.358 72.0208C69.8064 72.8799 70.4815 73.5999 71.31 74.1025C72.1386 74.6052 73.089 74.8713 74.0581 74.872C74.2155 74.8729 74.3728 74.864 74.5291 74.8455V74.8455Z" fill="#091494"/>
<path d="M101.154 20.9532C100.178 21.7673 99.544 22.9176 99.3759 24.1768C99.3573 24.3508 99.4081 24.5252 99.5175 24.6618C99.6268 24.7985 99.7857 24.8864 99.9596 24.9064H100.033C100.197 24.9074 100.355 24.8476 100.478 24.7386C100.6 24.6296 100.678 24.4791 100.696 24.3161C100.833 23.418 101.284 22.5976 101.969 22.0012C102.382 21.7187 102.847 21.524 103.338 21.4292C103.829 21.3345 104.334 21.3418 104.822 21.4507C104.995 21.4754 105.171 21.4307 105.311 21.3264C105.451 21.222 105.545 21.0665 105.571 20.8935C105.598 20.7203 105.555 20.5436 105.452 20.4019C105.349 20.2602 105.194 20.1651 105.021 20.1374C104.355 19.9975 103.667 19.9978 103.001 20.1383C102.335 20.2788 101.706 20.5563 101.154 20.9532V20.9532Z" fill="#091494"/>
<path d="M105.153 17.1924C102.852 16.748 100.908 17.0663 99.3825 18.1409C97.9189 19.2453 96.9149 20.8516 96.5635 22.6512C96.5494 22.7375 96.5524 22.8257 96.5724 22.9108C96.5924 22.9959 96.629 23.0762 96.6802 23.1471C96.7314 23.218 96.796 23.2781 96.8705 23.3239C96.945 23.3697 97.0277 23.4003 97.1141 23.414H97.2202C97.3792 23.4161 97.5336 23.3609 97.6554 23.2587C97.7771 23.1564 97.8581 23.0138 97.8835 22.8569C98.1698 21.4103 98.974 20.1178 100.145 19.222C101.372 18.3598 102.978 18.1143 104.914 18.4858C105.001 18.5019 105.091 18.5007 105.178 18.4822C105.264 18.4638 105.346 18.4285 105.419 18.3783C105.492 18.3281 105.555 18.264 105.603 18.1897C105.651 18.1154 105.684 18.0323 105.7 17.9452C105.716 17.8581 105.715 17.7687 105.697 17.682C105.678 17.5954 105.643 17.5132 105.593 17.4402C105.543 17.3673 105.479 17.3049 105.404 17.2566C105.33 17.2084 105.247 17.1753 105.16 17.1592L105.153 17.1924Z" fill="#091494"/>
<path d="M108.549 81.883C108.635 81.9219 108.727 81.9423 108.821 81.9427C108.949 81.9419 109.075 81.9038 109.182 81.8332C109.289 81.7626 109.373 81.6624 109.425 81.5447C109.737 80.9433 109.919 80.2834 109.962 79.6073C110.004 78.9312 109.905 78.2536 109.67 77.6181C109.141 76.4558 108.194 75.5349 107.017 75.0379C106.853 74.9728 106.671 74.9754 106.509 75.045C106.347 75.1147 106.22 75.2457 106.155 75.4093C106.09 75.5729 106.092 75.7557 106.162 75.9174C106.231 76.0791 106.363 76.2065 106.526 76.2716C107.362 76.6415 108.036 77.3011 108.423 78.1288C108.583 78.5993 108.645 79.0977 108.604 79.593C108.563 80.0883 108.42 80.5698 108.184 81.0075C108.15 81.0888 108.132 81.1762 108.132 81.2646C108.131 81.3529 108.149 81.4404 108.183 81.522C108.217 81.6036 108.266 81.6775 108.329 81.7395C108.392 81.8015 108.467 81.8503 108.549 81.883Z" fill="#091494"/>
<path d="M111.342 82.7785C111.433 82.8225 111.532 82.8452 111.633 82.8448C111.758 82.8451 111.88 82.8104 111.985 82.7447C112.091 82.679 112.176 82.585 112.23 82.4734C113.265 80.3707 113.477 78.414 112.854 76.6563C112.181 74.9504 110.9 73.5539 109.259 72.7363C109.099 72.6624 108.916 72.6551 108.751 72.7161C108.585 72.777 108.451 72.9012 108.377 73.0613C108.303 73.2214 108.296 73.4042 108.357 73.5697C108.417 73.7351 108.542 73.8696 108.702 73.9434C110.022 74.6137 111.054 75.7403 111.607 77.114C112.104 78.5201 111.912 80.1253 111.043 81.8897C110.965 82.0471 110.952 82.2292 111.008 82.3958C111.064 82.5625 111.184 82.7001 111.342 82.7785Z" fill="#091494"/>
<path d="M62.0526 102.704C62.0128 101.271 62.4704 98.1402 63.147 98.1336C63.8236 98.127 64.4736 101.251 64.4736 102.684C64.4736 104.116 63.9761 104.521 63.2996 104.521C62.623 104.521 62.099 104.13 62.0526 102.704Z" fill="white"/>
<path d="M51.8446 101.908C52.4681 102.034 50.6838 105.038 49.6358 106.365C48.5878 107.692 47.7919 107.957 47.1684 107.824C46.5449 107.692 46.326 107.214 47.374 105.887C48.422 104.561 51.2144 101.782 51.8446 101.908Z" fill="white"/>
<path d="M42.754 121.322C46.8052 109.302 58.5268 95 58.5268 95L60.7348 95.1881C56.5282 101.614 55.4749 115.102 55.2116 121.158C58.5876 121.425 60.8698 121.947 60.8698 122.541C60.8616 122.622 60.8208 122.698 60.755 122.754C65.0763 123.051 68 123.615 68 124.265C68 125.223 61.6125 126 53.7396 126C46.7175 126 40.9107 125.393 39.7155 124.568C33.6387 124.428 29 123.822 29 123.094C29 122.365 34.2464 121.674 40.9579 121.601C41.4846 121.498 42.0788 121.407 42.754 121.322Z" fill="white"/>
</g>
<defs>
<clipPath id="clip0">
<rect x="20" y="17" width="110" height="115.572" fill="white"/>
</clipPath>
</defs>
</svg>
