<svg id="Calque_1" data-name="Calque 1" xmlns="http://www.w3.org/2000/svg" viewBox="0 0 330.75 345.16"><defs><style>.cls-1{fill:#1d70b7;}.cls-2{fill:#35a8e0;}.cls-10,.cls-11,.cls-12,.cls-13,.cls-14,.cls-15,.cls-16,.cls-3,.cls-6,.cls-7,.cls-8,.cls-9{fill:none;stroke-miterlimit:10;}.cls-3{stroke:#35a8e0;stroke-linecap:round;stroke-width:3.72px;}.cls-4{fill:#091494;}.cls-5{fill:#fff;}.cls-10,.cls-11,.cls-12,.cls-13,.cls-14,.cls-15,.cls-16,.cls-6,.cls-7,.cls-8,.cls-9{stroke:#091494;stroke-width:2.48px;}.cls-7{stroke-dasharray:3.55 3.55 3.55 3.55;}.cls-8{stroke-dasharray:3.55 3.55 3.55 3.55 3.55 3.55;}.cls-9{stroke-dasharray:3.62 3.62 3.62 3.62;}.cls-10{stroke-dasharray:3.62 3.62 3.62 3.62 3.62 3.62;}.cls-11{stroke-dasharray:3.5 3.5 3.5 3.5;}.cls-12{stroke-dasharray:3.5 3.5 3.5 3.5 3.5 3.5;}.cls-13{stroke-dasharray:3.5 3.5 3.5 3.5;}.cls-14{stroke-dasharray:3.5 3.5 3.5 3.5 3.5 3.5;}.cls-15{stroke-dasharray:3.62 3.62 3.62 3.62;}.cls-16{stroke-dasharray:3.62 3.62 3.62 3.62 3.62 3.62;}</style></defs><path class="cls-1" d="M371,388.69a9.92,9.92,0,0,0,9.89,9.34l.58,0a9.93,9.93,0,0,0,9.33-10.47c-2.36-40.3,0-62.83,3-75.3l2.83.59c-2.88,11.95-5.37,34.13-3,74.54a12.71,12.71,0,0,1-3.2,9.23,13.49,13.49,0,0,1-1.15,1.12V493.6a15.33,15.33,0,1,0,30.65,0V381.71h5.75V493.6a15.33,15.33,0,1,0,30.65,0V397.72a12.05,12.05,0,0,1-1.14-1.12,12.68,12.68,0,0,1-3.21-9.23c2.36-40.41-.13-62.59-3-74.54l2.83-.59c3,12.47,5.38,35,3,75.3A9.91,9.91,0,0,0,464.11,398l.58,0a9.91,9.91,0,0,0,9.89-9.34c2.06-35.08.87-62-3.5-80.53-2.73-11.57-6.71-19.89-11.92-24.87a19.56,19.56,0,0,0-8.37-4.92,30.73,30.73,0,0,1-56.05,0,19.56,19.56,0,0,0-8.37,4.92c-5.21,5-9.18,13.3-11.92,24.87C370.08,326.7,368.89,353.61,371,388.69Z" transform="translate(-336.95 -172.84)"/><circle class="cls-1" cx="85.82" cy="92.92" r="27.89"/><path class="cls-2" d="M422.45,506.83l.31-.22.32.22c.21-.29.41-.58.6-.88l.79-.56c-.23-.32-.45-.64-.66-1l-1-1.65-1,1.65c-.21.33-.43.65-.65,1l.78.56C422,506.25,422.24,506.54,422.45,506.83Z" transform="translate(-336.95 -172.84)"/><rect class="cls-2" x="44.86" y="242.6" width="2.48" height="2.52"/><rect class="cls-2" x="44.86" y="236.3" width="2.48" height="2.52"/><rect class="cls-2" x="44.86" y="248.91" width="2.48" height="2.52"/><rect class="cls-2" x="44.86" y="255.22" width="2.48" height="2.52"/><polygon class="cls-2" points="47.34 320.76 47.34 318.27 44.86 318.27 44.86 320.7 44.85 320.8 47.34 320.76"/><path class="cls-2" d="M382.16,497.62a25.66,25.66,0,0,0,.62,2.59l2.37-.72a22.81,22.81,0,0,1-.55-2.31Z" transform="translate(-336.95 -172.84)"/><rect class="cls-2" x="44.86" y="261.52" width="2.48" height="2.52"/><path class="cls-2" d="M387.69,504.84a21.09,21.09,0,0,1-1.2-2l-2.21,1.13a21.14,21.14,0,0,0,1.35,2.29Z" transform="translate(-336.95 -172.84)"/><rect class="cls-2" x="44.86" y="305.66" width="2.48" height="2.52"/><path class="cls-2" d="M391.66,509.23a19,19,0,0,1-1.74-1.61l-1.79,1.71a20.89,20.89,0,0,0,1.95,1.81Z" transform="translate(-336.95 -172.84)"/><rect class="cls-2" x="44.86" y="311.97" width="2.48" height="2.52"/><path class="cls-2" d="M420.48,509.87l-1.73-1.78a19,19,0,0,1-1.8,1.56l1.52,2A26,26,0,0,0,420.48,509.87Z" transform="translate(-336.95 -172.84)"/><path class="cls-2" d="M396.72,512.31a20,20,0,0,1-2.13-1l-1.22,2.15a20.4,20.4,0,0,0,2.39,1.18Z" transform="translate(-336.95 -172.84)"/><path class="cls-2" d="M408.37,513.53a18.8,18.8,0,0,1-2.36.3l.18,2.48a23.55,23.55,0,0,0,2.64-.35Z" transform="translate(-336.95 -172.84)"/><rect class="cls-2" x="44.86" y="267.83" width="2.48" height="2.52"/><path class="cls-2" d="M402.45,513.78a20.76,20.76,0,0,1-2.34-.39l-.54,2.42a23.25,23.25,0,0,0,2.63.43Z" transform="translate(-336.95 -172.84)"/><rect class="cls-2" x="44.86" y="293.05" width="2.48" height="2.52"/><path class="cls-2" d="M415.11,513.77,414,511.58a23.56,23.56,0,0,1-2.17,1l.89,2.31A22.06,22.06,0,0,0,415.11,513.77Z" transform="translate(-336.95 -172.84)"/><rect class="cls-2" x="44.86" y="280.44" width="2.48" height="2.52"/><rect class="cls-2" x="44.86" y="274.13" width="2.48" height="2.52"/><rect class="cls-2" x="44.86" y="286.74" width="2.48" height="2.52"/><rect class="cls-2" x="44.86" y="299.36" width="2.48" height="2.52"/><path class="cls-2" d="M381.74,403l.07,1.14v1.22h.07v.12c.41,0,.83-.07,1.24-.12h1.16v-2.67l-1.41.2C382.5,402.9,382.12,402.94,381.74,403Z" transform="translate(-336.95 -172.84)"/><path class="cls-2" d="M365,360.69c0-.84,0-1.67,0-2.49h-2.47c0,.83,0,1.67,0,2.51Z" transform="translate(-336.95 -172.84)"/><path class="cls-2" d="M372.6,296.94l-2.34-.84c-.28.78-.55,1.58-.82,2.39l2.36.77C372.05,298.47,372.32,297.7,372.6,296.94Z" transform="translate(-336.95 -172.84)"/><path class="cls-2" d="M367.1,321l-2.45-.32c-.11.82-.22,1.65-.32,2.49l2.46.3C366.89,322.61,367,321.79,367.1,321Z" transform="translate(-336.95 -172.84)"/><path class="cls-2" d="M369.23,308.79l-2.42-.54c-.18.81-.36,1.64-.52,2.47l2.43.49C368.88,310.39,369.05,309.58,369.23,308.79Z" transform="translate(-336.95 -172.84)"/><path class="cls-2" d="M366.38,327.15l-2.47-.25c-.08.82-.16,1.65-.24,2.5l2.47.22C366.22,328.79,366.3,328,366.38,327.15Z" transform="translate(-336.95 -172.84)"/><path class="cls-2" d="M370.72,302.8l-2.38-.67c-.23.8-.45,1.61-.66,2.44l2.4.61C370.29,304.37,370.5,303.58,370.72,302.8Z" transform="translate(-336.95 -172.84)"/><polygon class="cls-2" points="28.32 200.31 28.24 197.81 25.77 197.88 25.84 200.39 28.32 200.31"/><path class="cls-2" d="M365.18,345.75l-2.47-.08c0,.83,0,1.67-.07,2.51l2.47.06C365.13,347.4,365.16,346.57,365.18,345.75Z" transform="translate(-336.95 -172.84)"/><path class="cls-2" d="M365.83,333.33l-2.47-.18c-.06.83-.12,1.66-.17,2.5l2.47.16C365.71,335,365.77,334.15,365.83,333.33Z" transform="translate(-336.95 -172.84)"/><path class="cls-2" d="M365,352l-2.48,0c0,.83,0,1.66,0,2.5l2.48,0C365,353.63,365,352.8,365,352Z" transform="translate(-336.95 -172.84)"/><path class="cls-2" d="M365.44,339.54l-2.47-.13c-.05.83-.09,1.66-.12,2.5l2.47.11Z" transform="translate(-336.95 -172.84)"/><path class="cls-2" d="M368,314.86l-2.44-.42c-.15.81-.28,1.64-.41,2.48l2.45.38C367.77,316.48,367.9,315.66,368,314.86Z" transform="translate(-336.95 -172.84)"/><path class="cls-2" d="M366.38,391.59a14.62,14.62,0,0,1-.36-2.28l-2.47.2a16.63,16.63,0,0,0,.42,2.65Z" transform="translate(-336.95 -172.84)"/><path class="cls-2" d="M372.94,400.71a13.73,13.73,0,0,1-1.84-1.37l-1.63,1.87a16.65,16.65,0,0,0,2.15,1.6Z" transform="translate(-336.95 -172.84)"/><polygon class="cls-2" points="28.86 212.76 28.73 210.27 26.25 210.39 26.38 212.89 28.86 212.76"/><path class="cls-2" d="M362.58,364.46c0,.83,0,1.67,0,2.51l2.48-.05c0-.84,0-1.67,0-2.49Z" transform="translate(-336.95 -172.84)"/><polygon class="cls-2" points="28.56 206.53 28.45 204.04 25.98 204.14 26.08 206.64 28.56 206.53"/><path class="cls-2" d="M378.29,402.77a14,14,0,0,1-2.23-.57l-.8,2.35a18,18,0,0,0,2.6.66Z" transform="translate(-336.95 -172.84)"/><path class="cls-2" d="M377.87,286l-2.08-1.34c-.46.71-.9,1.44-1.33,2.2l2.16,1.22C377,287.32,377.44,286.63,377.87,286Z" transform="translate(-336.95 -172.84)"/><path class="cls-2" d="M374.94,291.29l-2.24-1.07c-.36.76-.7,1.53-1,2.33l2.28,1C374.26,292.75,374.6,292,374.94,291.29Z" transform="translate(-336.95 -172.84)"/><path class="cls-2" d="M381.52,281.17l-1.83-1.67c-.57.62-1.13,1.28-1.67,2l2,1.53C380.47,282.36,381,281.74,381.52,281.17Z" transform="translate(-336.95 -172.84)"/><path class="cls-2" d="M386,277.19l-1.44-2c-.69.5-1.38,1-2,1.61l1.62,1.88C384.71,278.14,385.34,277.64,386,277.19Z" transform="translate(-336.95 -172.84)"/><path class="cls-2" d="M368.77,396.79a14.58,14.58,0,0,1-1.2-2L365.36,396a17.32,17.32,0,0,0,1.4,2.29Z" transform="translate(-336.95 -172.84)"/><path class="cls-2" d="M389.05,275.3c.35-.18.71-.35,1.06-.51l.93-.42-.24-1c-.09-.38-.18-.77-.25-1.16l-2.43.48a2.56,2.56,0,0,0,.05.27l-.26.14Z" transform="translate(-336.95 -172.84)"/><path class="cls-2" d="M418,233.26l-.35-2.45c-.84.12-1.69.27-2.51.46l.54,2.42C416.44,233.52,417.22,233.37,418,233.26Z" transform="translate(-336.95 -172.84)"/><path class="cls-2" d="M423.91,232.94l.09-2.48c-.85,0-1.71,0-2.55,0l.09,2.48Q422.73,232.9,423.91,232.94Z" transform="translate(-336.95 -172.84)"/><path class="cls-2" d="M412.26,234.64l-.8-2.35c-.8.27-1.6.58-2.38.91l1,2.28C410.77,235.17,411.51,234.89,412.26,234.64Z" transform="translate(-336.95 -172.84)"/><path class="cls-2" d="M402,240.36l-1.58-1.92c-.65.54-1.29,1.11-1.91,1.69l1.71,1.8C400.76,241.39,401.36,240.86,402,240.36Z" transform="translate(-336.95 -172.84)"/><path class="cls-2" d="M406.85,237l-1.2-2.16c-.74.41-1.47.85-2.18,1.31l1.36,2.08C405.49,237.83,406.17,237.41,406.85,237Z" transform="translate(-336.95 -172.84)"/><path class="cls-2" d="M390.05,268.69c-.07-.78-.11-1.58-.13-2.37l-2.47,0c0,.85.05,1.71.13,2.54Z" transform="translate(-336.95 -172.84)"/><path class="cls-2" d="M436.37,233.16c-.78-.32-1.58-.63-2.38-.89l-.79,2.34c.74.25,1.49.54,2.22.84Z" transform="translate(-336.95 -172.84)"/><path class="cls-2" d="M442,236.14c-.71-.46-1.45-.9-2.19-1.31l-1.2,2.17c.69.38,1.37.79,2,1.22Z" transform="translate(-336.95 -172.84)"/><path class="cls-2" d="M430.31,231.25c-.83-.18-1.67-.33-2.51-.45l-.35,2.45c.78.11,1.56.25,2.33.42Z" transform="translate(-336.95 -172.84)"/><path class="cls-2" d="M447,240.08c-.61-.58-1.25-1.15-1.91-1.68l-1.57,1.92c.61.49,1.21,1,1.78,1.56Z" transform="translate(-336.95 -172.84)"/><path class="cls-2" d="M458.09,266.28l-2.48,0c0,.79-.05,1.58-.12,2.36l2.47.22C458,268,458.08,267.13,458.09,266.28Z" transform="translate(-336.95 -172.84)"/><path class="cls-2" d="M455.47,262.7l2.47-.23c-.08-.85-.19-1.7-.33-2.53l-2.44.41C455.29,261.12,455.4,261.91,455.47,262.7Z" transform="translate(-336.95 -172.84)"/><path class="cls-2" d="M454.39,256.88l2.39-.67c-.23-.81-.49-1.63-.78-2.42l-2.33.84C453.94,255.37,454.18,256.13,454.39,256.88Z" transform="translate(-336.95 -172.84)"/><path class="cls-2" d="M451.21,244.84c-.5-.68-1-1.35-1.58-2l-1.89,1.61c.51.6,1,1.22,1.47,1.86Z" transform="translate(-336.95 -172.84)"/><path class="cls-2" d="M452.28,251.36l2.23-1.09c-.37-.76-.78-1.52-1.2-2.24l-2.14,1.25C451.56,250,451.94,250.65,452.28,251.36Z" transform="translate(-336.95 -172.84)"/><path class="cls-2" d="M391.84,254.7l-2.34-.84c-.28.8-.54,1.61-.77,2.43l2.39.67C391.33,256.2,391.57,255.44,391.84,254.7Z" transform="translate(-336.95 -172.84)"/><path class="cls-2" d="M397.75,244.51l-1.89-1.61c-.55.64-1.08,1.31-1.58,2l2,1.46C396.74,245.73,397.24,245.1,397.75,244.51Z" transform="translate(-336.95 -172.84)"/><path class="cls-2" d="M394.33,249.34l-2.14-1.25c-.43.73-.83,1.49-1.2,2.25l2.23,1.09C393.56,250.72,393.94,250,394.33,249.34Z" transform="translate(-336.95 -172.84)"/><path class="cls-2" d="M390.35,260.42l-2.44-.4c-.14.83-.25,1.68-.32,2.53l2.47.22C390.13,262,390.23,261.2,390.35,260.42Z" transform="translate(-336.95 -172.84)"/><path class="cls-2" d="M455,272.21c-.07.39-.16.78-.25,1.16l-.23,1,.93.42,1.05.51,1.14-2.2-.26-.14.06-.27Z" transform="translate(-336.95 -172.84)"/><path class="cls-2" d="M480.42,348.19l2.47-.06c0-.84,0-1.67-.07-2.5l-2.47.08C480.37,346.53,480.4,347.36,480.42,348.19Z" transform="translate(-336.95 -172.84)"/><path class="cls-2" d="M477.89,317.26l2.45-.38c-.13-.84-.27-1.67-.41-2.49l-2.44.42C477.63,315.62,477.76,316.43,477.89,317.26Z" transform="translate(-336.95 -172.84)"/><path class="cls-2" d="M478.74,323.4l2.46-.3c-.1-.84-.21-1.67-.32-2.49l-2.46.33C478.53,321.75,478.64,322.57,478.74,323.4Z" transform="translate(-336.95 -172.84)"/><path class="cls-2" d="M480.21,342l2.47-.11c0-.84-.07-1.68-.12-2.51l-2.47.13Q480.15,340.72,480.21,342Z" transform="translate(-336.95 -172.84)"/><path class="cls-2" d="M479.87,335.77l2.47-.16c0-.85-.11-1.68-.17-2.51l-2.47.19C479.76,334.11,479.81,334.93,479.87,335.77Z" transform="translate(-336.95 -172.84)"/><path class="cls-2" d="M479.39,329.57l2.47-.22c-.08-.84-.16-1.68-.25-2.5l-2.46.25Z" transform="translate(-336.95 -172.84)"/><path class="cls-2" d="M473.72,299.22l2.36-.77c-.27-.82-.55-1.62-.83-2.4l-2.33.85C473.2,297.66,473.46,298.43,473.72,299.22Z" transform="translate(-336.95 -172.84)"/><path class="cls-2" d="M475.44,305.14l2.4-.62c-.21-.83-.43-1.64-.66-2.44l-2.38.68C475,303.53,475.23,304.33,475.44,305.14Z" transform="translate(-336.95 -172.84)"/><path class="cls-2" d="M469.52,402.18a14.21,14.21,0,0,1-2.22.58l.43,2.44a16.54,16.54,0,0,0,2.6-.67Z" transform="translate(-336.95 -172.84)"/><path class="cls-2" d="M476.81,311.16l2.43-.48c-.17-.84-.34-1.66-.52-2.47l-2.42.53C476.47,309.54,476.64,310.34,476.81,311.16Z" transform="translate(-336.95 -172.84)"/><path class="cls-2" d="M471.58,293.48l2.28-1c-.34-.79-.69-1.57-1.05-2.32l-2.24,1.07C470.92,292,471.25,292.71,471.58,293.48Z" transform="translate(-336.95 -172.84)"/><path class="cls-2" d="M478,394.78a14.74,14.74,0,0,1-1.19,2l2,1.44a17.36,17.36,0,0,0,1.39-2.3Z" transform="translate(-336.95 -172.84)"/><path class="cls-2" d="M482,389.45l-2.47-.19a14.31,14.31,0,0,1-.36,2.27l2.41.57A16.81,16.81,0,0,0,482,389.45Z" transform="translate(-336.95 -172.84)"/><polygon class="cls-2" points="145.38 210.34 142.91 210.22 142.78 212.71 145.25 212.84 145.38 210.34"/><polygon class="cls-2" points="145.66 204.09 143.18 204 143.08 206.49 145.55 206.59 145.66 204.09"/><polygon class="cls-2" points="145.87 197.84 143.39 197.77 143.31 200.26 145.79 200.34 145.87 197.84"/><polygon class="cls-2" points="146 191.58 143.53 191.54 143.48 194.03 145.96 194.08 146 191.58"/><path class="cls-2" d="M483,358.16h-2.48c0,.83,0,1.66,0,2.49l2.48,0C483,359.82,483,359,483,358.16Z" transform="translate(-336.95 -172.84)"/><path class="cls-2" d="M467.48,281.43c-.53-.68-1.1-1.34-1.67-2L464,281.13c.53.59,1.06,1.2,1.56,1.84Z" transform="translate(-336.95 -172.84)"/><path class="cls-2" d="M480.52,354.42l2.47,0c0-.84,0-1.68,0-2.51l-2.48,0Q480.51,353.16,480.52,354.42Z" transform="translate(-336.95 -172.84)"/><path class="cls-2" d="M463,276.75c-.67-.57-1.36-1.11-2.06-1.61l-1.44,2c.64.46,1.27.95,1.88,1.47Z" transform="translate(-336.95 -172.84)"/><path class="cls-2" d="M476.11,401.17l-1.63-1.86a15.6,15.6,0,0,1-1.85,1.38l1.33,2.09A17.71,17.71,0,0,0,476.11,401.17Z" transform="translate(-336.95 -172.84)"/><path class="cls-2" d="M471.05,286.78c-.43-.76-.88-1.49-1.33-2.2l-2.09,1.34c.43.67.85,1.36,1.26,2.08Z" transform="translate(-336.95 -172.84)"/><path class="cls-2" d="M463.65,405.32h.08V404.1l.06-1.14c-.38,0-.76-.06-1.13-.11l-1.41-.2v2.67h1.15c.41.05.83.09,1.25.12Z" transform="translate(-336.95 -172.84)"/><path class="cls-2" d="M425.08,509.89a23.76,23.76,0,0,0,2,1.75l1.52-2a20.53,20.53,0,0,1-1.8-1.56Z" transform="translate(-336.95 -172.84)"/><path class="cls-2" d="M433.77,512.57a21.93,21.93,0,0,1-2.16-1l-1.15,2.19a23.13,23.13,0,0,0,2.43,1.1Z" transform="translate(-336.95 -172.84)"/><rect class="cls-2" x="124.3" y="242.56" width="2.48" height="2.52"/><path class="cls-2" d="M452.2,513.39,451,511.24a19.12,19.12,0,0,1-2.13,1l1,2.28A22.08,22.08,0,0,0,452.2,513.39Z" transform="translate(-336.95 -172.84)"/><path class="cls-2" d="M457.43,509.3l-1.79-1.71a20.47,20.47,0,0,1-1.74,1.62l1.58,1.91A22.44,22.44,0,0,0,457.43,509.3Z" transform="translate(-336.95 -172.84)"/><path class="cls-2" d="M445.46,513.38a18.72,18.72,0,0,1-2.34.39l.26,2.47a23.65,23.65,0,0,0,2.63-.44Z" transform="translate(-336.95 -172.84)"/><path class="cls-2" d="M439.55,513.84a23.22,23.22,0,0,1-2.35-.3l-.46,2.43a21.33,21.33,0,0,0,2.65.34Z" transform="translate(-336.95 -172.84)"/><rect class="cls-2" x="124.3" y="236.26" width="2.48" height="2.52"/><rect class="cls-2" x="124.3" y="267.79" width="2.48" height="2.52"/><rect class="cls-2" x="124.3" y="305.62" width="2.48" height="2.52"/><rect class="cls-2" x="124.3" y="299.32" width="2.48" height="2.52"/><rect class="cls-2" x="124.3" y="311.93" width="2.48" height="2.52"/><rect class="cls-2" x="124.3" y="293.01" width="2.48" height="2.52"/><rect class="cls-2" x="124.3" y="318.24" width="2.48" height="2.52"/><path class="cls-2" d="M457.86,504.81l2.07,1.37a21.9,21.9,0,0,0,1.34-2.3l-2.21-1.12A21.09,21.09,0,0,1,457.86,504.81Z" transform="translate(-336.95 -172.84)"/><path class="cls-2" d="M460.39,499.46l2.37.71a23.22,23.22,0,0,0,.62-2.59l-2.44-.43A23.47,23.47,0,0,1,460.39,499.46Z" transform="translate(-336.95 -172.84)"/><rect class="cls-2" x="124.3" y="255.18" width="2.48" height="2.52"/><rect class="cls-2" x="124.3" y="274.09" width="2.48" height="2.52"/><rect class="cls-2" x="124.3" y="261.48" width="2.48" height="2.52"/><rect class="cls-2" x="124.3" y="286.71" width="2.48" height="2.52"/><rect class="cls-2" x="124.3" y="280.4" width="2.48" height="2.52"/><rect class="cls-2" x="124.3" y="248.87" width="2.48" height="2.52"/><line class="cls-3" x1="34.57" y1="82.74" x2="83.43" y2="107.46"/><polygon class="cls-2" points="79.79 105.92 83.17 100.12 86.5 105.95 89.83 111.77 83.12 111.74 76.41 111.71 79.79 105.92"/><line class="cls-3" x1="141.64" y1="269.77" x2="105.93" y2="251.36"/><polygon class="cls-2" points="109.56 252.91 106.16 258.7 102.85 252.86 99.54 247.03 106.25 247.08 112.96 247.13 109.56 252.91"/><polyline class="cls-3" points="299.08 257.83 264.99 269.02 286.52 280.63"/><polygon class="cls-2" points="282.62 278.73 285.79 272.82 289.32 278.53 292.86 284.23 286.15 284.44 279.44 284.64 282.62 278.73"/><polyline class="cls-3" points="159.04 53.62 194.21 60.71 181.22 39.99"/><polygon class="cls-2" points="183.67 43.57 177.99 47.14 177.74 40.44 177.48 33.73 183.42 36.86 189.35 39.99 183.67 43.57"/><path class="cls-4" d="M510.55,462.19a.7.7,0,0,0-.53.1l-2-1.64c.19-.28.36-.57.56-.86a4.15,4.15,0,0,1,1-.88l1.86,1.13a.86.86,0,1,0,.21-.34l-1.74-1.06a1.58,1.58,0,0,0,.4-.54,13.68,13.68,0,0,0,.7-2l1.24.48a.17.17,0,0,1,0,.07.88.88,0,1,0,.91-.83.86.86,0,0,0-.75.38l-1.3-.5a12.35,12.35,0,0,0,.13-1.62l1.51-.06h0a.68.68,0,0,0,.88.4.69.69,0,1,0-.9-.82l-1.49.06v-.12a4.14,4.14,0,0,0-.61-1.61l3.05-.63.06.1a.69.69,0,0,0,1,.08.68.68,0,0,0,.09-1,.69.69,0,0,0-1-.08.64.64,0,0,0-.24.47l-3.11.63a1.46,1.46,0,0,1-.05-.2c-.11-.6-.1-1.24-.25-1.84l1.29-.39a.87.87,0,0,0,1.14.36.87.87,0,1,0-.77-1.57.87.87,0,0,0-.49.82l-1.29.39a12.21,12.21,0,0,0-1.25-1.93l-.09-.16,2.1-1,.05.06a.88.88,0,0,0,1.24,0,.87.87,0,0,0-1.23-1.23.85.85,0,0,0-.24.81l-2.09,1a5,5,0,0,0-.74-1.64L509.6,443h0a.67.67,0,0,0,.88-.38.69.69,0,0,0-.38-.89.67.67,0,0,0-.88.38.65.65,0,0,0,.05.61l-1.76,2.05a12.76,12.76,0,0,0-1.29-1l.85-1.29.13,0a.68.68,0,1,0-.48-.24l-.84,1.28,0,0a7.08,7.08,0,0,0-1.71-.67l.84-2.2a.93.93,0,1,0-.54-.27l.16.13-.85,2.21-.11-.05a7.52,7.52,0,0,0-1.41-.38l.08-1,.12-.05a.68.68,0,1,0-.91-.31.7.7,0,0,0,.38.34l-.07.95-.4-.07a9.7,9.7,0,0,0-2.14.16l-.11-2.59a.87.87,0,0,0-.41-1.7.88.88,0,0,0-.67,1,.86.86,0,0,0,.67.67l.11,2.59a13,13,0,0,0-1.83.25l-.52.11-.37-1.66.07,0a.87.87,0,1,0-.9-1.49.88.88,0,0,0-.3,1.2.89.89,0,0,0,.73.42l.37,1.66a11.46,11.46,0,0,0-1.17.39,2.57,2.57,0,0,1-.69.15l-1-2.6a.34.34,0,0,0,.12-.12.68.68,0,0,0-.16-.95.68.68,0,0,0-.79,1.11.7.7,0,0,0,.46.12l.92,2.47a2.45,2.45,0,0,0-1.22.29l-.41.26-.65-1.07a.57.57,0,0,0,.11-.22.68.68,0,1,0-1.3-.39.67.67,0,0,0,.46.84.65.65,0,0,0,.39,0l.64,1.06a7.47,7.47,0,0,0-1.22.94,2.12,2.12,0,0,0-.41.57l-1.54-1.6a.79.79,0,0,0,.06-.22.68.68,0,1,0-.75.6.71.71,0,0,0,.41-.08l1.64,1.71a6.82,6.82,0,0,1-.54,1.19,6.53,6.53,0,0,1-.64.77l-2.05-1.6a.88.88,0,0,0-.52-1.11.87.87,0,1,0,.3,1.45l2,1.57a2.87,2.87,0,0,0-.52.78,3.21,3.21,0,0,0-.11,1.39l-1.42-.51v-.08a.86.86,0,1,0-.14.46l1.57.57a2.63,2.63,0,0,1,0,.49c-.1.49-.31,1-.44,1.46l-1.67-.3a.43.43,0,0,0,0-.14.66.66,0,0,0-.88-.37.67.67,0,0,0-.38.88.67.67,0,0,0,1.24,0l1.65.29c0,.11,0,.21,0,.32,0,.52-.13,1.07-.15,1.61l-3,.31a1.3,1.3,0,0,0-.1-.15.68.68,0,1,0-.07,1,.62.62,0,0,0,.22-.4l2.91-.31a2.85,2.85,0,0,0,0,.29,3.3,3.3,0,0,0,.83,1.3l-1.52.34a.48.48,0,0,0-.09-.11.68.68,0,1,0-1,1,.68.68,0,0,0,1.16-.46l1.67-.37a1.52,1.52,0,0,1,.18.33c.19.47.28,1,.45,1.48l-1.63.83a.87.87,0,0,0-1.09-.16.88.88,0,0,0,.91,1.5.87.87,0,0,0,.38-1l1.59-.81a1.78,1.78,0,0,0,.17.3,10.9,10.9,0,0,0,1.67,1.57l-1,1a.86.86,0,0,0-1.14.17.87.87,0,1,0,1.42.13l1.05-1a7,7,0,0,0,1.33,1.57l.38.24-1.4,2h0a.69.69,0,0,0-.85.46.68.68,0,0,0,.46.85.67.67,0,0,0,.84-.46.64.64,0,0,0-.11-.6l1.43-2c.44.23.89.43,1.33.61l.14.06-.46,1.56h0a.67.67,0,0,0-.65.71.68.68,0,0,0,.7.65.69.69,0,0,0,.66-.71.66.66,0,0,0-.31-.53l.46-1.55a13.91,13.91,0,0,0,1.66.42l.37.05-.17,1.19-.11,0a.69.69,0,0,0-.4.88.68.68,0,0,0,.88.39.66.66,0,0,0,.39-.87.63.63,0,0,0-.35-.38l.17-1.23c.49,0,1-.07,1.47-.07l.54,0v1.8a.87.87,0,0,0-.67,1,.86.86,0,0,0,1,.76.88.88,0,0,0,.76-1,.89.89,0,0,0-.65-.74v-1.76a4.36,4.36,0,0,0,1.3,0,6.36,6.36,0,0,0,.85-.25l.35,2.27,0,0a.87.87,0,1,0,1.16.41.84.84,0,0,0-.71-.49l-.36-2.37.9-.37a7.66,7.66,0,0,0,.86-.43l1.26,2.19h0a.69.69,0,0,0,.07,1,.68.68,0,0,0,1-.07.67.67,0,0,0-.07-1,.68.68,0,0,0-.59-.15l-1.27-2.19.77-.5a6.8,6.8,0,0,0,.68-.52l1.08,1.18,0,.07a.67.67,0,0,0,.37.88.68.68,0,0,0,.89-.37.69.69,0,0,0-.37-.89.72.72,0,0,0-.56,0l-1.08-1.17c.26-.24.51-.49.76-.75a5.15,5.15,0,0,0,.58-.67l1.93,1.62,0,.09a.69.69,0,0,0,.51.82.68.68,0,0,0,.82-.51A.69.69,0,0,0,510.55,462.19Zm-9.36,1.86a3.63,3.63,0,0,1-1.08,0,9.4,9.4,0,0,0-1-.07c-.3,0-.58,0-.86,0a5.11,5.11,0,0,1-1.18,0,11.21,11.21,0,0,1-2-.55,11.45,11.45,0,0,1-1.88-.95.94.94,0,0,1-.16-.14,4.81,4.81,0,0,1-.48-.61,6.69,6.69,0,0,0-.74-.93,9.49,9.49,0,0,0-.79-.69,4,4,0,0,1-.8-.76,3.39,3.39,0,0,1-.37-1,8.69,8.69,0,0,0-.3-1,4.5,4.5,0,0,0-.78-1.17,3,3,0,0,1-.42-.58l0-.05a4,4,0,0,1,.05-1.06,8.4,8.4,0,0,0,.09-1,3.56,3.56,0,0,1,.24-1,7.8,7.8,0,0,0,.28-1,5,5,0,0,0,.05-1.27,2.63,2.63,0,0,1,0-.85,3.66,3.66,0,0,1,.61-.79,6.41,6.41,0,0,0,.72-.87,5.78,5.78,0,0,0,.54-1.13,2.69,2.69,0,0,1,.45-.88,8.08,8.08,0,0,1,1.36-1l.45-.29h0a2.24,2.24,0,0,1,.73-.11,4.17,4.17,0,0,0,1.37-.24,9.2,9.2,0,0,1,1.89-.54,9.75,9.75,0,0,1,1.95-.23,7.12,7.12,0,0,0,1.1-.12,2.83,2.83,0,0,1,.92-.07l.44.08a8.36,8.36,0,0,1,1.57.4c.3.12.6.21.9.3a4.75,4.75,0,0,1,1.12.44,11.33,11.33,0,0,1,1.74,1.4,2.4,2.4,0,0,1,.37.84,5,5,0,0,0,.54,1.22c.15.24.31.46.47.67a5,5,0,0,1,.68,1.07,4.26,4.26,0,0,1,.19,1.1c0,.3.06.61.12.93a4.6,4.6,0,0,0,.49,1.26,2.74,2.74,0,0,1,.3.7v0a11.7,11.7,0,0,1-.16,2.1,11.19,11.19,0,0,1-.67,2l0,.05,0,0a3.66,3.66,0,0,1-.53.45,4,4,0,0,0-1.05,1c-.1.14-.2.29-.29.44a7.38,7.38,0,0,1-.94,1.26l-.19.19a9.37,9.37,0,0,1-1.38,1.22l-.16.1a9.38,9.38,0,0,1-1.63.93l-.56.24A7.27,7.27,0,0,1,501.19,464.05Z" transform="translate(-336.95 -172.84)"/><path class="cls-4" d="M502.91,462.83a9.19,9.19,0,0,0,1.54-.89l.16-.1a9.18,9.18,0,0,0,1.29-1.14l.2-.2a6.33,6.33,0,0,0,.85-1.16l.3-.46a4.74,4.74,0,0,1,1.19-1.15c.09-.07.31-.24.39-.32a10.75,10.75,0,0,0,.64-1.85,11,11,0,0,0,.14-2,3.74,3.74,0,0,0-.24-.5,5.39,5.39,0,0,1-.54-1.41,7.12,7.12,0,0,1-.12-1,4.23,4.23,0,0,0-.16-1,5.91,5.91,0,0,0-.61-.95c-.15-.2-.32-.44-.49-.69a5,5,0,0,1-.59-1.35,4.58,4.58,0,0,0-.25-.63,10.33,10.33,0,0,0-1.65-1.32,4.56,4.56,0,0,0-1-.38,9.65,9.65,0,0,1-1-.32,7.6,7.6,0,0,0-1.46-.36l-.44-.09a3.24,3.24,0,0,0-.73.08,7,7,0,0,1-1.2.12,9.54,9.54,0,0,0-1.83.23,9.37,9.37,0,0,0-1.79.5,4.76,4.76,0,0,1-1.55.29c-.13,0-.42,0-.52.05l-.43.27a7.87,7.87,0,0,0-1.27.92,3.81,3.81,0,0,0-.32.69,6.21,6.21,0,0,1-.59,1.23,7.78,7.78,0,0,1-.78.94,3.54,3.54,0,0,0-.5.63,4.1,4.1,0,0,0,0,.61,5.19,5.19,0,0,1-.05,1.4,10.06,10.06,0,0,1-.3,1.07,3,3,0,0,0-.21.8c0,.39-.05.75-.09,1.09a3.52,3.52,0,0,0-.06.87,3.81,3.81,0,0,0,.32.41,4.64,4.64,0,0,1,.86,1.32,9.18,9.18,0,0,1,.33,1,3.53,3.53,0,0,0,.3.86,3.63,3.63,0,0,0,.68.63,8.54,8.54,0,0,1,.84.72,8.13,8.13,0,0,1,.8,1,4.1,4.1,0,0,0,.42.55l.08.07a10.54,10.54,0,0,0,1.78.89,10.24,10.24,0,0,0,1.89.52,4.4,4.4,0,0,0,1,0c.29,0,.58,0,.9,0a8.15,8.15,0,0,1,1,.08,3.63,3.63,0,0,0,.9,0,6.39,6.39,0,0,0,1.27-.46Zm5.51-7a.39.39,0,1,1-.55,0A.39.39,0,0,1,508.42,455.84Zm-.26-2.85a.39.39,0,1,1-.55,0A.38.38,0,0,1,508.16,453Zm-4.6,1.94a1.06,1.06,0,1,1,0-1.49A1,1,0,0,1,503.56,454.93Zm2.08-4.58a.7.7,0,1,1-1,1,.7.7,0,0,1,0-1A.71.71,0,0,1,505.64,450.35Zm.35-3.26a.39.39,0,1,1-.55,0A.39.39,0,0,1,506,447.09Zm-3.54,2a.7.7,0,0,1,0,1,.71.71,0,0,1-1-1A.7.7,0,0,1,502.45,449.1Zm1.1-2.87a.71.71,0,0,1,0,1,.7.7,0,0,1-1,0,.71.71,0,0,1,1-1Zm-3.41.89a.39.39,0,0,1,0,.55.38.38,0,0,1-.55,0,.38.38,0,0,1,0-.55A.38.38,0,0,1,500.14,447.12Zm-2.35-.12a.39.39,0,1,1-.55-.55.39.39,0,0,1,.55.55Zm-3.71-.14a.39.39,0,0,1-.55.55.39.39,0,1,1,.55-.55Zm-3.3,5.36a.39.39,0,1,1,.55,0A.39.39,0,0,1,490.78,452.22Zm-.75,1.94a.39.39,0,1,1,.55-.55.38.38,0,0,1,0,.55A.39.39,0,0,1,490,454.16Zm3.31-3.13a.72.72,0,0,1,0-1,.71.71,0,0,1,1,0,.71.71,0,0,1-1,1Zm6.36-5.45a.39.39,0,0,1,.55-.55.38.38,0,0,1,0,.55A.39.39,0,0,1,499.7,445.58Zm-8.43,10.58a.39.39,0,0,1,0-.55.38.38,0,0,1,.55,0,.39.39,0,0,1,0,.55A.38.38,0,0,1,491.27,456.16Zm5.7-3.87a1.5,1.5,0,1,1,2.13,0A1.5,1.5,0,0,1,497,452.29Zm-2.85,4.77a.39.39,0,1,1,.55,0A.39.39,0,0,1,494.12,457.06Zm-.93,2.75a.71.71,0,0,1,0-1,.71.71,0,0,1,1,1A.71.71,0,0,1,493.19,459.81Zm4,2.1a.39.39,0,1,1,.55-.55.39.39,0,0,1-.55.55Zm.08-2.59a2.19,2.19,0,1,1,3.1,0A2.19,2.19,0,0,1,497.31,459.32Zm7.83-4.36a.39.39,0,1,1,.55,0A.39.39,0,0,1,505.14,455Zm-6.22,7.25a.38.38,0,0,1,0-.55.38.38,0,0,1,.55,0,.39.39,0,1,1-.55.55Zm4-3.65a.39.39,0,0,1,0-.55.38.38,0,0,1,.55,0,.39.39,0,0,1,0,.55A.38.38,0,0,1,502.9,458.56Zm-.52,2.66a.39.39,0,1,1,.55,0A.39.39,0,0,1,502.38,461.22Zm2.57-3a.71.71,0,1,1,1,0A.7.7,0,0,1,505,458.25Z" transform="translate(-336.95 -172.84)"/><circle class="cls-4" cx="161.58" cy="284.98" r="0.98"/><circle class="cls-4" cx="161.15" cy="278.53" r="0.67"/><path class="cls-4" d="M515,187a.69.69,0,0,0-.31.44l-2.54.23c-.07-.33-.15-.66-.22-1a4.43,4.43,0,0,1,.06-1.3l2.11-.53a.87.87,0,1,0,.43-1.18.85.85,0,0,0-.52.79l-2,.48a1.46,1.46,0,0,0-.1-.66,13.67,13.67,0,0,0-.91-1.89l1.22-.54,0,.06a.88.88,0,0,0,1.24,0,.87.87,0,0,0,0-1.23.88.88,0,0,0-1.23-.05.86.86,0,0,0-.26.81l-1.28.57a10.14,10.14,0,0,0-1.05-1.24l1-1.11h0a.68.68,0,1,0-.35-.89.69.69,0,0,0,0,.61l-1,1.09-.08-.08a4.18,4.18,0,0,0-1.57-.71l1.71-2.59.11,0a.68.68,0,0,0,.73-.62.68.68,0,1,0-1.35-.12.63.63,0,0,0,.16.5l-1.74,2.65-.18-.1c-.51-.35-.95-.81-1.48-1.13l.63-1.18a.87.87,0,0,0,.51-1.67.87.87,0,0,0-1.1.55.85.85,0,0,0,.23.92l-.64,1.2a11.57,11.57,0,0,0-2.24-.48l-.18,0,.75-2.22h.07a.88.88,0,1,0-.87-.88.86.86,0,0,0,.41.74l-.74,2.21a5.07,5.07,0,0,0-1.69-.64l-.21-2.72h0a.68.68,0,0,0-.54-1.25.67.67,0,0,0-.35.89.62.62,0,0,0,.47.39l.21,2.69a14.87,14.87,0,0,0-1.65.19l-.32-1.51.11-.08a.68.68,0,0,0,0-1,.68.68,0,1,0-1,.91.63.63,0,0,0,.45.22l.32,1.5h-.05a6.77,6.77,0,0,0-1.68.74l-1-2.15a.92.92,0,0,0,.36-.74.94.94,0,1,0-.93.94l.2,0,1,2.16-.11,0a8,8,0,0,0-1.27.73l-.66-.76a.61.61,0,0,0,.05-.12.68.68,0,1,0-1.29-.44.67.67,0,0,0,.43.86.69.69,0,0,0,.51,0l.62.72-.33.23a10.48,10.48,0,0,0-1.39,1.64L491,179.19a.86.86,0,1,0-.28.3l1.91,1.75a13.79,13.79,0,0,0-1.11,1.47c-.1.15-.19.3-.29.44l-1.43-.9a.24.24,0,0,0,0-.08.87.87,0,1,0-1,.64.85.85,0,0,0,.81-.22l1.44.92a11.28,11.28,0,0,0-.55,1.1,2.69,2.69,0,0,1-.38.59l-2.52-1.14a1,1,0,0,0,0-.17.68.68,0,0,0-.78-.56.68.68,0,1,0,.63,1.11l2.4,1.08a2.46,2.46,0,0,0-.65,1.07c0,.16-.07.32-.1.48l-1.22-.29a.62.62,0,0,0-.08-.24.67.67,0,0,0-.92-.28.69.69,0,0,0-.27.93.67.67,0,0,0,.92.27.72.72,0,0,0,.27-.28l1.21.29a7.21,7.21,0,0,0-.2,1.53,2.38,2.38,0,0,0,.12.69l-2.23,0a.52.52,0,0,0-.11-.19.67.67,0,0,0-.95-.11.68.68,0,0,0-.1,1,.67.67,0,0,0,.95.1.64.64,0,0,0,.23-.35l2.37,0a6.45,6.45,0,0,1,.47,1.23,6.52,6.52,0,0,1,.09,1l-2.58.32a.87.87,0,0,0-1.58.75.87.87,0,0,0,1.16.42.88.88,0,0,0,.51-.77l2.52-.31a2.74,2.74,0,0,0,.19.91,3.29,3.29,0,0,0,.91,1.07l-1.37.64-.05-.06a.88.88,0,0,0-1.23,0,.87.87,0,1,0,1.45.45L491,195a2.17,2.17,0,0,1,.31.37c.29.42.48.9.73,1.34l-1.38,1-.13-.07a.7.7,0,0,0-.9.37.69.69,0,0,0,.37.89.68.68,0,0,0,.89-.37.64.64,0,0,0,0-.49l1.37-1a1.57,1.57,0,0,0,.21.24c.36.37.67.84,1,1.24l-1.86,2.32-.18,0a.68.68,0,0,0-.72.64.67.67,0,0,0,.63.72.69.69,0,0,0,.73-.63.66.66,0,0,0-.13-.44l1.83-2.28a1.92,1.92,0,0,0,.22.18,3.32,3.32,0,0,0,1.51.33l-.83,1.31h-.14a.68.68,0,1,0,.5.22l.91-1.46a1.89,1.89,0,0,1,.36.11c.47.2.9.5,1.37.72l-.56,1.74a.88.88,0,0,0-.88.67.87.87,0,1,0,1.27-.55l.55-1.7.33.1a10.52,10.52,0,0,0,2.3-.09v1.48a.87.87,0,1,0,.41,0v-1.47a6.8,6.8,0,0,0,2,.16l.45-.1.4,2.38h0a.68.68,0,1,0,.92.27.67.67,0,0,0-.5-.35l-.42-2.43a12.44,12.44,0,0,0,1.37-.51l.14-.06.78,1.43h0a.68.68,0,0,0,.05,1,.67.67,0,0,0,1,0,.69.69,0,0,0,0-1,.71.71,0,0,0-.6-.17l-.77-1.4a15.52,15.52,0,0,0,1.47-.89l.29-.23.73,1a.27.27,0,0,0-.06.1.68.68,0,1,0,1.24.56.69.69,0,0,0-.34-.9.63.63,0,0,0-.52,0l-.75-1c.34-.35.64-.75,1-1.09.13-.13.27-.25.41-.37l1.28,1.27a.87.87,0,1,0,.29-.28l-1.25-1.24a4.46,4.46,0,0,0,.92-.92,5.35,5.35,0,0,0,.43-.78l1.85,1.36s0,0,0,0a.88.88,0,0,0,.54,1.12.89.89,0,0,0,1.11-.54.87.87,0,0,0-.54-1.11.84.84,0,0,0-.85.16l-1.93-1.41.36-.9a6.1,6.1,0,0,0,.31-.91l2.44.64h0a.68.68,0,0,0,1.36-.1.69.69,0,0,0-.73-.63.7.7,0,0,0-.52.32l-2.45-.64.18-.9a6,6,0,0,0,.11-.85l1.61.06a.19.19,0,0,0,0,.07.68.68,0,0,0,1.25-.53.68.68,0,0,0-.89-.36.67.67,0,0,0-.38.41l-1.59-.06c0-.35,0-.71,0-1.07a5,5,0,0,0-.08-.88l2.52-.23a.36.36,0,0,0,0,.09.69.69,0,0,0,.94.21.68.68,0,0,0,.21-.94A.67.67,0,0,0,515,187Zm-5.28,8a4,4,0,0,1-.78.74,6.87,6.87,0,0,0-.74.64c-.21.21-.4.42-.58.63a4.37,4.37,0,0,1-.84.83,10.61,10.61,0,0,1-1.79,1,10.79,10.79,0,0,1-2,.66l-.22,0a6.1,6.1,0,0,1-.77-.09,7.1,7.1,0,0,0-1.18-.13,8.15,8.15,0,0,0-1,.08,4.27,4.27,0,0,1-1.11,0,3.65,3.65,0,0,1-1-.45,6.75,6.75,0,0,0-.89-.46,4.34,4.34,0,0,0-1.38-.28,2.7,2.7,0,0,1-.71-.11l-.05,0a3.69,3.69,0,0,1-.71-.78,9.57,9.57,0,0,0-.67-.78,3.43,3.43,0,0,1-.53-.86,8.27,8.27,0,0,0-.5-.9,4.89,4.89,0,0,0-.87-.93,2.49,2.49,0,0,1-.58-.62,3.71,3.71,0,0,1-.13-1,6.54,6.54,0,0,0-.11-1.13,5.65,5.65,0,0,0-.42-1.18,2.82,2.82,0,0,1-.31-.93,8,8,0,0,1,.26-1.67c0-.17.08-.35.11-.52v0a2.34,2.34,0,0,1,.44-.59,4.25,4.25,0,0,0,.8-1.15,9.37,9.37,0,0,1,.95-1.72,9.67,9.67,0,0,1,1.2-1.54,6.39,6.39,0,0,0,.69-.87,3,3,0,0,1,.6-.7l.37-.25a8.72,8.72,0,0,1,1.39-.84c.3-.13.58-.28.85-.42a4.45,4.45,0,0,1,1.1-.49,12.17,12.17,0,0,1,2.22-.25,2.58,2.58,0,0,1,.86.33,4.93,4.93,0,0,0,1.24.48c.28.06.55.1.81.14a5.61,5.61,0,0,1,1.23.27,4.4,4.4,0,0,1,.92.64c.24.19.47.39.74.57a4.41,4.41,0,0,0,1.24.54,2.12,2.12,0,0,1,.71.29l0,0a8.35,8.35,0,0,1,2.31,3.45l0,.06v0a3.24,3.24,0,0,1,0,.69,4.17,4.17,0,0,0,0,1.46c0,.18.07.35.11.52a6.77,6.77,0,0,1,.23,1.55v.28a8.19,8.19,0,0,1-.11,1.83l0,.18a10,10,0,0,1-.49,1.82c-.08.18-.15.37-.23.56A7.37,7.37,0,0,1,509.69,195Z" transform="translate(-336.95 -172.84)"/><path class="cls-4" d="M510,192.9a9.31,9.31,0,0,0,.46-1.72l0-.18a9.15,9.15,0,0,0,.1-1.72V189a6.56,6.56,0,0,0-.22-1.43l-.12-.53a5,5,0,0,1,0-1.65,2.83,2.83,0,0,0,.05-.5,10,10,0,0,0-.86-1.76,11,11,0,0,0-1.3-1.49,4.41,4.41,0,0,0-.52-.19,4.83,4.83,0,0,1-1.38-.61c-.29-.19-.54-.4-.78-.59a3.79,3.79,0,0,0-.79-.56,4.76,4.76,0,0,0-1.1-.24c-.26,0-.54-.08-.84-.14a5.59,5.59,0,0,1-1.38-.53,3.43,3.43,0,0,0-.62-.27,11.16,11.16,0,0,0-2.1.24,4.37,4.37,0,0,0-.95.43c-.29.15-.58.31-.9.44a8.17,8.17,0,0,0-1.29.79l-.37.25a2.79,2.79,0,0,0-.46.57,7.15,7.15,0,0,1-.75.94,9.37,9.37,0,0,0-1.14,1.46,9.58,9.58,0,0,0-.9,1.62,4.77,4.77,0,0,1-.89,1.3c-.08.1-.28.32-.33.41s-.07.32-.11.49a7.82,7.82,0,0,0-.24,1.55,3.16,3.16,0,0,0,.26.71,6.46,6.46,0,0,1,.46,1.29,9.5,9.5,0,0,1,.12,1.21,3.3,3.3,0,0,0,.09.81,3.47,3.47,0,0,0,.43.42,5.35,5.35,0,0,1,1,1,8.06,8.06,0,0,1,.54,1,2.83,2.83,0,0,0,.43.72,10,10,0,0,1,.7.83,4,4,0,0,0,.58.65,4.18,4.18,0,0,0,.51.06A5,5,0,0,1,497,198a8.35,8.35,0,0,1,.95.49,3.26,3.26,0,0,0,.82.39,3.46,3.46,0,0,0,.93,0,9.18,9.18,0,0,1,1.11-.08,6.85,6.85,0,0,1,1.27.14,5.3,5.3,0,0,0,.68.08h.11a9.72,9.72,0,0,0,1.89-.64,10,10,0,0,0,1.7-1,5,5,0,0,0,.73-.73c.18-.22.38-.44.6-.67a9,9,0,0,1,.79-.68,3.37,3.37,0,0,0,.66-.62,6,6,0,0,0,.57-1.21ZM509,184.07a.39.39,0,1,1,0,.77.39.39,0,1,1,0-.77Zm-2.21-1.83a.39.39,0,0,1,.39.39.38.38,0,0,1-.39.39.39.39,0,0,1-.39-.39A.4.4,0,0,1,506.75,182.24Zm-1.87,4.64a1.05,1.05,0,1,1-1.05-1.06A1,1,0,0,1,504.88,186.88Zm-1.78-4.71a.71.71,0,1,1-.71.71A.71.71,0,0,1,503.1,182.17ZM501,179.63a.39.39,0,1,1,0,.77.39.39,0,1,1,0-.77ZM500,183.55a.71.71,0,1,1,0,1.42.71.71,0,0,1,0-1.42Zm-1.26-2.8a.71.71,0,1,1-.71.71A.71.71,0,0,1,498.71,180.75Zm-1.78,3.05a.39.39,0,1,1,0,.77.39.39,0,1,1,0-.77Zm-1.73,1.59a.39.39,0,0,1-.39.38.39.39,0,1,1,0-.77A.39.39,0,0,1,495.2,185.39Zm-2.72,2.52a.4.4,0,0,1,.39.39.39.39,0,0,1-.39.39.38.38,0,0,1-.39-.39A.39.39,0,0,1,492.48,187.91ZM494,194a.38.38,0,0,1-.39-.39.39.39,0,0,1,.39-.39.4.4,0,0,1,.39.39A.39.39,0,0,1,494,194Zm.85,1.9a.39.39,0,0,1-.39-.39.38.38,0,0,1,.39-.39.39.39,0,0,1,.39.39A.4.4,0,0,1,494.81,195.93Zm.11-4.56a.7.7,0,0,1-.71-.7.71.71,0,0,1,.71-.71.7.7,0,0,1,.7.71A.7.7,0,0,1,494.92,191.37Zm.62-8.35a.38.38,0,0,1-.39-.39.39.39,0,0,1,.39-.39.4.4,0,0,1,.39.39A.39.39,0,0,1,495.54,183Zm1.56,13.45a.39.39,0,0,1-.39-.39.38.38,0,0,1,.39-.39.39.39,0,0,1,.39.39A.4.4,0,0,1,497.1,196.47Zm1.27-6.78a1.51,1.51,0,1,1,1.5-1.5A1.5,1.5,0,0,1,498.37,189.69Zm1.37,5.39a.39.39,0,0,1-.38-.39.39.39,0,1,1,.77,0A.39.39,0,0,1,499.74,195.08Zm1.3,2.59a.71.71,0,1,1,.71-.71A.71.71,0,0,1,501,197.67Zm4.34-1.39a.39.39,0,1,1,0-.77.39.39,0,1,1,0,.77Zm-1.78-1.88a2.19,2.19,0,1,1,2.19-2.19A2.19,2.19,0,0,1,503.6,194.4Zm2.42-8.63a.39.39,0,1,1,0-.77.39.39,0,1,1,0,.77Zm.76,9.53a.39.39,0,0,1-.39-.39.39.39,0,1,1,.77,0A.39.39,0,0,1,506.78,195.3Zm.22-5.4a.39.39,0,1,1,0-.77.39.39,0,1,1,0,.77Zm1.52,2.25a.4.4,0,0,1-.39-.39.39.39,0,0,1,.39-.39.38.38,0,0,1,.39.39A.39.39,0,0,1,508.52,192.15Zm-.29-3.93a.7.7,0,0,1-.71-.7.71.71,0,1,1,1.41,0A.7.7,0,0,1,508.23,188.22Z" transform="translate(-336.95 -172.84)"/><circle class="cls-4" cx="166.44" cy="19.65" r="0.98"/><circle class="cls-4" cx="161.56" cy="15.4" r="0.67"/><path class="cls-4" d="M666.66,465.76a.71.71,0,0,0-.31.45l-2.54.23c-.07-.33-.15-.66-.22-1a4.19,4.19,0,0,1,.07-1.31l2.11-.52a.87.87,0,1,0,.42-1.19.9.9,0,0,0-.52.79l-2,.49a1.5,1.5,0,0,0-.1-.67,14.73,14.73,0,0,0-.9-1.88l1.21-.55.05.06a.87.87,0,0,0,1.23,0,.87.87,0,1,0-1.19-1.28.9.9,0,0,0-.26.8l-1.27.57a11.21,11.21,0,0,0-1.06-1.24l1-1.11h0a.68.68,0,1,0-.35-.9.68.68,0,0,0,0,.62l-1,1.09-.09-.09a4.18,4.18,0,0,0-1.57-.7l1.71-2.6.11,0a.69.69,0,0,0,.74-.62.7.7,0,0,0-.62-.74.68.68,0,0,0-.74.62.67.67,0,0,0,.16.5l-1.74,2.65a1,1,0,0,1-.17-.1c-.51-.34-1-.8-1.49-1.12l.63-1.19a.87.87,0,1,0-.59-1.12.88.88,0,0,0,.23.93l-.63,1.19a11.88,11.88,0,0,0-2.24-.47l-.19-.05.75-2.22h.08a.87.87,0,1,0-.88-.87.9.9,0,0,0,.41.74l-.74,2.2a5,5,0,0,0-1.69-.63l-.21-2.73h0a.67.67,0,0,0,.36-.89.68.68,0,1,0-1.25.54.7.7,0,0,0,.47.39l.21,2.69a13,13,0,0,0-1.65.18l-.31-1.51.1-.08a.68.68,0,0,0-.91-1,.69.69,0,0,0,0,1,.74.74,0,0,0,.46.22l.31,1.49h0a6.84,6.84,0,0,0-1.69.74l-1-2.15a.94.94,0,0,0-.57-1.68.94.94,0,0,0,0,1.87.65.65,0,0,0,.2,0l1,2.16-.1,0a7,7,0,0,0-1.27.73l-.67-.77.06-.12a.68.68,0,0,0-1.29-.44.68.68,0,0,0,.93.84l.63.72L646,458c-.6.4-.91,1.11-1.4,1.64l-1.91-1.75a.88.88,0,0,0-1.5-.91.87.87,0,0,0,.27,1.21.86.86,0,0,0,.94,0l1.92,1.76a10.89,10.89,0,0,0-1.11,1.47c-.1.14-.2.29-.29.44l-1.44-.91a.19.19,0,0,0,0-.07.87.87,0,1,0-1.05.64.9.9,0,0,0,.82-.22l1.44.91a8.86,8.86,0,0,0-.56,1.11,2.37,2.37,0,0,1-.38.59l-2.52-1.15a.48.48,0,0,0,0-.17.69.69,0,0,0-.79-.55.67.67,0,0,0-.55.78.67.67,0,0,0,.78.56.69.69,0,0,0,.41-.24l2.39,1.09a2.66,2.66,0,0,0-.65,1.07c0,.15-.06.31-.1.48l-1.22-.3a.57.57,0,0,0-.08-.24.68.68,0,1,0-.27.92.66.66,0,0,0,.28-.27l1.2.29a7.2,7.2,0,0,0-.2,1.52,2.11,2.11,0,0,0,.13.7l-2.23,0a.78.78,0,0,0-.11-.2.68.68,0,0,0-1-.1.67.67,0,0,0-.1.95.68.68,0,0,0,1,.11.7.7,0,0,0,.22-.35l2.38,0a7,7,0,0,1,.46,1.22,6.52,6.52,0,0,1,.1,1l-2.59.33a.87.87,0,0,0-1.57.75.87.87,0,0,0,1.66-.35l2.52-.32a2.79,2.79,0,0,0,.19.92,3.26,3.26,0,0,0,.91,1.06l-1.37.65,0-.06a.87.87,0,0,0-1.23,0,.88.88,0,0,0,0,1.24.88.88,0,0,0,1.49-.78l1.51-.72a2.73,2.73,0,0,1,.32.37c.28.42.47.91.73,1.34l-1.39,1-.13-.07a.67.67,0,0,0-.89.36.68.68,0,1,0,1.25.53.69.69,0,0,0,0-.49l1.36-1a2.52,2.52,0,0,0,.21.25c.37.36.67.84,1,1.24l-1.87,2.32a.47.47,0,0,0-.17,0,.68.68,0,0,0-.1,1.36.68.68,0,0,0,.6-1.08l1.83-2.27.23.17a3.13,3.13,0,0,0,1.5.33l-.83,1.32h-.14a.67.67,0,0,0-.68.68.69.69,0,0,0,.69.68.69.69,0,0,0,.49-1.15l.91-1.45a2.26,2.26,0,0,1,.37.11c.46.19.9.49,1.36.72l-.56,1.74a.87.87,0,1,0,.82,1.08.89.89,0,0,0-.42-1l.54-1.69a1.89,1.89,0,0,0,.34.09,11.09,11.09,0,0,0,2.29-.08v1.47a.88.88,0,0,0-.68.94.87.87,0,1,0,1.73-.16.85.85,0,0,0-.64-.76v-1.48a7.23,7.23,0,0,0,2,.17l.44-.11.41,2.39h0a.68.68,0,1,0,.93.27.7.7,0,0,0-.51-.34l-.41-2.43c.47-.15.92-.33,1.36-.51l.14-.06L658,480h0a.68.68,0,1,0,1,.93.68.68,0,0,0-.63-1.13l-.78-1.41a13.68,13.68,0,0,0,1.47-.89,3.15,3.15,0,0,0,.29-.22l.73,1-.06.1a.68.68,0,0,0,1.24.56.68.68,0,0,0-.86-.92l-.75-1c.34-.35.64-.74,1-1.08a4.73,4.73,0,0,1,.4-.37l1.28,1.27a.86.86,0,0,0,.2,1.15.87.87,0,1,0,.1-1.44l-1.25-1.24a4.67,4.67,0,0,0,.92-.91,5.86,5.86,0,0,0,.42-.78l1.85,1.35s0,0,0,.05a.87.87,0,1,0,1.11-.54.89.89,0,0,0-.85.16l-1.92-1.41c.12-.3.23-.6.36-.9a6.92,6.92,0,0,0,.3-.91L666,472v0a.68.68,0,1,0,1.35-.1.67.67,0,0,0-.72-.63.68.68,0,0,0-.53.32l-2.45-.65c.07-.29.13-.59.19-.9a8,8,0,0,0,.11-.84l1.6.06a.64.64,0,0,1,0,.07.7.7,0,1,0,0-.48l-1.6-.06c0-.35,0-.71,0-1.08a5.14,5.14,0,0,0-.08-.88l2.52-.22,0,.08a.68.68,0,1,0,.22-.94Zm-5.28,7.95a3.73,3.73,0,0,1-.78.74c-.23.19-.49.4-.74.64s-.39.43-.57.64a5.93,5.93,0,0,1-.84.83,11.43,11.43,0,0,1-1.79,1,11.14,11.14,0,0,1-2,.67l-.21,0a4.9,4.9,0,0,1-.78-.1,6.87,6.87,0,0,0-1.18-.13,8.15,8.15,0,0,0-1,.08,3.8,3.8,0,0,1-1.1,0,3.69,3.69,0,0,1-1-.45,8.15,8.15,0,0,0-.89-.46,4.58,4.58,0,0,0-1.38-.28,2.39,2.39,0,0,1-.71-.11l0,0a4.28,4.28,0,0,1-.72-.78,9.68,9.68,0,0,0-.67-.79,3.36,3.36,0,0,1-.52-.86,7,7,0,0,0-.51-.9,4.88,4.88,0,0,0-.87-.93,2.4,2.4,0,0,1-.57-.62,3,3,0,0,1-.13-1,8,8,0,0,0-.12-1.14,5.56,5.56,0,0,0-.42-1.17,2.86,2.86,0,0,1-.31-.94,7.91,7.91,0,0,1,.26-1.66c0-.18.08-.35.11-.52v0a2.46,2.46,0,0,1,.44-.58,4.48,4.48,0,0,0,.8-1.16,9.94,9.94,0,0,1,1-1.71,10.93,10.93,0,0,1,1.2-1.55,5.75,5.75,0,0,0,.7-.86,2.81,2.81,0,0,1,.6-.71l.37-.25a7.54,7.54,0,0,1,1.38-.83c.3-.13.58-.28.85-.43a4.78,4.78,0,0,1,1.1-.48,11.44,11.44,0,0,1,2.22-.25,2.43,2.43,0,0,1,.86.32,5,5,0,0,0,1.25.49c.28.06.54.1.8.13a5.27,5.27,0,0,1,1.24.28,4.28,4.28,0,0,1,.92.64c.23.19.47.39.73.57a4.6,4.6,0,0,0,1.25.53,2.66,2.66,0,0,1,.71.29v0a11.31,11.31,0,0,1,1.39,1.59,11.63,11.63,0,0,1,.92,1.87l0,.05v0a3.21,3.21,0,0,1-.05.69,4.2,4.2,0,0,0,0,1.47c0,.17.08.35.11.52a6.8,6.8,0,0,1,.24,1.54V468a9.68,9.68,0,0,1-.11,1.84l0,.18a9.68,9.68,0,0,1-.49,1.82c-.08.18-.15.37-.22.55A6.76,6.76,0,0,1,661.38,473.71Z" transform="translate(-336.95 -172.84)"/><path class="cls-4" d="M661.73,471.62a8.5,8.5,0,0,0,.45-1.71l0-.18a9.15,9.15,0,0,0,.1-1.72v-.29a6.48,6.48,0,0,0-.22-1.42c0-.18-.08-.35-.11-.53a4.76,4.76,0,0,1,0-1.65,4.7,4.7,0,0,0,.06-.51,7.57,7.57,0,0,0-2.17-3.25,3.9,3.9,0,0,0-.52-.18,5.12,5.12,0,0,1-1.38-.61c-.29-.2-.54-.4-.78-.6a4.18,4.18,0,0,0-.78-.56,6,6,0,0,0-1.11-.24c-.25,0-.54-.08-.83-.14a5,5,0,0,1-1.38-.53,3.77,3.77,0,0,0-.62-.27,10.44,10.44,0,0,0-2.11.25,4.26,4.26,0,0,0-1,.42,8.39,8.39,0,0,1-.9.45,8,8,0,0,0-1.28.78l-.38.26a3.06,3.06,0,0,0-.45.56,7.29,7.29,0,0,1-.76.94,9.21,9.21,0,0,0-1.13,1.46,9.08,9.08,0,0,0-.91,1.63,4.69,4.69,0,0,1-.88,1.29,5.23,5.23,0,0,0-.34.41c0,.16-.07.33-.11.5a7.73,7.73,0,0,0-.24,1.54,3,3,0,0,0,.26.71,6,6,0,0,1,.46,1.3,6.69,6.69,0,0,1,.12,1.21,3.21,3.21,0,0,0,.09.8,3,3,0,0,0,.44.42,6,6,0,0,1,1,1,8,8,0,0,1,.53,1,3.88,3.88,0,0,0,.43.72,8.94,8.94,0,0,1,.71.83,4.44,4.44,0,0,0,.57.65l.52.06a4.87,4.87,0,0,1,1.55.32,8.16,8.16,0,0,1,.94.49,4.2,4.2,0,0,0,.83.39,3.86,3.86,0,0,0,.92,0,9.33,9.33,0,0,1,1.11-.08,7.77,7.77,0,0,1,1.27.13,4.09,4.09,0,0,0,.69.09h.1a10.46,10.46,0,0,0,1.89-.63,10.35,10.35,0,0,0,1.7-1,4.17,4.17,0,0,0,.73-.73c.19-.22.38-.44.61-.66a9.22,9.22,0,0,1,.78-.69,3.47,3.47,0,0,0,.67-.61,7.38,7.38,0,0,0,.57-1.22C661.57,472,661.65,471.81,661.73,471.62Zm-1.08-8.83a.39.39,0,0,1,.39.39.38.38,0,0,1-.39.39.39.39,0,0,1-.39-.39A.4.4,0,0,1,660.65,462.79Zm-2.2-1.82a.38.38,0,0,1,.38.39.39.39,0,1,1-.77,0A.38.38,0,0,1,658.45,461Zm-1.87,4.63a1.06,1.06,0,1,1-2.11,0,1.06,1.06,0,0,1,2.11,0Zm-1.79-4.71a.71.71,0,1,1-.7.71A.71.71,0,0,1,654.79,460.89Zm-2-2.54a.38.38,0,0,1,.38.39.39.39,0,1,1-.77,0A.38.38,0,0,1,652.74,458.35Zm-1.07,3.93a.7.7,0,0,1,.7.7.7.7,0,0,1-.7.71A.71.71,0,0,1,651,463,.7.7,0,0,1,651.67,462.28Zm-1.27-2.8a.71.71,0,0,1,.71.71.71.71,0,0,1-1.42,0A.71.71,0,0,1,650.4,459.48Zm-1.77,3a.39.39,0,1,1-.39.39A.39.39,0,0,1,648.63,462.52Zm-1.74,1.59a.38.38,0,0,1-.39.39.39.39,0,0,1-.39-.39.4.4,0,0,1,.39-.39A.39.39,0,0,1,646.89,464.11Zm-2.72,2.53a.39.39,0,1,1,0,.77.39.39,0,1,1,0-.77Zm1.48,6.12a.4.4,0,0,1-.39-.39.39.39,0,0,1,.39-.39.38.38,0,0,1,.39.39A.39.39,0,0,1,645.65,472.76Zm.85,1.89a.39.39,0,1,1,0-.77.39.39,0,1,1,0,.77Zm.11-4.55a.71.71,0,0,1-.71-.71.71.71,0,0,1,1.42,0A.71.71,0,0,1,646.61,470.1Zm.62-8.35a.4.4,0,0,1-.39-.39.39.39,0,1,1,.78,0A.4.4,0,0,1,647.23,461.75Zm1.56,13.44a.39.39,0,0,1-.39-.39.4.4,0,0,1,.39-.39.39.39,0,0,1,.39.39A.38.38,0,0,1,648.79,475.19Zm1.27-6.77a1.51,1.51,0,1,1,1.51-1.51A1.51,1.51,0,0,1,650.06,468.42Zm1.38,5.38a.38.38,0,0,1-.39-.39.39.39,0,0,1,.39-.39.4.4,0,0,1,.39.39A.39.39,0,0,1,651.44,473.8Zm1.29,2.59a.7.7,0,0,1-.71-.7.71.71,0,0,1,1.42,0A.7.7,0,0,1,652.73,476.39Zm4.34-1.38a.38.38,0,0,1-.38-.39.39.39,0,1,1,.77,0A.38.38,0,0,1,657.07,475Zm-1.78-1.88a2.19,2.19,0,1,1,2.19-2.19A2.19,2.19,0,0,1,655.29,473.13Zm2.43-8.63a.38.38,0,0,1-.39-.39.39.39,0,1,1,.77,0A.38.38,0,0,1,657.72,464.5Zm.75,9.52a.38.38,0,0,1-.39-.39.39.39,0,0,1,.39-.39.4.4,0,0,1,.39.39A.39.39,0,0,1,658.47,474Zm.22-5.39a.39.39,0,1,1,.39-.39A.39.39,0,0,1,658.69,468.63Zm1.52,2.24a.39.39,0,0,1-.39-.39.4.4,0,0,1,.39-.39.39.39,0,0,1,.39.39A.38.38,0,0,1,660.21,470.87Zm-.29-3.92a.71.71,0,0,1-.71-.71.71.71,0,0,1,1.42,0A.71.71,0,0,1,659.92,467Z" transform="translate(-336.95 -172.84)"/><circle class="cls-4" cx="318.14" cy="298.37" r="0.98"/><circle class="cls-4" cx="313.25" cy="294.12" r="0.67"/><path class="cls-4" d="M366.62,242.46a.65.65,0,0,0-.3.44l-2.55.23c-.07-.33-.15-.66-.22-1a4.2,4.2,0,0,1,.07-1.31l2.11-.52a.87.87,0,1,0,.42-1.18.85.85,0,0,0-.51.78l-2,.49a1.79,1.79,0,0,0-.1-.66,14.29,14.29,0,0,0-.91-1.89l1.21-.54s0,0,.05,0a.87.87,0,1,0,1.28-1.18.87.87,0,0,0-1.23,0,.88.88,0,0,0-.27.8l-1.27.57a12.3,12.3,0,0,0-1.05-1.24l1-1.1h0a.68.68,0,0,0,.9-.35.67.67,0,0,0-.35-.89.68.68,0,0,0-.86,1l-1,1.09-.08-.08a4.18,4.18,0,0,0-1.57-.71l1.7-2.6.11,0A.67.67,0,0,0,362,232a.68.68,0,0,0-1.36-.11.73.73,0,0,0,.16.5L359,235l-.17-.11c-.51-.34-1-.8-1.49-1.12l.64-1.18a.87.87,0,0,0,.51-1.67.87.87,0,0,0-.87,1.47l-.64,1.19a12.54,12.54,0,0,0-2.24-.47l-.19-.05.76-2.22h.07a.87.87,0,1,0-.87-.87.86.86,0,0,0,.41.74l-.75,2.21a5,5,0,0,0-1.68-.64l-.22-2.72h0a.68.68,0,0,0,.35-.89.68.68,0,1,0-1.25.54.68.68,0,0,0,.47.39l.21,2.69a11.42,11.42,0,0,0-1.65.19l-.31-1.51.11-.08a.7.7,0,0,0,0-1,.68.68,0,0,0-1,.92.71.71,0,0,0,.46.22l.31,1.49h0a7,7,0,0,0-1.69.74l-1-2.15a.91.91,0,0,0,.37-.74.94.94,0,1,0-.94.94l.2,0,1,2.15-.11.05a7,7,0,0,0-1.27.73l-.67-.77a.34.34,0,0,0,.06-.12.68.68,0,1,0-.86.43.66.66,0,0,0,.5,0l.63.72-.33.23c-.6.4-.91,1.12-1.4,1.64l-1.91-1.75a.87.87,0,1,0-.28.3l1.91,1.75a12.57,12.57,0,0,0-1.11,1.47c-.1.15-.2.29-.29.44l-1.43-.91a.25.25,0,0,1,0-.07.87.87,0,1,0-.24.42l1.44.91a10.46,10.46,0,0,0-.56,1.11,2.12,2.12,0,0,1-.38.59l-2.52-1.14a.49.49,0,0,0,0-.17.69.69,0,0,0-.79-.56.68.68,0,0,0-.55.79.67.67,0,0,0,.78.55.67.67,0,0,0,.41-.23l2.4,1.08a2.46,2.46,0,0,0-.65,1.07c0,.16-.07.32-.11.48l-1.22-.29a.72.72,0,0,0-.07-.25.69.69,0,0,0-.93-.27.68.68,0,0,0,.65,1.2.69.69,0,0,0,.28-.28l1.2.29a7.92,7.92,0,0,0-.2,1.53,2.1,2.1,0,0,0,.13.69l-2.23,0a.78.78,0,0,0-.11-.2.68.68,0,0,0-1-.1.69.69,0,0,0-.1,1,.68.68,0,0,0,1,.1.74.74,0,0,0,.23-.35l2.37,0a7.13,7.13,0,0,1,.46,1.23,6.51,6.51,0,0,1,.1,1l-2.59.33a.87.87,0,1,0,.09.4l2.52-.32a3,3,0,0,0,.19.92,3.26,3.26,0,0,0,.91,1.06l-1.37.65-.05-.06a.87.87,0,1,0-1.25,1.21.87.87,0,0,0,1.48-.78l1.52-.71a2.25,2.25,0,0,1,.31.37c.28.41.47.9.73,1.34l-1.39,1-.13-.07a.68.68,0,1,0,.37.89.75.75,0,0,0,0-.49l1.36-1,.21.24c.37.37.68.84,1,1.24l-1.87,2.32-.17,0a.68.68,0,1,0-.09,1.36.67.67,0,0,0,.72-.63.66.66,0,0,0-.13-.44l1.83-2.28.23.18a3.28,3.28,0,0,0,1.5.33l-.83,1.31h-.14a.68.68,0,1,0,.69.68.73.73,0,0,0-.19-.47l.92-1.45a2.15,2.15,0,0,1,.36.11c.47.2.9.5,1.36.72l-.55,1.74a.87.87,0,0,0-.88.67.87.87,0,0,0,1.69.41.87.87,0,0,0-.42-1l.54-1.69.34.1a11.09,11.09,0,0,0,2.29-.09v1.48a.87.87,0,1,0,1.05.77.88.88,0,0,0-.64-.76v-1.47a7.24,7.24,0,0,0,2,.16l.44-.1.41,2.38h0a.68.68,0,0,0-.28.92.69.69,0,0,0,.93.27.68.68,0,0,0,.27-.92.68.68,0,0,0-.51-.35l-.41-2.43a12.44,12.44,0,0,0,1.37-.51l.13-.06.79,1.43h0a.68.68,0,0,0,0,1,.69.69,0,0,0,1,0,.67.67,0,0,0,0-1,.66.66,0,0,0-.59-.17l-.78-1.41a14.28,14.28,0,0,0,1.47-.88l.29-.23.73,1-.06.1a.68.68,0,0,0,.35.9.69.69,0,0,0,.9-.34.68.68,0,0,0-.35-.9.67.67,0,0,0-.52,0l-.75-1c.34-.35.64-.75,1-1.09a4.89,4.89,0,0,1,.41-.37l1.27,1.27a.9.9,0,0,0,.2,1.16.88.88,0,0,0,1.08-1.38.86.86,0,0,0-1-.06l-1.25-1.25a4.18,4.18,0,0,0,.92-.91,5.3,5.3,0,0,0,.42-.78l1.85,1.35a.43.43,0,0,1,0,0,.87.87,0,1,0,1.11-.53.86.86,0,0,0-.85.15l-1.93-1.41c.12-.3.23-.6.36-.9a6.92,6.92,0,0,0,.3-.91l2.45.65h0a.68.68,0,0,0,.73.63.68.68,0,0,0-.1-1.36.68.68,0,0,0-.53.32l-2.45-.64c.07-.3.13-.6.19-.9a6.18,6.18,0,0,0,.11-.85l1.6.06s0,0,0,.07a.7.7,0,1,0,0-.48l-1.59-.06c0-.35,0-.71,0-1.07a6.15,6.15,0,0,0-.07-.88l2.51-.23a.56.56,0,0,0,.05.08.67.67,0,0,0,.93.22.68.68,0,1,0-.72-1.15Zm-5.28,7.95a3.48,3.48,0,0,1-.78.73c-.23.19-.49.4-.74.65s-.39.42-.57.63a4.67,4.67,0,0,1-.84.83,11.81,11.81,0,0,1-1.79,1,11.16,11.16,0,0,1-2,.66l-.21,0a5,5,0,0,1-.78-.1,6.9,6.9,0,0,0-1.17-.12c-.38,0-.73,0-1,.07a2.35,2.35,0,0,1-2.09-.42,9,9,0,0,0-.88-.46,4.37,4.37,0,0,0-1.39-.27,3.22,3.22,0,0,1-.7-.11l-.05,0a3.7,3.7,0,0,1-.72-.78,6.78,6.78,0,0,0-.67-.78,3.75,3.75,0,0,1-.52-.86,7.07,7.07,0,0,0-.51-.91,4.53,4.53,0,0,0-.87-.92,2.4,2.4,0,0,1-.57-.62,3.34,3.34,0,0,1-.13-1,7.7,7.7,0,0,0-.11-1.13,6,6,0,0,0-.42-1.18,2.6,2.6,0,0,1-.31-.93,8.55,8.55,0,0,1,.25-1.67l.12-.52v0a2.34,2.34,0,0,1,.44-.59,4.65,4.65,0,0,0,.79-1.15,12.17,12.17,0,0,1,2.16-3.26,7.07,7.07,0,0,0,.69-.87,2.57,2.57,0,0,1,.6-.7l.37-.26a7.54,7.54,0,0,1,1.38-.83c.3-.13.58-.28.85-.42a4.5,4.5,0,0,1,1.11-.49,12.07,12.07,0,0,1,2.22-.25,2.34,2.34,0,0,1,.85.33,5,5,0,0,0,1.25.48c.28.06.54.1.8.14a5.18,5.18,0,0,1,1.24.27,4.4,4.4,0,0,1,.92.64,9,9,0,0,0,.74.57,4.92,4.92,0,0,0,1.24.54,2.35,2.35,0,0,1,.71.29h0a12.6,12.6,0,0,1,1.38,1.59,11.63,11.63,0,0,1,.92,1.87l0,0v0a3.13,3.13,0,0,1-.05.68,4.47,4.47,0,0,0,0,1.47l.12.52a7.36,7.36,0,0,1,.23,1.55v.28a9.58,9.58,0,0,1-.11,1.83l0,.18a9.28,9.28,0,0,1-.49,1.82c-.07.18-.15.37-.22.56A7.37,7.37,0,0,1,361.34,250.41Z" transform="translate(-336.95 -172.84)"/><path class="cls-4" d="M361.69,248.32a9.53,9.53,0,0,0,.46-1.72l0-.18a7.73,7.73,0,0,0,.1-1.72v-.28a6.56,6.56,0,0,0-.22-1.43c0-.18-.08-.35-.11-.53a4.51,4.51,0,0,1,0-1.65c0-.11,0-.4,0-.51a11,11,0,0,0-.86-1.75,11.09,11.09,0,0,0-1.31-1.5,5.12,5.12,0,0,0-.52-.18,5.26,5.26,0,0,1-1.38-.61c-.29-.19-.54-.4-.78-.59a3.76,3.76,0,0,0-.78-.56,4.74,4.74,0,0,0-1.11-.24c-.25,0-.54-.08-.83-.14a5.68,5.68,0,0,1-1.38-.53,3.77,3.77,0,0,0-.62-.27,11.06,11.06,0,0,0-2.1.24,3.81,3.81,0,0,0-1,.43,9.22,9.22,0,0,1-.89.44,8.36,8.36,0,0,0-1.29.78l-.37.26a3,3,0,0,0-.46.56,6.15,6.15,0,0,1-.76.94,8.88,8.88,0,0,0-1.13,1.47,9,9,0,0,0-.91,1.62,4.92,4.92,0,0,1-.88,1.3l-.34.4c0,.17-.07.33-.1.5a7.77,7.77,0,0,0-.25,1.55,3.75,3.75,0,0,0,.26.71,5.89,5.89,0,0,1,.46,1.29,6.78,6.78,0,0,1,.12,1.21,3.68,3.68,0,0,0,.09.8,4.56,4.56,0,0,0,.44.43,5.68,5.68,0,0,1,1,1,9.75,9.75,0,0,1,.54,1,3.18,3.18,0,0,0,.42.72,8.51,8.51,0,0,1,.71.83,4,4,0,0,0,.57.65,4.12,4.12,0,0,0,.52.06,5.1,5.1,0,0,1,1.55.32,9.29,9.29,0,0,1,1,.49,3.11,3.11,0,0,0,.82.39,3.94,3.94,0,0,0,.93,0,9,9,0,0,1,1.11-.08,6.74,6.74,0,0,1,1.26.14,5.43,5.43,0,0,0,.69.08h.1a9.85,9.85,0,0,0,3.59-1.6,4.66,4.66,0,0,0,.73-.74c.19-.21.38-.44.61-.66a7.56,7.56,0,0,1,.78-.68,3.81,3.81,0,0,0,.67-.62,6.53,6.53,0,0,0,.57-1.21C361.53,248.69,361.61,248.5,361.69,248.32Zm-1.07-8.84a.39.39,0,0,1,.38.39.39.39,0,1,1-.77,0A.39.39,0,0,1,360.62,239.48Zm-2.21-1.82a.39.39,0,1,1,0,.78.39.39,0,0,1,0-.78Zm-1.87,4.63a1.06,1.06,0,1,1-1.05-1A1.05,1.05,0,0,1,356.54,242.29Zm-1.78-4.7a.7.7,0,0,1,.7.7.7.7,0,0,1-.7.71.71.71,0,0,1-.71-.71A.7.7,0,0,1,354.76,237.59ZM352.7,235a.4.4,0,0,1,.39.39.39.39,0,0,1-.39.39.38.38,0,0,1-.39-.39A.39.39,0,0,1,352.7,235ZM351.63,239a.71.71,0,0,1,.71.71.71.71,0,0,1-1.42,0A.71.71,0,0,1,351.63,239Zm-1.27-2.8a.71.71,0,0,1,0,1.42.71.71,0,0,1,0-1.42Zm-1.77,3a.4.4,0,0,1,.39.39.39.39,0,0,1-.39.39.38.38,0,0,1-.39-.39A.39.39,0,0,1,348.59,239.21Zm-1.74,1.59a.38.38,0,0,1-.39.39.39.39,0,0,1-.39-.39.4.4,0,0,1,.39-.39A.39.39,0,0,1,346.85,240.8Zm-2.72,2.53a.38.38,0,0,1,.39.39.39.39,0,0,1-.39.39.4.4,0,0,1-.39-.39A.39.39,0,0,1,344.13,243.33Zm1.48,6.12a.39.39,0,0,1-.39-.39.4.4,0,0,1,.39-.39.39.39,0,0,1,.39.39A.38.38,0,0,1,345.61,249.45Zm.85,1.9a.4.4,0,0,1-.39-.39.39.39,0,0,1,.39-.39.38.38,0,0,1,.39.39A.39.39,0,0,1,346.46,251.35Zm.11-4.56a.7.7,0,0,1-.7-.7.7.7,0,0,1,.7-.71.71.71,0,0,1,.71.71A.7.7,0,0,1,346.57,246.79Zm.62-8.35a.39.39,0,1,1,0-.78.39.39,0,1,1,0,.78Zm1.56,13.44a.39.39,0,1,1,.39-.39A.38.38,0,0,1,348.75,251.88Zm1.28-6.77a1.51,1.51,0,1,1,1.5-1.51A1.51,1.51,0,0,1,350,245.11Zm1.37,5.38a.39.39,0,1,1,.39-.39A.39.39,0,0,1,351.4,250.49Zm1.29,2.6a.71.71,0,0,1,0-1.42.71.71,0,0,1,0,1.42ZM357,251.7a.38.38,0,0,1-.39-.39.39.39,0,0,1,.39-.39.4.4,0,0,1,.39.39A.39.39,0,0,1,357,251.7Zm-1.78-1.88a2.19,2.19,0,1,1,2.18-2.19A2.19,2.19,0,0,1,355.26,249.82Zm2.42-8.63a.38.38,0,0,1-.39-.39.39.39,0,0,1,.39-.39.4.4,0,0,1,.39.39A.39.39,0,0,1,357.68,241.19Zm.75,9.52a.39.39,0,1,1,0-.77.39.39,0,1,1,0,.77Zm.23-5.39a.38.38,0,0,1-.39-.39.39.39,0,0,1,.39-.39.4.4,0,0,1,.39.39A.39.39,0,0,1,358.66,245.32Zm1.52,2.24a.39.39,0,1,1,0-.77.39.39,0,0,1,0,.77Zm-.3-3.92a.7.7,0,0,1-.71-.7.71.71,0,1,1,1.42,0A.7.7,0,0,1,359.88,243.64Z" transform="translate(-336.95 -172.84)"/><circle class="cls-4" cx="18.1" cy="75.06" r="0.98"/><circle class="cls-4" cx="13.22" cy="70.81" r="0.67"/><path class="cls-5" d="M437.74,342.36a.64.64,0,0,0-.3.45l-2.55.23c-.07-.34-.15-.67-.22-1a4.18,4.18,0,0,1,.07-1.31l2.11-.52a.87.87,0,1,0,.42-1.19.89.89,0,0,0-.52.79l-2,.49a1.85,1.85,0,0,0-.1-.67,16.28,16.28,0,0,0-.91-1.88l1.21-.55,0,.06a.87.87,0,1,0,1.28-1.19.88.88,0,0,0-1.5.76l-1.27.57a12.3,12.3,0,0,0-1.05-1.24l1-1.11h0a.69.69,0,0,0,.9-.35.68.68,0,0,0-.35-.9.69.69,0,0,0-.9.35.66.66,0,0,0,0,.61l-1,1.1-.09-.09a4.05,4.05,0,0,0-1.56-.7l1.7-2.6.11,0a.7.7,0,0,0,.74-.62.68.68,0,0,0-1.36-.12.67.67,0,0,0,.16.5l-1.74,2.65a1,1,0,0,1-.17-.1c-.51-.35-1-.81-1.49-1.12l.63-1.19a.87.87,0,0,0,1.06-.56.87.87,0,1,0-1.41.36l-.64,1.2a11.72,11.72,0,0,0-2.24-.47l-.19,0,.75-2.23h.08a.88.88,0,1,0-.87-.87.84.84,0,0,0,.41.73l-.75,2.21a5.07,5.07,0,0,0-1.69-.64l-.21-2.72h0a.68.68,0,1,0-.55-1.25.68.68,0,0,0-.35.89.69.69,0,0,0,.47.4l.21,2.69a13,13,0,0,0-1.65.18l-.31-1.51.1-.08a.68.68,0,1,0-1-.05.67.67,0,0,0,.46.22l.31,1.5h0a6.64,6.64,0,0,0-1.69.74l-1-2.15a1,1,0,0,0,.37-.74.94.94,0,1,0-.94.93l.2,0,1,2.16-.1.05a7.56,7.56,0,0,0-1.27.72l-.67-.76.06-.12a.68.68,0,0,0-1.29-.44.69.69,0,0,0,.43.87.71.71,0,0,0,.5,0l.63.72-.33.23c-.6.4-.91,1.11-1.4,1.64l-1.91-1.76a.88.88,0,0,0-.29-1.17.89.89,0,0,0-1.21.27.87.87,0,0,0,1.22,1.2l1.91,1.75a12.57,12.57,0,0,0-1.11,1.47c-.1.15-.2.3-.29.45l-1.44-.91,0-.07a.88.88,0,1,0-1.06.64.9.9,0,0,0,.82-.22l1.44.91a8.86,8.86,0,0,0-.56,1.11,2.07,2.07,0,0,1-.38.58l-2.52-1.14a.48.48,0,0,0,0-.17.68.68,0,0,0-.79-.55.67.67,0,0,0-.55.78.68.68,0,0,0,.78.56.69.69,0,0,0,.41-.24l2.39,1.09a2.6,2.6,0,0,0-.65,1.07c0,.15-.06.31-.1.47l-1.22-.29a.73.73,0,0,0-.07-.24.69.69,0,0,0-.93-.27.68.68,0,0,0,.65,1.19.63.63,0,0,0,.28-.28l1.2.29a8.13,8.13,0,0,0-.2,1.53,2,2,0,0,0,.13.69l-2.23,0a.78.78,0,0,0-.11-.2.68.68,0,0,0-1-.1.67.67,0,0,0-.1.95.68.68,0,0,0,1,.11.7.7,0,0,0,.22-.35l2.38,0a7,7,0,0,1,.46,1.22,6.52,6.52,0,0,1,.1,1l-2.59.32a.88.88,0,1,0,.09.41l2.52-.32a2.85,2.85,0,0,0,.19.92,3.26,3.26,0,0,0,.91,1.06l-1.37.64,0-.05a.87.87,0,1,0-1.25,1.21.87.87,0,0,0,1.48-.79l1.51-.71a2.73,2.73,0,0,1,.32.37c.28.42.47.9.73,1.34l-1.39,1a.57.57,0,0,0-.13-.08.68.68,0,0,0-.53,1.26.7.7,0,0,0,.9-.37.72.72,0,0,0,0-.48l1.36-1a1.64,1.64,0,0,0,.21.24c.37.37.68.85,1,1.25l-1.87,2.31a.86.86,0,0,0-.17,0,.69.69,0,1,0,.5.28l1.83-2.28a1.3,1.3,0,0,0,.23.18,3.28,3.28,0,0,0,1.5.33l-.83,1.32-.14,0a.69.69,0,0,0-.68.69.69.69,0,0,0,1.37,0,.74.74,0,0,0-.19-.46l.92-1.45a2.42,2.42,0,0,1,.36.1c.47.2.9.5,1.36.73l-.56,1.74a.87.87,0,0,0-.88.66.89.89,0,0,0,.65,1.06.87.87,0,0,0,.63-1.61l.54-1.69a3.37,3.37,0,0,0,.34.09,10.43,10.43,0,0,0,2.29-.09v1.48a.87.87,0,1,0,1.05.78.89.89,0,0,0-.64-.77v-1.47a7.26,7.26,0,0,0,2,.17l.44-.11.41,2.39h0a.68.68,0,1,0,.93.27.65.65,0,0,0-.51-.34l-.41-2.43c.47-.15.93-.33,1.36-.51l.14-.06.79,1.42h0a.68.68,0,1,0,1,0,.69.69,0,0,0-.59-.16l-.78-1.41a13.68,13.68,0,0,0,1.47-.89l.29-.23.73,1-.06.1a.68.68,0,0,0,.35.9.68.68,0,0,0,.55-1.25.72.72,0,0,0-.52,0l-.75-1c.34-.35.64-.74,1-1.09a2.86,2.86,0,0,1,.41-.36l1.27,1.27a.87.87,0,1,0,.3-.29l-1.25-1.24a4.46,4.46,0,0,0,.92-.92,5.19,5.19,0,0,0,.42-.77l1.85,1.35s0,0,0,.05a.89.89,0,0,0,.54,1.11.87.87,0,1,0-.27-1.49L434,349.76c.12-.3.23-.6.36-.9a7.45,7.45,0,0,0,.3-.91l2.45.64v0a.68.68,0,0,0,1.36-.1.68.68,0,0,0-.73-.63.67.67,0,0,0-.53.31l-2.45-.64c.07-.3.13-.6.19-.9a6,6,0,0,0,.11-.85l1.6.06s0,.05,0,.08a.69.69,0,1,0,.36-.9.71.71,0,0,0-.37.41L435,345.4c0-.36,0-.71,0-1.08a6.4,6.4,0,0,0-.07-.88l2.51-.23,0,.09a.68.68,0,0,0,1.15-.72A.68.68,0,0,0,437.74,342.36Zm-5.28,7.95a3.73,3.73,0,0,1-.78.74c-.23.19-.49.4-.74.64s-.39.43-.57.63a4.67,4.67,0,0,1-.84.83,10.33,10.33,0,0,1-1.79,1,11.14,11.14,0,0,1-2,.67h-.21a4.92,4.92,0,0,1-.78-.09,6.87,6.87,0,0,0-1.18-.13,8.29,8.29,0,0,0-1,.08,3.8,3.8,0,0,1-1.1,0,3.84,3.84,0,0,1-1-.45,8.15,8.15,0,0,0-.89-.46,4.58,4.58,0,0,0-1.38-.28,2.68,2.68,0,0,1-.7-.11l-.05,0a4.06,4.06,0,0,1-.72-.79,6.78,6.78,0,0,0-.67-.78,3.54,3.54,0,0,1-.52-.86,7,7,0,0,0-.51-.9,4.88,4.88,0,0,0-.87-.93,2.4,2.4,0,0,1-.57-.62,3,3,0,0,1-.13-1,6.8,6.8,0,0,0-.12-1.13,5.13,5.13,0,0,0-.42-1.18,2.68,2.68,0,0,1-.3-.93,8.46,8.46,0,0,1,.25-1.66c0-.18.08-.35.11-.52v0a2.65,2.65,0,0,1,.44-.59,4.25,4.25,0,0,0,.8-1.15,10,10,0,0,1,.95-1.72,10.7,10.7,0,0,1,1.21-1.54,5.83,5.83,0,0,0,.69-.87,2.92,2.92,0,0,1,.6-.7l.37-.25a8.23,8.23,0,0,1,1.38-.84,7.46,7.46,0,0,0,.85-.42,4.83,4.83,0,0,1,1.11-.48,11.18,11.18,0,0,1,2.21-.26,2.51,2.51,0,0,1,.86.33,5.43,5.43,0,0,0,1.25.49l.8.13a5.16,5.16,0,0,1,1.24.28,3.75,3.75,0,0,1,.92.64,8.94,8.94,0,0,0,.74.56,4.18,4.18,0,0,0,1.24.54,2.66,2.66,0,0,1,.71.29l0,0a8.15,8.15,0,0,1,2.3,3.46l0,.05v0a3.24,3.24,0,0,1-.05.69,4.46,4.46,0,0,0,0,1.47l.12.51a7.36,7.36,0,0,1,.23,1.55v.28a9.58,9.58,0,0,1-.11,1.83l0,.18a9.28,9.28,0,0,1-.49,1.82c-.08.19-.15.37-.22.56A7.05,7.05,0,0,1,432.46,350.31Z" transform="translate(-336.95 -172.84)"/><path class="cls-5" d="M432.81,348.22a9.31,9.31,0,0,0,.46-1.72l0-.18a8.34,8.34,0,0,0,.1-1.72v-.28a6.39,6.39,0,0,0-.22-1.42c0-.18-.08-.36-.11-.53a4.56,4.56,0,0,1,0-1.66c0-.11.05-.39.05-.5a11.55,11.55,0,0,0-.86-1.76A11,11,0,0,0,431,337a3.4,3.4,0,0,0-.52-.19,4.78,4.78,0,0,1-1.38-.6c-.29-.2-.54-.4-.78-.6a4.18,4.18,0,0,0-.78-.56,4.74,4.74,0,0,0-1.11-.24c-.25,0-.54-.08-.83-.14a5.3,5.3,0,0,1-1.38-.53,3.77,3.77,0,0,0-.62-.27,11.27,11.27,0,0,0-2.11.24,4.37,4.37,0,0,0-.95.43c-.28.15-.57.31-.89.45a7.64,7.64,0,0,0-1.29.78L418,336a3.21,3.21,0,0,0-.45.57,7.29,7.29,0,0,1-.76.94,9.21,9.21,0,0,0-1.13,1.46,9.37,9.37,0,0,0-.91,1.62,4.61,4.61,0,0,1-.88,1.3c-.09.1-.28.32-.34.41s-.07.33-.1.5a7.68,7.68,0,0,0-.25,1.54,3.75,3.75,0,0,0,.26.71,6.09,6.09,0,0,1,.46,1.29,6.88,6.88,0,0,1,.12,1.22,3.76,3.76,0,0,0,.09.8,4.6,4.6,0,0,0,.44.42,6,6,0,0,1,1,1,9.84,9.84,0,0,1,.54,1,3.31,3.31,0,0,0,.42.71,7.55,7.55,0,0,1,.71.84,5,5,0,0,0,.57.65l.52.06a4.78,4.78,0,0,1,1.55.31,8.16,8.16,0,0,1,.94.49,3.3,3.3,0,0,0,.83.39,3.83,3.83,0,0,0,.93,0,8.9,8.9,0,0,1,1.1-.09,7.7,7.7,0,0,1,1.27.14,4.22,4.22,0,0,0,.69.09h.1a10.85,10.85,0,0,0,1.9-.63,10.68,10.68,0,0,0,1.69-1A4.17,4.17,0,0,0,430,352c.19-.22.38-.44.61-.67s.54-.48.78-.68A3.47,3.47,0,0,0,432,350a7,7,0,0,0,.57-1.22C432.65,348.6,432.73,348.41,432.81,348.22Zm-1.08-8.83a.38.38,0,0,1,.39.39.39.39,0,1,1-.77,0A.38.38,0,0,1,431.73,339.39Zm-2.2-1.82a.39.39,0,1,1,0,.77.39.39,0,1,1,0-.77Zm-1.87,4.63a1.06,1.06,0,1,1-1.05-1.05A1,1,0,0,1,427.66,342.2Zm-1.78-4.71a.71.71,0,0,1,0,1.42.71.71,0,0,1,0-1.42ZM423.82,335a.39.39,0,0,1,.39.39.4.4,0,0,1-.39.39.39.39,0,0,1-.39-.39A.38.38,0,0,1,423.82,335Zm-1.07,3.92a.71.71,0,0,1,0,1.42.71.71,0,0,1,0-1.42Zm-1.27-2.79a.7.7,0,0,1,.71.7.71.71,0,0,1-.71.71.7.7,0,0,1-.7-.71A.7.7,0,0,1,421.48,336.08Zm-1.77,3a.39.39,0,0,1,.39.39.4.4,0,0,1-.39.39.39.39,0,0,1-.39-.39A.38.38,0,0,1,419.71,339.12ZM418,340.71a.39.39,0,0,1-.39.39.4.4,0,0,1-.39-.39.39.39,0,0,1,.39-.39A.38.38,0,0,1,418,340.71Zm-2.72,2.52a.39.39,0,0,1,.39.39.38.38,0,0,1-.39.39.39.39,0,0,1-.39-.39A.4.4,0,0,1,415.25,343.23Zm1.48,6.13a.4.4,0,0,1-.39-.39.39.39,0,0,1,.39-.39.38.38,0,0,1,.39.39A.39.39,0,0,1,416.73,349.36Zm.85,1.89a.39.39,0,0,1-.39-.39.4.4,0,0,1,.39-.39.39.39,0,0,1,.39.39A.38.38,0,0,1,417.58,351.25Zm.11-4.55a.71.71,0,1,1,.71-.71A.71.71,0,0,1,417.69,346.7Zm.62-8.36a.39.39,0,1,1,0-.77.39.39,0,1,1,0,.77Zm1.56,13.45a.4.4,0,0,1-.39-.39.39.39,0,0,1,.39-.39.38.38,0,0,1,.39.39A.39.39,0,0,1,419.87,351.79Zm1.27-6.78a1.51,1.51,0,1,1,1.51-1.5A1.5,1.5,0,0,1,421.14,345Zm1.38,5.39a.39.39,0,0,1,0-.78.39.39,0,1,1,0,.78Zm1.29,2.59a.7.7,0,0,1-.7-.71.7.7,0,0,1,.7-.7.7.7,0,0,1,.71.7A.71.71,0,0,1,423.81,353Zm4.35-1.38a.39.39,0,0,1-.39-.39.39.39,0,1,1,.77,0A.39.39,0,0,1,428.16,351.61Zm-1.78-1.89a2.19,2.19,0,1,1,2.18-2.18A2.18,2.18,0,0,1,426.38,349.72Zm2.42-8.62a.39.39,0,0,1-.39-.39.38.38,0,0,1,.39-.39.39.39,0,0,1,.39.39A.4.4,0,0,1,428.8,341.1Zm.75,9.52a.39.39,0,0,1-.39-.39.39.39,0,1,1,.78,0A.39.39,0,0,1,429.55,350.62Zm.23-5.39a.39.39,0,0,1-.39-.39.39.39,0,1,1,.77,0A.39.39,0,0,1,429.78,345.23Zm1.51,2.24a.39.39,0,0,1-.38-.39.39.39,0,1,1,.77,0A.39.39,0,0,1,431.29,347.47Zm-.29-3.92a.71.71,0,1,1,.71-.71A.71.71,0,0,1,431,343.55Z" transform="translate(-336.95 -172.84)"/><circle class="cls-5" cx="89.22" cy="174.97" r="0.98"/><circle class="cls-5" cx="84.34" cy="170.72" r="0.67"/><path class="cls-4" d="M530.87,311.87V494.29a15,15,0,1,0,30.07,0V384.53h5.63V494.29a15,15,0,1,0,30.07,0V311.87c5.44,11.31,10.28,34.08,7.78,76.81A9.73,9.73,0,0,0,613.56,399h.58a9.73,9.73,0,0,0,9.7-9.16c3-51.37-3.42-84.88-19.1-99.61-6.8-6.4-13.45-7.51-16.88-7.6-.21,0-.41,0-.62,0h-47l-.61,0c-3.43.09-10.08,1.2-16.89,7.6-15.67,14.72-22.1,48.24-19.09,99.61a9.73,9.73,0,0,0,9.7,9.16H514a9.74,9.74,0,0,0,9.14-10.28C520.59,346,525.43,323.17,530.87,311.87Z" transform="translate(-336.95 -172.84)"/><circle class="cls-4" cx="226.8" cy="75.44" r="27.36"/><path class="cls-6" d="M587.26,275.15H585.4l1.4-1.22" transform="translate(-336.95 -172.84)"/><path class="cls-7" d="M589.29,271.39a34.71,34.71,0,0,0,6.45-10.56" transform="translate(-336.95 -172.84)"/><path class="cls-8" d="M596.34,259.16a34.8,34.8,0,1,0-57.84,13.52" transform="translate(-336.95 -172.84)"/><path class="cls-6" d="M539.78,273.92c.46.41.92.82,1.4,1.22h-1.86" transform="translate(-336.95 -172.84)"/><path class="cls-9" d="M535.72,275.45a32.45,32.45,0,0,0-11.85,4.27" transform="translate(-336.95 -172.84)"/><path class="cls-10" d="M522.34,280.69a37.93,37.93,0,0,0-5.13,4.09c-17.61,16.54-24.62,51-21.43,105.47a17.17,17.17,0,0,0,17.12,16.16l1,0a16.91,16.91,0,0,0,5.87-1.41" transform="translate(-336.95 -172.84)"/><path class="cls-6" d="M521.4,404.16c.54-.31,1.06-.65,1.57-1V405" transform="translate(-336.95 -172.84)"/><line class="cls-11" x1="186.02" y1="235.67" x2="186.02" y2="247.9"/><path class="cls-12" d="M523,422.49v71.8a22.46,22.46,0,0,0,37.91,16.31" transform="translate(-336.95 -172.84)"/><path class="cls-6" d="M562.1,509.35c.41-.45.81-.93,1.19-1.42.38.49.77,1,1.19,1.42" transform="translate(-336.95 -172.84)"/><path class="cls-13" d="M567,511.76a22.41,22.41,0,0,0,11.1,4.8" transform="translate(-336.95 -172.84)"/><path class="cls-14" d="M579.85,516.73l1.29,0a22.5,22.5,0,0,0,22.47-22.47V406.76" transform="translate(-336.95 -172.84)"/><path class="cls-6" d="M603.61,405v-1.86a18.08,18.08,0,0,0,1.56,1" transform="translate(-336.95 -172.84)"/><path class="cls-15" d="M608.48,405.61a17.45,17.45,0,0,0,4.18.77l1,0a17,17,0,0,0,7.18-1.58" transform="translate(-336.95 -172.84)"/><path class="cls-16" d="M622.45,404a17.16,17.16,0,0,0,8.35-13.74c3.18-54.43-3.83-88.93-21.43-105.47-7.75-7.28-15.59-9.15-20.32-9.53" transform="translate(-336.95 -172.84)"/></svg>