<svg id="Calque_1" data-name="Calque 1" xmlns="http://www.w3.org/2000/svg" viewBox="0 0 127.79 236.99"><defs><style>.cls-1{fill:#091494;}</style></defs><path class="cls-1" d="M409.4,222.41a22.5,22.5,0,1,0-22.5-22.5A22.5,22.5,0,0,0,409.4,222.41Zm10.07-12.17-1.72,2.46a33.45,33.45,0,0,0-21.92-5.58l-.45-3A35.92,35.92,0,0,1,419.47,210.24Z" transform="translate(-325.66 -177.41)"/><path class="cls-1" d="M414.06,268.66c-8.58-6.73-26.16-20.51-32.42-22.83A10.28,10.28,0,0,1,373.1,244c-.23.49-.46,1-.68,1.5a73.62,73.62,0,0,0-3.71,10.94c-4.28,16.3-5.6,38.94-3.92,67.56a8,8,0,0,0,8,7.53h.47a8,8,0,0,0,7.52-8.46c-1.94-33.22.56-52.71,3.78-64.06l2.33.38c-3.15,10.91-5.77,30.15-3.81,63.55a10.24,10.24,0,0,1-2.59,7.45,10.54,10.54,0,0,1-1,.93L373.83,401a12.36,12.36,0,1,0,24.64,2L405.9,312h7L420.33,403A12.37,12.37,0,0,0,445,401l-8.53-104.59V285C431.33,282.19,424.62,276.93,414.06,268.66Z" transform="translate(-325.66 -177.41)"/><path class="cls-1" d="M426.77,252.44l4.39,3.44a44.07,44.07,0,0,0-2-5.38l2.3-.46a62.4,62.4,0,0,1,3.68,11.78c-3.26-2.47-6.73-5.2-9.76-7.57-29-22.7-41.67-31.32-50.68-25a8,8,0,0,0,7,14.18c6.12,1.74,24,15.75,33.78,23.42,16.14,12.64,23.4,18.34,29.08,18.34A8.85,8.85,0,0,0,449,284a9,9,0,0,0,4.44-9.06c-1.28-11.4-3.28-20.79-6-28.07a42.32,42.32,0,0,0-5.84-11.13c-4.14-5.39-8.43-7-11.26-7.44a8.22,8.22,0,0,0-1.58-.16H392.18C400.15,232.07,410.75,239.89,426.77,252.44Z" transform="translate(-325.66 -177.41)"/><polygon class="cls-1" points="21.21 33.48 38.49 45.81 39.02 45 20 28 17.75 37.53 2.15 26.78 0 30.43 19.78 42.19 21.21 33.48"/><polygon class="cls-1" points="36.94 24.54 44.45 40.85 45.17 40.48 38.36 20.01 32.69 26.06 25.77 11.62 22.65 13.39 32.23 30.33 36.94 24.54"/><polygon class="cls-1" points="37.71 54.22 17.31 48.26 19.04 56.24 3.46 53.76 3.15 57.28 22.24 59.01 20.19 51.95 37.6 55.02 37.71 54.22"/></svg>