<svg id="Calque_1" data-name="Calque 1" xmlns="http://www.w3.org/2000/svg" viewBox="0 0 89.55 234.66"><defs><style>.cls-1{fill:none;}.cls-2{fill:#091494;}</style></defs><path class="cls-1" d="M457.71,288.58a7.67,7.67,0,0,0-2.52-1c-12.41-2.43-18.31-7.4-21.95-12.89a25.94,25.94,0,0,1-2.55-5.11,37.22,37.22,0,0,1-2.15-12.9,47.94,47.94,0,0,1,.59-7.43c.14-.91.28-1.62.38-2.07.05-.23.09-.39.11-.49a.45.45,0,0,0,0-.08,7.79,7.79,0,0,0-15.05-4h0A58.67,58.67,0,0,0,413,256.72c0,7.43,1.31,17.11,7,26.14l.2.33c5.82,9.15,16.42,16.85,32.14,19.73a8.11,8.11,0,0,0,1.46.14,7.78,7.78,0,0,0,3.95-14.48Zm1.77,7.77a5.68,5.68,0,0,1-.93,2.2,5.81,5.81,0,0,1-5.89,2.46c-13.77-2.52-24.72-9.22-30.86-18.87-.3-.47-.56-1-.84-1.44-4-6.8-6-14.85-6-24a56.85,56.85,0,0,1,1.56-13.54,5.84,5.84,0,0,1,5.64-4.36,5.55,5.55,0,0,1,1.51.2,5.86,5.86,0,0,1,4.14,7.14h0l0,.09c0,.1-.06.28-.12.53-.11.49-.26,1.24-.41,2.19a50.94,50.94,0,0,0-.61,7.74,38.94,38.94,0,0,0,2.47,14.1,27.91,27.91,0,0,0,2.55,5c4.78,7.21,12.15,11.57,23.2,13.73a5.82,5.82,0,0,1,3.16,1.73,6.94,6.94,0,0,1,.6.72A5.78,5.78,0,0,1,459.48,296.35Z" transform="translate(-387.56 -174)"/><path class="cls-2" d="M418.53,217.22a21.89,21.89,0,1,0-16.36-26.29A21.89,21.89,0,0,0,418.53,217.22Z" transform="translate(-387.56 -174)"/><path class="cls-2" d="M458,291.26a5.82,5.82,0,0,0-3.16-1.73c-11.05-2.16-18.42-6.52-23.2-13.73a27.91,27.91,0,0,1-2.55-5,38.94,38.94,0,0,1-2.47-14.1,50.94,50.94,0,0,1,.61-7.74c.15-.95.3-1.7.41-2.19.06-.25.1-.43.12-.53l0-.09h0a5.86,5.86,0,0,0-4.14-7.14,5.55,5.55,0,0,0-1.51-.2,5.84,5.84,0,0,0-5.64,4.36,56.85,56.85,0,0,0-1.56,13.54c0,9.13,2.07,17.18,6,24,.28.48.54,1,.84,1.44,6.14,9.65,17.09,16.35,30.86,18.87a5.81,5.81,0,0,0,5.89-2.46,5.68,5.68,0,0,0,.93-2.2,5.78,5.78,0,0,0-.91-4.37A6.94,6.94,0,0,0,458,291.26Z" transform="translate(-387.56 -174)"/><path class="cls-2" d="M405.28,343.76v53.06A11.62,11.62,0,0,0,422,407.27,11.64,11.64,0,0,1,415.89,397V345.09" transform="translate(-387.56 -174)"/><path class="cls-2" d="M477.11,294.14a29.69,29.69,0,0,0-22.87-28.89c-4.76-23-13.78-42.8-30.74-42.8-39.52,0-36,107.46-35.78,112.52v.21c0,3.8,18.51,6.14,31.54,7V396.5a12.14,12.14,0,0,0,6.41,10.71,12,12,0,0,0,5.75,1.45A12.17,12.17,0,0,0,443.6,396.5V342.19c13-.87,15.67-3.21,15.67-7,0,0,.22-5.42.15-13.89A29.68,29.68,0,0,0,477.11,294.14Zm-15.71,2.57a7.8,7.8,0,0,1-7.64,6.35,8.11,8.11,0,0,1-1.46-.14C436.58,300,426,292.34,420.16,283.19l-.2-.33c-5.68-9-7-18.71-7-26.14a58.67,58.67,0,0,1,1.62-14.07h0a7.79,7.79,0,0,1,15.05,4,.45.45,0,0,1,0,.08c0,.1-.06.26-.11.49-.1.45-.24,1.16-.38,2.07a47.94,47.94,0,0,0-.59,7.43,37.22,37.22,0,0,0,2.15,12.9,25.94,25.94,0,0,0,2.55,5.11c3.64,5.49,9.54,10.46,21.95,12.89a7.67,7.67,0,0,1,2.52,1A7.78,7.78,0,0,1,461.4,296.71Z" transform="translate(-387.56 -174)"/></svg>