<svg id="Calque_1" data-name="Calque 1" xmlns="http://www.w3.org/2000/svg" viewBox="0 0 85.39 205.93"><defs><style>.cls-1{fill:#091494;}</style></defs><path class="cls-1" d="M422.63,359.38a11.43,11.43,0,0,0,.44,2.23l12.68,42.56a12.25,12.25,0,0,0,23.48-7L446.87,355.7l-1-9.37a10.39,10.39,0,0,1-1.68.14c-.21,0-.42,0-.64,0a10.3,10.3,0,0,1-9.65-10.9c1.72-28.24.55-48.82-1-62.09l2.32,0c1.52,13.39,2.66,34,.94,62.25a8,8,0,0,0,7.49,8.47h.5a8,8,0,0,0,8-7.51c1.71-28.14.72-49.06-.8-63.32-1.62-15.26-3.85-22.89-4-23.48a8,8,0,0,0-5.69-5.43,24.79,24.79,0,0,1-49.26,0,8,8,0,0,0-5.69,5.43c-.17.59-2.4,8.22-4,23.48-1.52,14.26-2.51,35.18-.79,63.32a8,8,0,0,0,8,7.51h.49a8,8,0,0,0,7.5-8.47c-1.72-28.27-.59-48.86.93-62.25l2.33,0c-1.52,13.27-2.68,33.85-1,62.09a10.28,10.28,0,0,1-9.65,10.9c-.22,0-.43,0-.63,0a10.2,10.2,0,0,1-1.68-.14l-1,9.37-12.36,41.47a12.25,12.25,0,1,0,23.48,7L411,361.61a12.24,12.24,0,0,0,.45-2.23l3.4-32.57h4.35Z" transform="translate(-374.36 -206.99)"/><circle class="cls-1" cx="42.69" cy="34.6" r="22.5"/><path class="cls-1" d="M427.65,212a7.65,7.65,0,0,0-5.31,1.63,1,1,0,0,0,1.28,1.54,5.69,5.69,0,0,1,3.82-1.18,5.5,5.5,0,0,1,3.65,2.39,1,1,0,0,0,.8.39,1,1,0,0,0,.6-.2,1,1,0,0,0,.19-1.4A7.39,7.39,0,0,0,427.65,212Z" transform="translate(-374.36 -206.99)"/><path class="cls-1" d="M420.69,210.45a1,1,0,0,0,1.4.2,9.21,9.21,0,0,1,6.27-1.57c2.22.36,4.22,1.77,5.93,4.2a1,1,0,0,0,.82.43,1,1,0,0,0,.58-.19,1,1,0,0,0,.24-1.39c-2-2.89-4.48-4.58-7.26-5a11.12,11.12,0,0,0-7.78,1.94A1,1,0,0,0,420.69,210.45Z" transform="translate(-374.36 -206.99)"/></svg>