<svg id="Calque_1" data-name="Calque 1" xmlns="http://www.w3.org/2000/svg" xmlns:xlink="http://www.w3.org/1999/xlink" viewBox="0 0 137.11 233.5"><defs><style>.cls-1{fill:#091494;}.cls-2{fill:url(#Dégradé_sans_nom_6);}.cls-3{fill:#e30613;}</style><linearGradient id="Dégradé_sans_nom_6" x1="370.87" y1="273.92" x2="370.87" y2="209.15" gradientUnits="userSpaceOnUse"><stop offset="0.26" stop-color="#091494"/><stop offset="0.62" stop-color="#e30613"/></linearGradient></defs><path class="cls-1" d="M411.17,265.1c1.73,3.06,3,5.47,3.82,7.33-2.46-1.05-5.14-2.32-7.15-3.27-.86-.4-3.24-1.42-4.07-1.81L393,277c-1.69,1.59-4.53.48-5.49-.61a3.54,3.54,0,0,1,.14-5.21l8.35-7.13c-3.8-1.62-3.2-1.24-6.31-1.5a22.31,22.31,0,0,1-39.64.7c-6.33,3.6-10.91,6.38-14.21,8.51L334.71,270c6-3.86,15.93-9.71,32.45-18.48a7.2,7.2,0,0,0-6.76-12.72c-15.93,8.45-26.41,14.51-33.37,19-10.81,7-13.13,10.18-14.2,12.76a7,7,0,0,0-.29.84,8.31,8.31,0,0,0,1.72,8.14c1.9,2.08,4.39,3.11,8.42,3.11,3.61,0,8.44-.82,15.18-2.45,2.64-.64,5.22-1.32,7.46-1.94V419.9a11.13,11.13,0,0,0,22.26,0V338.64h4.18V419.9a11.13,11.13,0,0,0,22.26,0V278.7c2.6,1.09,5.51,2.47,7.67,3.49,7.33,3.46,14,6.62,19.45,6.62a9.81,9.81,0,0,0,7.72-3.33c5.43-6,1.83-15.7-6.66-30.1Z" transform="translate(-312.14 -197.54)"/><path class="cls-1" d="M407.6,244.66a7.2,7.2,0,0,0-3.3,7.63l9.39-8.28A7.16,7.16,0,0,0,407.6,244.66Z" transform="translate(-312.14 -197.54)"/><path class="cls-1" d="M391.77,275.3l13-11.49a5.42,5.42,0,0,0,6.08-.73l36.53-32.21a5.41,5.41,0,0,0-7.15-8.12L403.73,255a5.42,5.42,0,0,0-1.48,5.94l-13,11.49a1.93,1.93,0,0,0,2.56,2.9Zm52.44-48.9a2.71,2.71,0,0,1-.24,3.81l-32.38,28.54A2.7,2.7,0,0,1,408,254.7l32.37-28.54A2.71,2.71,0,0,1,444.21,226.4Z" transform="translate(-312.14 -197.54)"/><path class="cls-2" d="M363.77,235.91a9.27,9.27,0,0,1,4.36,17.46c-6.38,3.38-11.76,6.33-16.31,8.89a20.26,20.26,0,1,0,2.11-22.33l5.5-2.94A9.3,9.3,0,0,1,363.77,235.91Zm21,21.86-.39,1.29-.38,1.29c-.42-.12-10.39-2.94-19.87,5.57l-1.8-2C373,254.36,384.33,257.62,384.8,257.77Z" transform="translate(-312.14 -197.54)"/><path class="cls-1" d="M362.55,199.68c.87-.84,0-2.78-.85-1.94a14,14,0,0,0-4.21,8.74c-.39,3.9,2.49,6.4,2.82,10.06a10.33,10.33,0,0,1-2.26,6.81c-.79,1,.4,2.57,1.19,1.58a13.25,13.25,0,0,0,2.45-10.62c-.73-3.89-3.5-5.76-2-10.19A11.55,11.55,0,0,1,362.55,199.68Z" transform="translate(-312.14 -197.54)"/><path class="cls-1" d="M372.39,199.68c.87-.84,0-2.78-.85-1.94a14,14,0,0,0-4.21,8.74c-.39,3.9,2.49,6.4,2.82,10.06a10.27,10.27,0,0,1-2.26,6.81c-.79,1,.4,2.57,1.19,1.58a13.25,13.25,0,0,0,2.45-10.62c-.73-3.89-3.5-5.76-2-10.19A11.55,11.55,0,0,1,372.39,199.68Z" transform="translate(-312.14 -197.54)"/><path class="cls-1" d="M382.23,199.68c.87-.84,0-2.78-.84-1.94a14,14,0,0,0-4.22,8.74c-.38,3.9,2.49,6.4,2.82,10.06a10.32,10.32,0,0,1-2.25,6.81c-.8,1,.39,2.57,1.18,1.58a13.25,13.25,0,0,0,2.45-10.62c-.73-3.89-3.5-5.76-2-10.19A11.55,11.55,0,0,1,382.23,199.68Z" transform="translate(-312.14 -197.54)"/><path class="cls-3" d="M434.32,237.83,411,258.43a2,2,0,1,1-2.65-3l23.33-20.6" transform="translate(-312.14 -197.54)"/></svg>