<svg id="Calque_1" data-name="Calque 1" xmlns="http://www.w3.org/2000/svg" viewBox="0 0 236.93 270.6"><defs><style>.cls-1{fill:#091494;}</style></defs><path class="cls-1" d="M380.68,370.74l.84,16.37c2.45-10.69,3-17.47,2.92-21.31a33.5,33.5,0,0,0-.57-6.62H348.16a33.12,33.12,0,0,0-.57,6.6c0,3.86.48,10.64,2.93,21.34l.83-16.38Z" transform="translate(-311.53 -169.74)"/><path class="cls-1" d="M356.81,409.22c.54,1.62,1.1,3.28,1.7,5h15c.6-1.73,1.17-3.39,1.7-5Z" transform="translate(-311.53 -169.74)"/><path class="cls-1" d="M380.53,353.78a16.79,16.79,0,0,0-4.24-1.2,61.05,61.05,0,0,0-10.06-.66h-.46a56.45,56.45,0,0,0-11,.84,10.28,10.28,0,0,0-4.57,1.8,3.55,3.55,0,0,0-.78.94h33.12A3.91,3.91,0,0,0,380.53,353.78Z" transform="translate(-311.53 -169.74)"/><path class="cls-1" d="M311.61,303.93a40.33,40.33,0,0,0,6.56,19.24c4.59,7.16,11.55,14,21.34,20.62a9.25,9.25,0,0,0,10.34-15.35c-8.25-5.56-13.24-10.78-16.09-15.24a22.23,22.23,0,0,1-3.57-9.27,19,19,0,0,1-.16-2.36c0-4.68,1.92-9.49,4.71-13.71v22.45c.3.54.61,1.09,1,1.64,3.1,4.86,8.3,9.76,15.45,14.58a11.57,11.57,0,0,1-12.94,19.18,93.34,93.34,0,0,1-13.6-11,35,35,0,0,0-3.13,4.56c-.21.35-.44.69-.63,1.05-4,7.3-5.64,15.84-5.64,25.5.06,16.33,4.6,36.62,14.7,64.64a15,15,0,0,0,28.27-10.25c-9.53-26.16-13-44-12.9-54.39,0-5.51.88-8.79,1.68-10.53a6.65,6.65,0,0,1,1.76-2.45,12.23,12.23,0,0,1,5.6-2.31,59,59,0,0,1,11.7-.89,64.23,64.23,0,0,1,10.66.69,18.89,18.89,0,0,1,4.92,1.43,6.26,6.26,0,0,1,3.17,2.93c.87,1.58,2,4.92,2,11.13.06,10.42-3.37,28.23-12.91,54.39a15,15,0,0,0,28.27,10.25h0c10.11-28,14.64-48.29,14.7-64.63,0-8.6-1.33-16.27-4.4-23-.33-.71-.68-1.4-1-2.09A36.58,36.58,0,0,0,402.85,330a37.76,37.76,0,0,0-5.56-3.89V291.32c.82.67,1.67,1.35,2.56,2,1.54,1.17,3.2,2.34,5,3.49l-.92,2.08a4.58,4.58,0,0,0-.1,3.54,4.63,4.63,0,0,0,2.45,2.56l4.74,2.11a86.51,86.51,0,0,0,2.88,11,40.12,40.12,0,0,0,6.59,12.64c2.7,3.24,6.15,5.48,10.18,5.68h.71a9.12,9.12,0,0,0,8.43-6.1,28.39,28.39,0,0,0,1.74-10.73,67.13,67.13,0,0,0-.7-9.11,126.06,126.06,0,0,0,21.87,1.86h.2c1,0,1.94,0,2.91,0a9.16,9.16,0,0,0,5.52-2c-1,21.07-5.66,53.87,0,62,1.84,2.65,8.61,4.27,17.39,5l-1.54,47.33a14.46,14.46,0,0,0,14,14.91h.47a14.46,14.46,0,0,0,14.45-14l1.57-48.48c15.42-1.32,28.8-4.43,29.29-8.82,7.1-64.48-10.83-141-45.16-143.11-13.93-.85-16.45,1.16-19.47,3.47A12.85,12.85,0,0,0,480,231.1c.55-3.24,1-6.39,1.35-9.41a26.06,26.06,0,1,0-16.08-7.34c-.33,12.43-1.88,29.15-6.79,44.59-.24,0-.48,0-.73,0a15.93,15.93,0,0,1-8-2.53,39.36,39.36,0,0,1-6.64-5,2.3,2.3,0,0,0-.62-2.37l-1.2-1.14c.42-2-1.6-5.75-5.1-9s-7.32-5.09-9.33-4.55l-1.2-1.13a2.31,2.31,0,0,0-3.27.1L418.94,237a2.32,2.32,0,0,0,.1,3.27l.42.4c-3.34,3.31-5.65,8.3-7.36,14.16a96.12,96.12,0,0,0-3.25,22.05,54.66,54.66,0,0,1-8.24-8.39,35.88,35.88,0,0,1-2.2-3.11c-.22-.34-.36-.59-.44-.73a.4.4,0,0,1-.06-.11,9.29,9.29,0,0,0-3.73-3.82,8.94,8.94,0,0,0-5.82-2.16H343.68a8.89,8.89,0,0,0-3.11.56,9.35,9.35,0,0,0-5,1.64,64.74,64.74,0,0,0-7.56,6.43,61,61,0,0,0-12.49,17.15,40.6,40.6,0,0,0-4,17.25C311.53,302.35,311.56,303.14,311.61,303.93Zm123.92,24.61c-1.09,2.29-2.07,3.22-4.34,3.29h-.32c-2.41-.13-4.65-1.41-6.86-4-3.3-3.86-5.95-10.47-7.78-18.36l16.45,7.29a4.46,4.46,0,0,0,1.87.4,4.61,4.61,0,0,0,2.23-.59c.06,1,.11,2,.11,3.09A24.1,24.1,0,0,1,435.53,328.54Zm52,9.13-1.38-4.81,19.57-4.8.77,3.28ZM469.75,217.88a26.54,26.54,0,0,0,7,3,165.62,165.62,0,0,1-6,29.27,29.55,29.55,0,0,1-5.66,6c-.42.31-.82.58-1.23.84C467.78,243.34,469.27,229.22,469.75,217.88Zm-46.93,25.93,1,.94a9.24,9.24,0,0,0-.61,12.78c5.85,6.71,11.52,11.6,17.26,14.93a37.81,37.81,0,0,0,10.28,4.17q-1.38,2.36-2.92,4.56c.79,0,1.59.06,2.35.06,1.11,0,2.18,0,3.23-.08.78-1.23,1.53-2.49,2.24-3.77.6,0,1.19.06,1.79.06-.87,1.14-1.76,2.25-2.7,3.32-.09.11-.19.21-.28.31a48,48,0,0,0,6.67-.89c.81-1.08,1.6-2.18,2.35-3.31a30.55,30.55,0,0,0,7.87-2.83c0,.78-.05,1.57-.07,2.35a26.72,26.72,0,0,0,9.6-9.72c4.35-7.32,5.15-16.6,5.09-19.56v-.56a11.58,11.58,0,0,1,11-12.07h.55a11.54,11.54,0,0,1,11.54,11c0,.11,0,.66,0,1.56a66.26,66.26,0,0,1-3.67,21.3,51.37,51.37,0,0,1-23,28.29c-8.92,5.12-19.75,7.71-32.18,7.71h-.09c-3,0-6.11-.16-9.3-.45l-4.21,9.51a2.32,2.32,0,0,1-3.06,1.18L407.18,302.9a2.31,2.31,0,0,1-1.17-3l8.43-19a2.33,2.33,0,0,1,3.06-1.18l13.82,6.13a11.42,11.42,0,0,1,1.56-1.84l-14.44-6.4a4.6,4.6,0,0,0-5,.85,94.22,94.22,0,0,1,3.13-22.29C418.11,250.54,420.35,246.26,422.82,243.81Z" transform="translate(-311.53 -169.74)"/><path class="cls-1" d="M382.58,252.86A27.16,27.16,0,1,0,350,232.56,27.16,27.16,0,0,0,382.58,252.86Z" transform="translate(-311.53 -169.74)"/><path class="cls-1" d="M431.65,291.36a9.24,9.24,0,0,0,8.25,10.15,100.51,100.51,0,0,0,10.28.56h.09c12.6,0,22.94-2.76,31-7.4a49.12,49.12,0,0,0,21.94-27.05,63.9,63.9,0,0,0,3.54-20.54c0-.82,0-1.33,0-1.46a9.25,9.25,0,0,0-18.48.83h0s0,.26,0,.63c.05,2.55-.53,12.58-5.41,20.78a28.8,28.8,0,0,1-10.75,10.74c-5,2.86-11.91,4.95-21.94,5a81.24,81.24,0,0,1-8.37-.45A9.25,9.25,0,0,0,431.65,291.36Z" transform="translate(-311.53 -169.74)"/></svg>