<svg width="113" height="185" viewBox="0 0 113 185" fill="none" xmlns="http://www.w3.org/2000/svg">
<path d="M92.8082 47.3833H13.2754V158.348H92.8082V47.3833Z" fill="white"/>
<path d="M53.0418 181.305C75.0042 181.305 92.8082 171.027 92.8082 158.348C92.8082 145.67 75.0042 135.392 53.0418 135.392C31.0794 135.392 13.2754 145.67 13.2754 158.348C13.2754 171.027 31.0794 181.305 53.0418 181.305Z" fill="white"/>
<path d="M87.9458 47.3833H18.1465V158.348H87.9458V47.3833Z" fill="#A4E7E3"/>
<path d="M53.0421 71.863C73.405 71.863 89.9124 62.3305 89.9124 50.5716C89.9124 38.8127 73.405 29.2803 53.0421 29.2803C32.6793 29.2803 16.1719 38.8127 16.1719 50.5716C16.1719 62.3305 32.6793 71.863 53.0421 71.863Z" fill="white"/>
<path d="M53.0417 178.497C72.3138 178.497 87.937 169.476 87.937 158.348C87.937 147.22 72.3138 138.199 53.0417 138.199C33.7696 138.199 18.1465 147.22 18.1465 158.348C18.1465 169.476 33.7696 178.497 53.0417 178.497Z" fill="#54CFC0"/>
<path d="M47.6397 158.499L58.9231 158.038C62.1292 157.897 64.6357 154.938 64.5028 151.449C64.3522 147.95 61.6244 145.196 58.4006 145.329L47.1172 145.789L47.6397 158.499Z" fill="white"/>
<path d="M47.2505 145.772L36.6668 146.197C33.4696 146.339 30.9454 149.297 31.1048 152.786C31.2377 156.284 33.9921 159.03 37.1893 158.906L47.7642 158.472L47.2505 145.772Z" fill="#EF5E16"/>
<path d="M36.3828 168.462L46.931 172.466C49.9511 173.608 53.4142 171.872 54.6541 168.604C55.9029 165.336 54.468 161.731 51.4656 160.58L40.8997 156.568L36.3828 168.462Z" fill="white"/>
<path d="M41.0325 156.621L31.1484 152.857C28.146 151.715 24.6742 153.459 23.4254 156.727C22.1678 159.996 23.6114 163.6 26.6138 164.752L36.5155 168.507L41.0325 156.621Z" fill="#F9AF4C"/>
<path d="M66.9285 167.108L76.4228 160.996C79.1241 159.252 79.7795 155.426 77.8753 152.485C75.9889 149.545 72.2336 148.571 69.5323 150.298L60.0469 156.409L66.9285 167.108Z" fill="white"/>
<path d="M60.1539 156.347L51.2707 162.077C48.5517 163.813 47.8874 167.63 49.7916 170.579C51.6958 173.52 55.451 174.511 58.1435 172.776L67.0533 167.036L60.1539 156.347Z" fill="#4DB5AA"/>
<path d="M70.1434 139.359L79.6465 145.462C82.3478 147.207 83.0032 151.041 81.1079 153.973C79.2037 156.922 75.4573 157.905 72.7649 156.169L63.2617 150.05L70.1434 139.359Z" fill="white"/>
<path d="M63.3768 150.129L54.4669 144.39C51.7657 142.672 51.1104 138.828 52.9968 135.888C54.901 132.939 58.6562 131.955 61.3663 133.7L70.2584 139.422L63.3768 150.129Z" fill="#66D7CC"/>
<path d="M49.517 130.671L38.2336 131.132C35.0275 131.274 32.521 134.223 32.645 137.721C32.7956 141.22 35.5323 143.974 38.7473 143.841L50.0218 143.381L49.517 130.671Z" fill="white"/>
<path d="M49.8976 143.389L60.4813 142.956C63.6785 142.814 66.2027 139.856 66.0433 136.366C65.9104 132.868 63.156 130.122 59.9588 130.246L49.375 130.68L49.8976 143.389Z" fill="#A4E7E3"/>
<path d="M69.7095 124.445L59.1612 120.442C56.1411 119.29 52.6782 121.026 51.4471 124.303C50.1983 127.571 51.6331 131.176 54.6355 132.327L65.2014 136.339L69.7095 124.445Z" fill="white"/>
<path d="M65.0605 136.277L74.9445 140.05C77.9558 141.193 81.4188 139.448 82.6587 136.18C83.9164 132.912 82.4726 129.307 79.4702 128.156L69.5686 124.392L65.0605 136.277Z" fill="#F27630"/>
<path d="M37.9417 110.221L28.4473 116.323C25.746 118.068 25.0906 121.894 26.9948 124.835C28.8813 127.784 32.6365 128.758 35.3378 127.022L44.8232 120.92L37.9417 110.221Z" fill="white"/>
<path d="M44.7166 120.982L53.6087 115.252C56.3188 113.525 56.9831 109.699 55.0878 106.749C53.1836 103.809 49.4283 102.817 46.7359 104.562L37.8262 110.301L44.7166 120.982Z" fill="#F27630"/>
<path d="M47.6397 101.179L58.9231 100.718C62.1292 100.576 64.6357 97.627 64.5028 94.1286C64.3522 90.6391 61.6244 87.8847 58.4006 88.0087L47.1172 88.4692L47.6397 101.179Z" fill="white"/>
<path d="M47.2505 88.4603L36.6668 88.8943C33.4696 89.036 30.9454 91.9853 31.1048 95.4837C31.2377 98.9821 33.9921 101.736 37.1893 101.612L47.7642 101.178L47.2505 88.4603Z" fill="#EF5E16"/>
<path d="M73.0313 104.5L68.3992 94.2084C67.0795 91.268 63.404 90.0458 60.2156 91.4806C57.0184 92.9065 55.4862 96.4757 56.797 99.4072L61.429 109.716L73.0313 104.5Z" fill="white"/>
<path d="M61.377 109.583L65.699 119.237C67.0186 122.169 70.703 123.382 73.8914 121.956C77.0887 120.539 78.6209 116.961 77.3189 114.029L72.9791 104.367L61.377 109.583Z" fill="#F9AF4C"/>
<path d="M70.1434 82.0482L79.6465 88.1505C82.3478 89.8952 83.0032 93.7301 81.1079 96.6617C79.2037 99.611 75.4573 100.594 72.7649 98.8581L63.2617 92.7382L70.1434 82.0482Z" fill="white"/>
<path d="M63.3768 92.809L54.4669 87.0699C51.7657 85.3517 51.1104 81.5078 52.9968 78.5674C54.901 75.6181 58.6562 74.6439 61.3663 76.3798L70.2584 82.1013L63.3768 92.809Z" fill="#66D7CC"/>
<path d="M49.517 73.351L38.2336 73.8203C35.0275 73.9531 32.521 76.9113 32.645 80.4097C32.7956 83.9081 35.5323 86.6625 38.7473 86.5297L50.0218 86.0602L49.517 73.351Z" fill="white"/>
<path d="M49.8976 86.078L60.4813 85.6352C63.6785 85.5023 66.2027 82.5441 66.0433 79.0546C65.9104 75.5562 63.156 72.8018 59.9588 72.9258L49.375 73.3597L49.8976 86.078Z" fill="#A4E7E3"/>
<path d="M69.7095 67.1248L59.1612 63.1215C56.1411 61.979 52.6782 63.7061 51.4471 66.983C50.1983 70.2511 51.6331 73.8558 54.6355 75.0072L65.2014 79.0192L69.7095 67.1248Z" fill="white"/>
<path d="M65.0605 78.966L74.9445 82.7389C77.9558 83.8814 81.4188 82.1367 82.6587 78.8686C83.9164 75.5916 82.4726 71.9958 79.4702 70.8444L69.5686 67.0803L65.0605 78.966Z" fill="#EF5E16"/>
<path d="M38.2332 56.8774L28.7389 62.9886C26.0287 64.7245 25.3822 68.5594 27.2775 71.4998C29.164 74.4491 32.9191 75.4234 35.6204 73.6875L45.106 67.5852L38.2332 56.8774Z" fill="white"/>
<path d="M44.999 67.6383L53.891 61.9081C56.6011 60.181 57.2654 56.3638 55.3612 53.4146C53.457 50.4741 49.7019 49.4821 47.0095 51.218L38.0996 56.9572L44.999 67.6383Z" fill="#F9AF4C"/>
<path d="M53.0417 74.2631C75.7084 74.2631 94.0834 63.656 94.0834 50.5716C94.0834 37.4871 75.7084 26.88 53.0417 26.88C30.375 26.88 12 37.4871 12 50.5716C12 63.656 30.375 74.2631 53.0417 74.2631Z" fill="#4DB5AA"/>
<path d="M94.0843 23.6915H12.0098V50.5803H94.0843V23.6915Z" fill="#4DB5AA"/>
<path d="M53.0417 47.3831C75.7084 47.3831 94.0834 36.776 94.0834 23.6916C94.0834 10.6071 75.7084 0 53.0417 0C30.375 0 12 10.6071 12 23.6916C12 36.776 30.375 47.3831 53.0417 47.3831Z" fill="#A4E7E3"/>
<path d="M109.3 155.401C109.643 155.533 110.032 155.582 110.42 155.523C111.619 155.346 112.444 154.236 112.267 153.042L111.815 149.957L111.363 146.876C111.186 145.677 110.071 144.847 108.872 145.024C108.479 145.083 108.125 145.24 107.835 145.471C107.241 145.942 106.912 146.714 107.03 147.515L107.482 150.595L107.939 153.676C108.057 154.487 108.592 155.125 109.3 155.401Z" fill="#FF9FB4"/>
<path d="M111.362 146.882C111.185 145.683 110.07 144.852 108.871 145.029C108.483 145.088 108.129 145.245 107.839 145.471H107.834V145.476C107.24 145.948 106.906 146.714 107.024 147.52L107.476 150.601L108.276 150.483L111.814 149.962L111.362 146.882Z" fill="white"/>
<path d="M77.4353 182.216C77.7301 182.757 78.1674 183.234 78.7275 183.582C80.4422 184.649 82.6925 184.128 83.7587 182.418L86.5003 178.006L89.2419 173.594C90.3081 171.879 89.7775 169.624 88.0677 168.558C87.5075 168.209 86.8885 168.027 86.2694 168.007C85.0017 167.968 83.7538 168.592 83.0365 169.742L80.2997 174.154L77.5581 178.566C76.8359 179.711 76.8359 181.101 77.4353 182.216Z" fill="#FFE98D"/>
<path d="M89.2361 173.588C90.3023 171.873 89.7717 169.618 88.0619 168.552C87.5017 168.203 86.8876 168.026 86.2734 168.002H86.2685C85.0009 167.962 83.7529 168.581 83.0356 169.736L80.2988 174.148L81.4387 174.856L86.4994 178L89.2361 173.588Z" fill="white"/>
<path d="M16.7919 167.566C17.465 167.242 18.0644 166.731 18.5164 166.073C19.902 164.048 19.3959 161.292 17.3716 159.907L12.1636 156.34L6.95542 152.777C4.93115 151.392 2.16499 151.908 0.779438 153.932C0.327415 154.595 0.0719548 155.337 0.0129953 156.084C-0.104924 157.622 0.582904 159.17 1.94389 160.098L7.15197 163.66L12.365 167.222C13.721 168.161 15.4112 168.235 16.7919 167.566Z" fill="#0669C6"/>
<path d="M6.95845 152.777C4.93418 151.392 2.16802 151.908 0.782468 153.932C0.330445 154.59 0.0798429 155.332 0.0208833 156.074V156.079C-0.0970357 157.612 0.585934 159.165 1.94692 160.098L7.155 163.66L8.0787 162.309L12.1666 156.33L6.95845 152.777Z" fill="white"/>
</svg>
