<svg width="171" height="321" viewBox="0 0 171 321" fill="none" xmlns="http://www.w3.org/2000/svg">
<path d="M111.795 284.847L79.1367 265.992C75.1455 263.687 68.1075 263.979 63.4982 266.64L38.4037 279.032C37.0436 279.817 36.0478 277.728 35.4137 278.676L34.5933 278.576L34.5879 284.192L34.596 284.173C34.6095 285.633 35.4865 287.022 37.2811 288.059L73.5695 309.011C77.5607 311.315 84.5988 311.024 89.208 308.363L110.673 293.874C115.282 291.216 115.787 287.152 111.795 284.847Z" fill="#000F1D"/>
<path d="M73.5689 303.94L37.2806 282.988C33.2893 280.683 33.794 276.619 38.4032 273.958L63.4977 261.566C68.1069 258.905 75.1449 258.614 79.1362 260.919L111.795 279.774C115.786 282.079 115.282 286.143 110.672 288.803L89.2075 303.292C84.5982 305.953 77.5602 306.245 73.5689 303.94Z" fill="#003970"/>
<path d="M162.067 174.856L131.821 157.394L114.676 147.495L103.604 141.102L69.7334 121.548L18.527 91.9844C16.4059 90.7593 14.4764 90.7215 13.011 91.6282L13.0029 91.6174L6 95.6465L10.2611 101.848V202.393V217.044C10.2611 223.129 13.9609 230.202 18.527 232.836L154.017 311.061L160.334 320.255L167.297 316.243L167.294 316.24C169.148 315.29 170.333 312.902 170.333 309.458V294.807V190.649C170.33 184.563 166.63 177.493 162.067 174.856Z" fill="#003970"/>
<path d="M162.872 297.793V193.634C162.872 187.549 159.172 180.476 154.606 177.842L124.36 160.379L107.216 150.48L96.1434 144.087L62.273 124.533L11.0667 94.9697C6.50059 92.3332 2.80078 95.1316 2.80078 101.217V205.378L8.45171 208.641L2.80078 205.378V220.029C2.80078 226.115 6.50059 233.188 11.0667 235.822L154.606 318.694C159.172 321.33 162.872 318.532 162.872 312.446V297.793L66.3587 242.069L74.487 246.762L162.872 297.793Z" fill="#0069CC"/>
<path d="M150.503 180.67L121.987 164.205L105.822 154.874L95.3812 148.845L63.4457 130.408L15.1647 102.534C10.8604 100.048 7.37109 102.688 7.37109 108.425V206.633L16.4195 211.858L48.3551 230.295L58.796 236.323L74.9608 245.655L158.297 293.769V195.561C158.297 189.823 154.808 183.155 150.503 180.67Z" fill="white"/>
<path d="M149.032 220.342L133.504 211.377V183.714L149.032 192.679V220.342Z" fill="#FFE461"/>
<path d="M154.001 223L16.6406 143.906V116.243L154.001 195.336V223Z" fill="#FFE461"/>
<path d="M154.001 192.683L16.6406 111.814V105.132L154.001 186V192.683Z" fill="#009D80"/>
<path d="M124.823 244.232L39.9219 194.827V177.758L124.823 227.161V244.232Z" fill="#0069CC"/>
<path d="M10.2158 128.951C8.96424 128.719 8.07974 129.734 7.89742 130.04C6.89465 131.708 6.65073 133.647 4.77333 136.431C3.49216 138.333 2.60027 138.57 1.63939 140.137C0.814024 141.479 2.04099 142.273 3.48477 142.071C4.04898 141.992 7.51553 141.908 8.19061 139.316C8.68337 137.421 8.80655 135.914 9.797 134.421C10.7874 132.928 11.0905 133.975 11.1644 134.519C11.2186 134.908 11.4108 136.034 11.4822 136.387C11.5069 136.515 11.6301 136.601 11.7582 136.584H11.7631C11.906 136.562 12.0021 136.426 11.9701 136.286C11.874 135.872 11.8419 134.507 12.1056 132.836C12.4332 130.786 11.3517 129.163 10.2158 128.951Z" fill="#FF9FB4"/>
<path d="M6.7884 137.636C7.82812 136.273 9.74741 131.782 9.59219 130.653C9.40741 129.33 6.89926 128.636 6.48288 129.693C5.77085 131.503 5.77085 134.963 3.39083 138.106C3.36619 139.072 5.57621 139.222 6.7884 137.636Z" fill="#FBDFB6"/>
<path d="M10.3801 138.466C9.14576 138.156 8.19967 139.114 7.99764 139.405C6.8914 141.006 6.52922 142.926 4.47688 145.586C3.07745 147.402 2.17324 147.587 1.11628 149.087C0.207141 150.376 1.38237 151.246 2.83847 151.137C3.4076 151.093 6.87169 151.229 7.70937 148.686C8.32286 146.826 8.53967 145.328 9.62128 143.901C10.7053 142.475 10.9394 143.537 10.9788 144.086C11.0084 144.48 11.1316 145.614 11.1784 145.968C11.1956 146.096 11.3114 146.19 11.442 146.18H11.4469C11.5923 146.168 11.6958 146.04 11.6736 145.897C11.6046 145.478 11.6564 144.113 12.0259 142.462C12.4768 140.437 11.4987 138.747 10.3801 138.466Z" fill="#FF9FB4"/>
<path d="M6.41453 146.919C7.53802 145.626 9.73571 141.263 9.65195 140.127C9.55093 138.791 7.0896 137.946 6.60916 138.971C5.78379 140.735 5.56698 144.187 2.99479 147.173C2.90609 148.137 5.10626 148.427 6.41453 146.919Z" fill="#FBDFB6"/>
<path d="M25.8321 67.7677C25.8321 67.7677 35.4827 63.7049 38.5723 74.2721C41.6619 84.8393 44.0567 89.4835 47.7204 90.6834C47.7204 90.6834 37.6632 106.028 21.9122 89.0228C25.1792 83.8513 17.1719 71.6383 25.8321 67.7677Z" fill="#FF7990"/>
<path d="M9.98184 130.991L8.45428 131.104C7.14108 131.203 5.98557 130.207 5.88702 128.892L4.3915 108.782C4.29295 107.469 5.28832 106.314 6.60398 106.215L8.13153 106.102C9.44473 106.003 10.6002 106.999 10.6988 108.314L12.1943 128.424C12.2904 129.737 11.2975 130.892 9.98184 130.991Z" fill="#7B7BBF"/>
<path d="M9.50659 140.895L8.04557 140.435C6.78904 140.038 6.08439 138.688 6.47859 137.429L12.5321 118.194C12.9288 116.938 14.2789 116.233 15.5379 116.627L16.999 117.088C18.2555 117.484 18.9601 118.835 18.5659 120.094L12.5124 139.328C12.1157 140.587 10.7631 141.292 9.50659 140.895Z" fill="#7B7BBF"/>
<path d="M27.2845 113.917L7.17504 112.978C5.59329 112.904 4.35893 111.549 4.43284 109.967L4.51908 108.129C4.59299 106.548 5.94807 105.313 7.52983 105.387L27.6393 106.326C29.221 106.4 30.4554 107.755 30.3815 109.337L30.2952 111.175C30.2213 112.759 28.8662 113.991 27.2845 113.917Z" fill="#7B7BBF"/>
<path d="M35.6083 116.755L16.5434 123.223C15.043 123.733 13.3997 122.92 12.8921 121.422L12.3008 119.677C11.7908 118.177 12.6038 116.533 14.1018 116.026L33.1666 109.558C34.6671 109.048 36.3104 109.862 36.818 111.36L37.4093 113.104C37.9193 114.602 37.1087 116.245 35.6083 116.755Z" fill="#7B7BBF"/>
<path d="M18.3568 100.694C18.3568 100.694 11.2045 100.43 9.84198 100.334C8.47951 100.238 7.12689 101.349 6.80906 102.113C6.49123 102.877 8.18139 104.426 8.61502 104.656C9.04865 104.885 9.59314 103.438 11.1897 103.535C12.7862 103.633 19.5469 104.02 19.5469 104.02L18.3568 100.694Z" fill="#FBDFB6"/>
<path d="M38.1828 108.191C38.1828 108.191 40.6761 117.105 33.0581 117.105C30.0301 112.404 23.1191 105.969 23.1191 105.969L38.1828 108.191Z" fill="#7B7BBF"/>
<path d="M30.0964 88.7838C30.1727 87.8697 29.7859 86.9852 29.0566 86.4235C28.5639 86.0416 27.9578 85.842 27.3221 85.8568C25.9325 85.8913 24.8189 87.0616 24.6957 88.4438C24.4124 91.6344 22.875 98.7301 20.0244 99.8142C19.5267 100.001 18.96 99.9719 18.3761 99.8068C17.2846 99.4988 16.1143 99.8462 15.4417 100.76C15.4319 100.778 15.4196 100.79 15.4072 100.807C14.3281 102.251 14.9366 104.385 16.6564 104.929C18.5091 105.515 20.2757 105.501 21.9412 104.867C28.655 102.32 29.914 91.0209 30.0964 88.7838Z" fill="#FFE98D"/>
<path d="M25.9284 88.2024C25.9284 88.2024 23.3562 90.7795 22.2672 92.4475C21.1782 94.1179 22.8092 96.8724 24.0978 97.6116C24.997 99.7649 24.1224 101.992 23.1196 105.969C23.1196 108.346 33.7903 114.4 38.1808 108.191C36.6705 104.215 35.4608 97.5845 38.3015 90.4838C37.3234 89.1682 34.4876 87.5544 33.1645 86.7906C30.713 85.3764 29.7472 85.5439 29.7472 85.5439L25.9284 88.2024Z" fill="#FFE98D"/>
<path d="M30.1367 90.6357C32.352 90.3657 34.0239 89.1306 33.8712 87.8771C33.7184 86.6236 31.7987 85.8263 29.5834 86.0963C27.3681 86.3663 25.6961 87.6014 25.8489 88.8549C26.0017 90.1084 27.9214 90.9057 30.1367 90.6357Z" fill="#FBDFB6"/>
<path d="M27.3675 112.611V112.047L26.8378 112.003L13.4422 104.269C12.8853 103.946 11.9121 103.988 11.2691 104.36L9.90908 105.143L1.94858 109.738L1.66524 109.901L0.783203 109.827V110.409L1.79089 110.99L15.3417 118.812L16.3494 119.394L17.5148 118.721L25.4753 114.126L26.8353 113.343C27.2024 113.136 27.3823 112.865 27.3675 112.611Z" fill="#3D3DBF"/>
<path d="M26.993 111.51L13.4422 103.687C12.8853 103.365 11.9121 103.406 11.2691 103.778L9.90908 104.562L1.94858 109.157L0.783203 109.83L1.79089 110.411L15.3417 118.234L16.3494 118.815L17.5148 118.142L25.4753 113.547L26.8353 112.764C27.4808 112.394 27.5498 111.833 26.993 111.51Z" fill="white"/>
<path d="M20.8381 113.804L13.4073 109.514C13.1018 109.337 12.5671 109.359 12.2148 109.563L11.4708 109.995L7.10492 112.515L6.4668 112.885L7.02115 113.205L14.4519 117.494L15.0063 117.815L15.6444 117.445L20.0102 114.925L20.7543 114.493C21.1066 114.289 21.1436 113.981 20.8381 113.804Z" fill="#3D3DBF"/>
<path d="M19.7295 114.629L14.8365 111.803C14.6344 111.687 14.2846 111.702 14.0505 111.835L13.5602 112.118L10.685 113.777L10.2637 114.02L10.6283 114.23L15.5214 117.056L15.886 117.265L16.3073 117.021L19.1826 115.363L19.6729 115.08C19.9045 114.947 19.9291 114.745 19.7295 114.629Z" fill="#3D3DBF"/>
<path d="M17.1799 111.123L13.0136 108.718C12.6835 108.529 12.7254 108.194 13.1073 107.974L15.8002 106.42C16.1796 106.2 16.7611 106.176 17.0912 106.365L21.2575 108.77C21.5876 108.96 21.5457 109.295 21.1638 109.514L18.4709 111.069C18.089 111.291 17.5076 111.313 17.1799 111.123Z" fill="#3D3DBF"/>
<path d="M16.5983 118.689L16.5121 117.295L15.9159 107.76L15.8149 106.131C15.7656 105.36 15.2753 104.476 14.7185 104.153L1.16763 96.3304C0.968066 96.2146 0.785747 96.19 0.637919 96.2368L0.632987 96.2393C0.59603 96.2516 0.561541 96.2688 0.529512 96.291L0.349653 96.3797L0.389074 96.4339C0.280667 96.594 0.226467 96.8355 0.246178 97.1435L0.347194 98.772L0.943427 108.307L1.02966 109.701L2.03735 110.283L15.5882 118.105L16.0317 118.362L16.3544 118.815L16.5983 118.689Z" fill="white"/>
<path d="M14.4763 104.281L0.925436 96.4585C0.36862 96.1358 -0.0452946 96.5004 0.00398118 97.2716L0.104997 98.9001L0.70123 108.435L0.787464 109.83L1.79515 110.411L15.346 118.233L16.3537 118.815L16.2675 117.42L15.6712 107.886L15.5702 106.257C15.5234 105.488 15.0331 104.601 14.4763 104.281Z" fill="#3D3DBF"/>
<path d="M8.60358 107.949C9.01717 107.461 8.80216 106.599 8.12334 106.024C7.44452 105.448 6.55894 105.377 6.14535 105.865C5.73177 106.353 5.94678 107.215 6.62561 107.791C7.30443 108.366 8.19 108.437 8.60358 107.949Z" fill="white"/>
<path d="M23.1186 72.2863C23.1186 72.2863 22.0937 74.1144 22.2908 77.2163C22.4904 79.7614 22.0592 82.5061 22.6924 83.8562C23.3256 85.2089 26.2279 87.7145 30.643 85.5661C34.1022 83.6961 34.5013 79.7614 34.5013 79.7614C34.5013 79.7614 35.5756 79.1504 35.7332 78.601C36.0905 78.0318 36.0116 76.1815 34.0628 77.2163C31.7961 77.0981 26.531 76.662 23.1186 72.2863Z" fill="#FBDFB6"/>
<path d="M31.5954 84.4623H28.1387V87.919H31.5954V84.4623Z" fill="#FBDFB6"/>
<path d="M32.1588 106.927C32.1588 106.927 25.206 108.627 23.8706 108.908C22.5352 109.189 21.5349 110.628 21.4388 111.448C21.3427 112.271 23.3901 113.299 23.8706 113.4C24.351 113.503 24.4791 111.961 26.0412 111.618C27.6032 111.276 34.2136 109.802 34.2136 109.802L32.1588 106.927Z" fill="#FBDFB6"/>
<path d="M24.5384 108.866C24.5384 108.866 22.7201 108.891 22.0229 108.671C21.4414 108.492 21.6558 109.637 23.2597 109.652C24.8661 109.667 24.5384 108.866 24.5384 108.866Z" fill="#FBDFB6"/>
<path d="M38.4592 90.0206C38.0995 89.178 37.3456 88.5769 36.4389 88.4192C35.8254 88.3108 35.1947 88.4167 34.6428 88.7272C33.4306 89.4072 32.992 90.9618 33.5291 92.243C34.7684 95.1971 36.7222 102.187 34.7068 104.478C34.3545 104.875 33.8396 105.114 33.2458 105.242C32.1371 105.478 31.2649 106.333 31.0974 107.457C31.0949 107.477 31.0925 107.494 31.09 107.514C30.8091 109.295 32.3441 110.896 34.1205 110.574C36.0324 110.229 37.5895 109.388 38.7647 108.053C43.5075 102.665 39.3437 92.0853 38.4592 90.0206Z" fill="#FFE98D"/>
<path d="M77.001 100.5L84.001 89L72.9551 82.85L77.001 100.5Z" fill="#009D80"/>
<path d="M122.805 77.4778L24.0797 20.4824L18.168 23.8819L24.0797 38.2978L24.08 0V48.24V48.5233L122.805 105.519L136.804 113.601L140.46 122.522L146.367 119.127V70.8233L146.366 91.0866L122.805 77.4778Z" fill="#267155"/>
<path d="M18.168 51.6398L116.893 108.641V80.8081L18.168 23.8127L18.168 51.6398Z" fill="#64A88F"/>
<path d="M18.168 51.9233L116.893 108.919V80.8081L18.168 23.8127V51.9233Z" fill="#009D80"/>
<path d="M116.895 108.87L140.461 122.474V94.4113L116.895 80.8079L116.895 108.87Z" fill="#009D80"/>
<path d="M24.0488 38.2625L24.6221 38.5934L25.97 43.1733L26.0165 43.2001L27.3644 40.1767L27.9376 40.5077V45.0875L27.4883 44.8281V41.3485L27.4496 41.3261L26.2101 44.0901L25.7763 43.8397L24.5369 39.6445L24.4981 39.6221V43.1017L24.0488 42.8423V38.2625Z" fill="white"/>
<path d="M30.9309 46.8157L30.4274 46.525L31.8838 42.786L32.3796 43.0722L33.8359 48.4929L33.3324 48.2022L32.9334 46.6748L31.3299 45.749L30.9309 46.8157ZM31.481 45.3443L32.7824 46.0956L32.1472 43.6626L32.1162 43.6447L31.481 45.3443Z" fill="white"/>
<path d="M36.1989 49.8571V45.2773L36.6792 45.5546V49.6425L38.5228 50.7069V51.1989L36.1989 49.8571Z" fill="white"/>
<path d="M41.4247 52.8743L40.9211 52.5835L42.3775 48.8445L42.8733 49.1308L44.3296 54.5514L43.8261 54.2607L43.4272 52.7334L41.8236 51.8076L41.4247 52.8743ZM41.9747 51.4028L43.2761 52.1542L42.6409 49.7211L42.6099 49.7033L41.9747 51.4028Z" fill="white"/>
<path d="M47.9165 56.6224L46.6926 55.9157V51.3359L47.9708 52.0738C48.3555 52.296 48.6848 52.5777 48.9585 52.9191C49.2322 53.259 49.442 53.6418 49.5879 54.0674C49.7338 54.4916 49.8067 54.9407 49.8067 55.4148C49.8067 55.8918 49.7331 56.2601 49.5859 56.5195C49.4388 56.7774 49.2244 56.9175 48.943 56.9399C48.6615 56.9608 48.3194 56.8549 47.9165 56.6224ZM47.1729 55.701L47.8856 56.1125C48.3775 56.3965 48.7429 56.4464 48.9817 56.2623C49.2219 56.0775 49.3419 55.7055 49.3419 55.1464C49.3419 54.5918 49.2244 54.0872 48.9895 53.6325C48.7545 53.1778 48.4046 52.8163 47.9398 52.5479L47.1729 52.1051V55.701Z" fill="white"/>
<path d="M52.8378 54.8838V59.4636L52.3575 59.1863V54.6065L52.8378 54.8838Z" fill="white"/>
<path d="M55.546 61.0272V56.4474L57.9397 57.8294V58.3213L56.0263 57.2166V58.7641L57.8157 59.7973V60.2892L56.0263 59.2561V60.8125L57.9707 61.9351V62.4271L55.546 61.0272Z" fill="white"/>
<path d="M63.9145 62.8823L63.0662 62.3926C63.0339 62.122 62.941 61.8708 62.7873 61.6389C62.6337 61.4056 62.442 61.2226 62.2121 61.0899C61.9049 60.9125 61.6583 60.9006 61.4723 61.0542C61.2877 61.207 61.1954 61.5219 61.1954 61.999C61.1954 62.488 61.2884 62.9136 61.4743 63.2759C61.6615 63.6374 61.9055 63.905 62.2063 64.0787C62.4297 64.2076 62.6188 64.2498 62.7738 64.205C62.9287 64.1588 63.0262 64.025 63.0662 63.8036L63.9145 64.2978C63.8848 64.561 63.7983 64.7749 63.6549 64.9396C63.5116 65.1044 63.3167 65.1923 63.0701 65.2035C62.8248 65.2155 62.5323 65.1234 62.1928 64.9274C61.839 64.7231 61.5227 64.448 61.2438 64.1022C60.9662 63.757 60.7467 63.3627 60.5854 62.9192C60.4253 62.4764 60.3452 62.0061 60.3452 61.5081C60.3452 61.0087 60.4266 60.6308 60.5892 60.3743C60.7519 60.1179 60.9727 59.9785 61.2516 59.9562C61.5304 59.9323 61.8442 60.021 62.1928 60.2223C62.4988 60.3989 62.7744 60.6237 63.0197 60.8965C63.2663 61.1686 63.4677 61.4742 63.624 61.8134C63.7815 62.1518 63.8783 62.5081 63.9145 62.8823Z" fill="white"/>
<path d="M69.9057 67.0279C69.9057 67.5273 69.8237 67.9049 69.6598 68.1605C69.4971 68.417 69.2757 68.5567 68.9955 68.5798C68.7153 68.6015 68.3997 68.5109 68.0485 68.3081C67.696 68.1046 67.3797 67.8296 67.0995 67.483C66.8193 67.1363 66.5979 66.7409 66.4352 66.2966C66.2726 65.8509 66.1912 65.3798 66.1912 64.8833C66.1912 64.3839 66.2726 64.006 66.4352 63.7495C66.5979 63.4931 66.8193 63.3541 67.0995 63.3325C67.3797 63.3094 67.696 63.3996 68.0485 63.6031C68.3997 63.8058 68.7153 64.0805 68.9955 64.4271C69.2757 64.7723 69.4971 65.1669 69.6598 65.6112C69.8237 66.0562 69.9057 66.5285 69.9057 67.0279ZM69.0555 66.537C69.0555 66.051 68.9639 65.6276 68.7805 65.2668C68.5972 64.9046 68.3532 64.6355 68.0485 64.4595C67.7438 64.2836 67.4998 64.271 67.3164 64.4215C67.1331 64.5706 67.0414 64.8882 67.0414 65.3742C67.0414 65.8587 67.1331 66.2821 67.3164 66.6444C67.4998 67.0066 67.7438 67.2757 68.0485 67.4517C68.3532 67.6276 68.5972 67.6402 68.7805 67.4897C68.9639 67.3391 69.0555 67.0215 69.0555 66.537Z" fill="white"/>
<path d="M72.2721 70.684V66.1042L73.8369 67.0076C74.2875 67.2678 74.6367 67.6051 74.8846 68.0195C75.1338 68.4347 75.2584 68.8697 75.2584 69.3244C75.2584 69.6374 75.1977 69.87 75.0763 70.0221C74.9563 70.1749 74.7832 70.242 74.5573 70.2233L75.3997 72.4898L74.474 71.9553L73.7226 69.898L73.1106 69.5446V71.1682L72.2721 70.684ZM73.1106 68.7664L73.68 69.0952C74.1564 69.3702 74.3946 69.2804 74.3946 68.8257C74.3946 68.3561 74.1551 67.983 73.6761 67.7064L73.1106 67.3799V68.7664Z" fill="white"/>
<path d="M81.2409 73.5723C81.2409 74.0717 81.1589 74.4492 80.995 74.7049C80.8323 74.9613 80.6109 75.1011 80.3307 75.1242C80.0505 75.1458 79.7348 75.0553 79.3837 74.8525C79.0312 74.649 78.7149 74.374 78.4347 74.0273C78.1545 73.6807 77.9331 73.2853 77.7704 72.841C77.6078 72.3952 77.5264 71.9241 77.5264 71.4277C77.5264 70.9283 77.6078 70.5503 77.7704 70.2939C77.9331 70.0375 78.1545 69.8985 78.4347 69.8769C78.7149 69.8537 79.0312 69.9439 79.3837 70.1474C79.7348 70.3502 80.0505 70.6249 80.3307 70.9715C80.6109 71.3166 80.8323 71.7113 80.995 72.1556C81.1589 72.6006 81.2409 73.0728 81.2409 73.5723ZM80.3907 73.0814C80.3907 72.5954 80.2991 72.172 80.1157 71.8112C79.9324 71.4489 79.6884 71.1798 79.3837 71.0039C79.079 70.828 78.8349 70.8153 78.6516 70.9659C78.4683 71.115 78.3766 71.4325 78.3766 71.9186C78.3766 72.4031 78.4683 72.8265 78.6516 73.1887C78.8349 73.551 79.079 73.8201 79.3837 73.996C79.6884 74.1719 79.9324 74.1846 80.1157 74.034C80.2991 73.8835 80.3907 73.5659 80.3907 73.0814Z" fill="white"/>
<path d="M86.9247 74.5639V79.1437L86.2004 78.7256L84.4749 74.8468L84.4458 74.83V77.7125L83.6072 77.2284V72.6485L84.3432 73.0734L86.0552 76.9421L86.09 76.9623V74.082L86.9247 74.5639Z" fill="white"/>
<path d="M90.0464 80.946L89.1478 80.4272L90.517 76.6379L91.5976 77.2618L92.9649 82.631L92.0663 82.1122L91.7719 80.8979L90.3407 80.0716L90.0464 80.946ZM90.5538 79.4388L91.5608 80.0202L91.0728 78.0053L91.0418 77.9874L90.5538 79.4388Z" fill="white"/>
<path d="M95.414 79.4652L96.3727 83.4983L96.4095 83.5195L97.37 80.5945L98.2996 81.1312L96.9324 84.9216L95.8517 84.2977L94.4825 78.9274L95.414 79.4652Z" fill="white"/>
<path d="M101.361 82.8985V87.4784L100.522 86.9942V82.4144L101.361 82.8985Z" fill="white"/>
<path d="M103.796 88.8843V84.3044L105.361 85.2079C105.811 85.468 106.16 85.8053 106.408 86.2198C106.658 86.635 106.782 87.0699 106.782 87.5246C106.782 87.8377 106.721 88.0703 106.6 88.2223C106.48 88.3751 106.307 88.4422 106.081 88.4236L106.924 90.69L105.998 90.1556L105.246 88.0982L104.634 87.7449V89.3684L103.796 88.8843ZM104.634 86.9667L105.204 87.2954C105.68 87.5705 105.918 87.4806 105.918 87.0259C105.918 86.5563 105.679 86.1832 105.2 85.9067L104.634 85.5802V86.9667Z" fill="white"/>
<path d="M111.576 88.7961L112.408 89.2769V92.3047C112.408 92.6506 112.338 92.9037 112.197 93.0639C112.057 93.2227 111.862 93.2932 111.614 93.2753C111.368 93.2581 111.084 93.1571 110.764 92.9723C110.444 92.7874 110.16 92.5608 109.912 92.2924C109.664 92.0241 109.47 91.7293 109.329 91.408C109.19 91.086 109.12 90.752 109.12 90.4062V87.3783L109.958 87.8624V90.8568C109.958 91.1013 110.035 91.3376 110.187 91.5657C110.341 91.7945 110.533 91.9756 110.764 92.1091C110.999 92.2447 111.193 92.2865 111.345 92.2343C111.499 92.1829 111.576 92.0349 111.576 91.7904V88.7961Z" fill="white"/>
<path d="M116.995 93.2421C116.98 93.0528 116.912 92.8739 116.794 92.7054C116.676 92.5377 116.517 92.3961 116.317 92.2806C116.112 92.162 115.954 92.1195 115.845 92.1531C115.735 92.1866 115.68 92.2772 115.68 92.4248C115.677 92.5873 115.738 92.7468 115.862 92.9034C115.987 93.0591 116.136 93.2097 116.308 93.3551L116.664 93.6592C116.894 93.8515 117.098 94.0558 117.276 94.2719C117.455 94.4889 117.596 94.7162 117.698 94.954C117.801 95.191 117.853 95.437 117.853 95.692C117.852 96.1101 117.715 96.3654 117.444 96.4579C117.175 96.5496 116.797 96.4556 116.313 96.1761C115.832 95.8981 115.448 95.5496 115.161 95.1307C114.874 94.7117 114.726 94.2518 114.716 93.7509L115.527 94.2194C115.541 94.4572 115.619 94.6752 115.761 94.8735C115.905 95.071 116.085 95.2328 116.304 95.3588C116.517 95.4817 116.686 95.5276 116.813 95.4963C116.941 95.4657 117.005 95.3673 117.007 95.2011C117.005 95.0453 116.947 94.8921 116.83 94.7416C116.714 94.591 116.548 94.4236 116.333 94.2395L115.901 93.8649C115.566 93.5794 115.302 93.2802 115.109 92.9671C114.915 92.654 114.819 92.3294 114.82 91.9932C114.819 91.7152 114.883 91.5098 115.012 91.3771C115.142 91.2437 115.321 91.1852 115.548 91.2016C115.776 91.2165 116.034 91.3074 116.323 91.4744C116.617 91.6443 116.874 91.8508 117.094 92.0938C117.315 92.3376 117.486 92.5985 117.609 92.8765C117.732 93.1546 117.795 93.4311 117.799 93.7062L116.995 93.2421Z" fill="white"/>
<path d="M120.588 98.6219C120.482 98.5607 120.391 98.4649 120.315 98.3345C120.239 98.2026 120.201 98.0747 120.201 97.951C120.201 97.8287 120.239 97.7464 120.315 97.7039C120.391 97.6599 120.482 97.6685 120.588 97.7296C120.694 97.7907 120.785 97.8873 120.861 98.0192C120.937 98.1496 120.976 98.276 120.976 98.3982C120.976 98.522 120.937 98.6058 120.861 98.6498C120.785 98.6923 120.694 98.683 120.588 98.6219Z" fill="white"/>
<path d="M123.543 100.285V95.7054L126.002 97.1254V97.7202L124.141 96.6457V98.0411L125.826 99.0139V99.6065L124.141 98.6337V100.631L123.543 100.285Z" fill="white"/>
<path d="M128.483 103.138V98.5578L129.897 99.3741C130.204 99.5515 130.459 99.7598 130.662 99.9991C130.865 100.238 131.017 100.495 131.117 100.769C131.219 101.043 131.27 101.321 131.27 101.602C131.27 101.91 131.21 102.141 131.088 102.296C130.968 102.45 130.786 102.509 130.542 102.472L131.421 104.834L130.74 104.44L129.934 102.242C129.921 102.235 129.908 102.227 129.895 102.22L129.082 101.75V103.483L128.483 103.138ZM129.082 101.155L129.841 101.594C130.133 101.762 130.343 101.812 130.472 101.743C130.603 101.676 130.668 101.513 130.668 101.255C130.668 100.995 130.603 100.753 130.472 100.527C130.342 100.3 130.129 100.1 129.833 99.9298L129.082 99.4959V101.155Z" fill="white"/>
<path d="M101.517 306.578L101.549 306.602L101.48 306.517C101.43 306.448 101.371 306.385 101.318 306.318L89.6267 291.994L89.5842 292.122C88.964 291.557 88.1821 291.157 87.2941 291.014L83.0876 290.335L80.763 288.31C78.9049 286.691 76.0582 286.887 74.4387 288.745C74.391 288.8 74.3592 288.861 74.3141 288.92L61.0345 286.775C58.6013 286.383 56.2873 288.053 55.895 290.486C55.5027 292.92 57.1726 295.233 59.6059 295.626L79.1302 298.777L94.9279 312.542C96.7859 314.161 99.6327 313.965 101.252 312.107C102.631 310.52 102.681 308.227 101.517 306.578Z" fill="#566CD3"/>
<path d="M75.4957 301.409C75.493 301.407 75.493 301.407 75.4902 301.404C75.4902 301.407 75.4902 301.407 75.4957 301.409Z" fill="#F99AB6"/>
<path d="M75.2905 301.21C75.2878 301.213 75.2852 301.218 75.2852 301.221C75.3541 301.282 75.4203 301.343 75.4893 301.404C75.4018 301.338 75.3329 301.274 75.2905 301.21Z" fill="#F99AB6"/>
<path d="M75.4933 301.409C75.4907 301.407 75.4907 301.407 75.488 301.404C75.4218 301.34 75.3528 301.282 75.2839 301.221C74.9818 300.951 74.6637 300.699 74.3589 300.468L62.1078 289.463C60.6075 288.339 58.4632 288.647 57.3393 290.144C56.2154 291.644 56.5229 293.789 58.0205 294.913L71.7772 304.415H71.7745C71.7745 304.415 72.3364 305.133 73.1157 306.156C73.3728 305.934 73.5875 305.799 73.7863 305.698C74.0779 305.552 74.3323 305.502 74.5842 305.499C76.1083 303.575 75.4933 301.409 75.4933 301.409Z" fill="#FBDFB6"/>
<path d="M79.3488 304.685C79.2905 304.012 78.8027 303.463 78.1825 303.002C77.2521 302.31 76.0196 301.815 75.4921 301.409C75.4921 301.409 76.1044 303.575 74.5856 305.504C74.3338 305.504 74.0793 305.557 73.7878 305.703C73.589 305.804 73.3743 305.939 73.1172 306.162C73.7507 306.994 74.5273 308.028 75.2589 309.035C75.2695 309.022 75.2721 309.006 75.288 308.998L75.9931 308.568C76.0806 308.515 76.1972 308.542 76.2502 308.632C76.3032 308.72 76.2767 308.836 76.1866 308.889L75.4815 309.319C75.4762 309.321 75.4709 309.319 75.463 309.321C75.6114 309.525 75.7545 309.727 75.895 309.926C75.9109 309.899 75.9189 309.87 75.948 309.854L76.6531 309.425C76.7406 309.372 76.8572 309.398 76.9102 309.488C76.9632 309.576 76.9367 309.692 76.8466 309.745L76.1415 310.175C76.1203 310.188 76.0991 310.18 76.0753 310.185C76.2131 310.384 76.3483 310.578 76.4755 310.763C76.4888 310.747 76.4914 310.726 76.5126 310.713L77.2177 310.283C77.3051 310.23 77.4218 310.257 77.4748 310.347C77.5278 310.434 77.5013 310.551 77.4112 310.604L76.7061 311.034C76.6929 311.042 76.677 311.036 76.661 311.041C76.7962 311.243 76.9208 311.434 77.0321 311.611C77.0454 311.574 77.0666 311.534 77.1037 311.513L77.8088 311.084C77.8962 311.031 78.0129 311.057 78.0659 311.148C78.1189 311.235 78.0924 311.352 78.0023 311.405L77.2972 311.834C77.2601 311.855 77.2203 311.855 77.1806 311.853C77.3105 312.065 77.4191 312.255 77.5013 312.415C78.4608 314.304 78.763 316.266 79.3408 316.51C79.0651 316.247 79.8312 315.259 80.7244 315.948C81.5488 315.248 82.336 313.909 81.949 311.871C81.3023 308.425 79.5078 306.538 79.3488 304.685Z" fill="#3D3DBF"/>
<path d="M80.7123 306.867C80.1583 305.963 80.153 304.542 79.6653 303.903C79.1855 303.275 78.2207 303.013 78.1836 303.002C78.8038 303.463 79.2916 304.015 79.3499 304.685C79.5089 306.538 81.3034 308.425 81.9554 311.863C82.3424 313.902 81.5552 315.24 80.7308 315.94C79.8376 315.251 79.0716 316.239 79.3472 316.502C79.3737 316.51 79.3976 316.515 79.4214 316.52C82.9441 317.573 84.2296 310.246 80.7123 306.867Z" fill="white"/>
<path d="M75.8849 310.106C75.9273 310.175 76.0042 310.191 76.0758 310.177C76.0148 310.093 75.9565 310.005 75.8929 309.918C75.8637 309.979 75.8478 310.045 75.8849 310.106Z" fill="white"/>
<path d="M76.85 309.74C76.9375 309.687 76.9666 309.57 76.9136 309.483C76.8606 309.396 76.744 309.366 76.6565 309.419L75.9515 309.849C75.9249 309.865 75.9143 309.894 75.8984 309.92C75.9594 310.008 76.0204 310.093 76.0813 310.18C76.1025 310.177 76.1264 310.183 76.1476 310.169L76.85 309.74Z" fill="white"/>
<path d="M75.2248 309.25C75.2751 309.332 75.3785 309.356 75.4633 309.316C75.3944 309.221 75.3281 309.128 75.2592 309.032C75.2036 309.091 75.1797 309.178 75.2248 309.25Z" fill="white"/>
<path d="M76.1875 308.884C76.2749 308.831 76.3041 308.714 76.2511 308.627C76.1981 308.539 76.0814 308.51 75.994 308.563L75.2889 308.993C75.273 309 75.273 309.019 75.2598 309.03C75.3287 309.125 75.3976 309.221 75.4639 309.313C75.4692 309.311 75.4771 309.313 75.4824 309.311L76.1875 308.884Z" fill="white"/>
<path d="M76.4525 310.967C76.4976 311.041 76.585 311.06 76.6646 311.036C76.6036 310.946 76.5426 310.853 76.479 310.758C76.4313 310.819 76.4101 310.896 76.4525 310.967Z" fill="white"/>
<path d="M77.4142 310.599C77.5017 310.546 77.5308 310.429 77.4778 310.342C77.4248 310.254 77.3082 310.225 77.2207 310.278L76.5156 310.707C76.4971 310.718 76.4918 310.739 76.4785 310.758C76.5421 310.853 76.6031 310.943 76.6641 311.036C76.68 311.031 76.6932 311.039 76.7091 311.028L77.4142 310.599Z" fill="white"/>
<path d="M77.0473 311.765C77.0792 311.815 77.1322 311.839 77.1878 311.845C77.1401 311.768 77.0897 311.688 77.0394 311.606C77.0182 311.659 77.0155 311.715 77.0473 311.765Z" fill="white"/>
<path d="M78.0111 311.397C78.0986 311.344 78.1278 311.227 78.0748 311.14C78.0217 311.052 77.9051 311.023 77.8176 311.076L77.1126 311.505C77.0755 311.529 77.0543 311.566 77.041 311.603C77.094 311.686 77.1444 311.768 77.1894 311.842C77.2292 311.847 77.269 311.847 77.3061 311.823L78.0111 311.397Z" fill="white"/>
<path d="M81.4722 303.85C81.398 303.856 81.3052 303.842 81.1992 303.819C81.2893 303.832 81.3795 303.848 81.4696 303.864C81.4696 303.858 81.4722 303.856 81.4722 303.85Z" fill="#F99AB6"/>
<path d="M78.8984 307.827C78.9461 308.044 78.9726 308.298 78.9594 308.638C80.2423 308.608 81.1568 308.6 81.1568 308.6V308.598L79.9295 308.227C79.5319 308.126 79.1927 307.988 78.8984 307.827Z" fill="#FBDFB6"/>
<path d="M98.8769 306.84L82.6366 304.118C82.2682 304.023 81.8706 303.933 81.4704 303.864C81.3802 303.848 81.2901 303.832 81.2 303.819C81.1973 303.819 81.1947 303.819 81.192 303.819C81.192 303.819 79.1166 304.688 78.5547 307.081C78.7111 307.278 78.8303 307.508 78.8966 307.829C79.1908 307.991 79.5301 308.126 79.925 308.229L81.1523 308.6L97.1566 313.435C98.9696 313.907 100.841 312.809 101.313 310.996C101.787 309.181 100.69 307.312 98.8769 306.84Z" fill="#FBDFB6"/>
<path d="M81.1912 303.819C80.5445 303.66 79.3914 303.005 78.2676 302.708C77.5201 302.509 76.7859 302.472 76.2239 302.846C74.676 303.877 72.0837 303.649 68.9878 305.282C67.1509 306.249 66.597 307.696 66.5625 308.781C67.6572 309.051 67.363 310.265 66.9866 310.215C67.5353 310.514 69.2608 309.528 71.3362 309.101C71.5112 309.064 71.7285 309.032 71.975 309.001C71.9459 308.971 71.922 308.94 71.9167 308.897L71.8134 308.078C71.8001 307.975 71.8743 307.882 71.975 307.869C72.0784 307.855 72.1712 307.93 72.1844 308.03L72.2878 308.849C72.2931 308.892 72.2772 308.932 72.256 308.966C72.4654 308.942 72.6933 308.921 72.9346 308.902C72.9293 308.889 72.9133 308.879 72.9133 308.863L72.81 308.044C72.7967 307.94 72.8709 307.848 72.9717 307.834C73.075 307.821 73.1678 307.895 73.1811 307.996L73.2844 308.815C73.2871 308.836 73.2738 308.852 73.2685 308.873C73.4938 308.857 73.7297 308.842 73.9709 308.826C73.9603 308.807 73.9418 308.791 73.9391 308.767L73.8358 307.948C73.8225 307.845 73.8967 307.752 73.9974 307.739C74.1008 307.726 74.1936 307.8 74.2068 307.901L74.3102 308.72C74.3129 308.751 74.297 308.778 74.2864 308.804C74.5276 308.791 74.7767 308.778 75.0285 308.765C75.0259 308.759 75.0206 308.757 75.0206 308.749L74.9172 307.93C74.9039 307.826 74.9782 307.734 75.0789 307.72C75.1823 307.707 75.275 307.781 75.2883 307.882L75.3917 308.701C75.3943 308.717 75.3811 308.73 75.3784 308.746C76.6215 308.69 77.9124 308.653 78.9594 308.632C78.9726 308.293 78.9461 308.041 78.8984 307.821C78.8295 307.5 78.7129 307.27 78.5565 307.074C79.1158 304.688 81.1912 303.819 81.1912 303.819Z" fill="#3D3DBF"/>
<path d="M76.643 302.109C75.8398 302.125 74.7266 303.008 73.6743 303.137C68.8369 302.493 63.9095 308.065 66.9259 310.164C66.9471 310.18 66.9656 310.196 66.9868 310.209C67.3632 310.26 67.6601 309.046 66.5627 308.775C66.5972 307.694 67.1538 306.247 68.988 305.276C72.0839 303.644 74.6789 303.872 76.2242 302.841C76.7861 302.467 77.5203 302.507 78.2678 302.703C78.2386 302.684 77.4302 302.093 76.643 302.109Z" fill="white"/>
<path d="M74.1463 308.932C74.2179 308.924 74.2603 308.871 74.2842 308.807C74.1781 308.812 74.0721 308.82 73.9688 308.826C74.0059 308.892 74.0668 308.94 74.1463 308.932Z" fill="white"/>
<path d="M74.2047 307.901C74.1914 307.797 74.0987 307.726 73.9953 307.739C73.8919 307.752 73.8204 307.845 73.8336 307.948L73.937 308.767C73.9396 308.791 73.9582 308.804 73.9688 308.826C74.0722 308.82 74.1782 308.812 74.2842 308.807C74.2948 308.781 74.3107 308.754 74.3081 308.722L74.2047 307.901Z" fill="white"/>
<path d="M75.2281 308.916C75.3129 308.905 75.3659 308.834 75.3792 308.751C75.2625 308.757 75.1459 308.762 75.0293 308.767C75.0479 308.86 75.1327 308.926 75.2281 308.916Z" fill="white"/>
<path d="M75.2867 307.887C75.2735 307.784 75.1807 307.712 75.0773 307.726C74.974 307.739 74.9024 307.832 74.9156 307.935L75.019 308.754C75.019 308.759 75.027 308.765 75.027 308.77C75.1436 308.765 75.2602 308.759 75.3769 308.754C75.3795 308.738 75.3928 308.725 75.3901 308.709L75.2867 307.887Z" fill="white"/>
<path d="M73.1198 309.024C73.1994 309.014 73.2497 308.95 73.2656 308.873C73.1516 308.881 73.0403 308.892 72.9316 308.9C72.9634 308.977 73.0324 309.035 73.1198 309.024Z" fill="white"/>
<path d="M73.1793 307.993C73.166 307.89 73.0733 307.819 72.9699 307.832C72.8665 307.845 72.795 307.938 72.8082 308.041L72.9116 308.86C72.9142 308.876 72.9275 308.884 72.9328 308.9C73.0415 308.892 73.1528 308.881 73.2668 308.873C73.2721 308.852 73.2853 308.836 73.2827 308.815L73.1793 307.993Z" fill="white"/>
<path d="M72.1237 309.056C72.1821 309.048 72.2245 309.011 72.2536 308.963C72.1582 308.974 72.0628 308.985 71.9727 308.995C72.0151 309.038 72.0654 309.064 72.1237 309.056Z" fill="white"/>
<path d="M72.1852 308.028C72.1719 307.925 72.0791 307.853 71.9758 307.866C71.8724 307.879 71.8008 307.972 71.8141 308.076L71.9174 308.895C71.9227 308.937 71.9493 308.969 71.9758 308.998C72.0632 308.987 72.1587 308.977 72.2567 308.966C72.2779 308.932 72.2938 308.892 72.2885 308.85L72.1852 308.028Z" fill="white"/>
<path d="M81.7959 270.49C81.878 269.507 81.4619 268.555 80.6773 267.951C80.1472 267.54 79.4951 267.325 78.8113 267.341C77.3163 267.378 76.1183 268.637 75.9857 270.124C75.6809 273.557 74.0269 281.19 70.9602 282.357C70.4248 282.558 69.8151 282.526 69.1869 282.349C68.0127 282.017 66.7537 282.391 66.0301 283.374C66.0195 283.393 66.0062 283.406 65.993 283.425C64.832 284.978 65.4867 287.274 67.3368 287.859C69.3301 288.49 71.2306 288.474 73.0224 287.793C80.2453 285.055 81.5997 272.899 81.7959 270.49Z" fill="#FF9FB4"/>
<path d="M76.916 249.988C79.7204 247.525 86.8425 249.192 88.6635 254.422C90.4818 259.652 86.8558 264.065 84.9924 264.698C78.2811 259.042 76.916 249.988 76.916 249.988Z" fill="#3D3DBF"/>
<path d="M77.711 268.592C77.711 268.592 75.617 274.628 75.7787 279.847C75.7999 283.679 75.3679 284.703 74.2891 288.981C74.2891 291.538 85.7689 298.051 90.4922 291.371C88.8674 287.093 87.566 279.961 90.6221 272.322C89.5698 270.906 86.519 269.17 85.0956 268.348C82.4582 266.827 81.4192 267.007 81.4192 267.007L77.711 268.592Z" fill="#FF9FB4"/>
<path d="M81.848 272.489C84.2313 272.198 86.03 270.87 85.8657 269.521C85.7013 268.172 83.636 267.315 81.2528 267.605C78.8695 267.896 77.0708 269.224 77.2351 270.573C77.3995 271.922 79.4648 272.779 81.848 272.489Z" fill="#FBDFB6"/>
<path d="M74.2888 252.744C74.2888 252.744 73.1861 254.711 73.3982 258.048C73.6129 260.786 73.149 263.739 73.8302 265.191C74.5114 266.647 77.6339 269.342 82.3837 267.031C86.1052 265.019 86.5346 260.786 86.5346 260.786C86.5346 260.786 87.6902 260.129 87.8599 259.538C88.2442 258.925 88.1594 256.935 86.0628 258.048C83.8893 251.379 76.3854 249.723 74.2888 252.744Z" fill="#FBDFB6"/>
<path d="M83.4083 265.841H79.6895V269.56H83.4083V265.841Z" fill="#FBDFB6"/>
<path d="M84.3223 254.788C84.3223 254.788 75.0981 258.737 71.6895 249.871C74.4169 249.492 76.4924 248.583 78.2974 248.127C80.0998 247.676 85.6635 248.111 84.3223 254.788Z" fill="#3D3DBF"/>
<path d="M54.943 290.123L54.9375 290.126H54.9458L54.943 290.123Z" fill="white"/>
<path d="M72.3997 300.206L73.611 300.906L73.6137 300.903L72.4024 300.206L56.1515 290.823L54.9455 290.126H54.9375L56.1488 290.823L72.3997 300.206Z" fill="white"/>
<path d="M79.4841 288.856L74.4877 285.972C74.4745 285.964 74.4586 285.964 74.4453 285.956L79.5106 288.88C79.5 288.872 79.4974 288.864 79.4841 288.856Z" fill="#B9B8F1"/>
<path d="M78.9897 294.894L73.3359 291.631L73.4499 293.455L73.7733 298.634L73.7759 298.674L77.9931 296.238L78.8863 295.721C79.3104 295.475 79.3555 295.104 78.9897 294.894Z" fill="#B9B8F1"/>
<path d="M79.5109 288.88L74.4456 285.956C74.0559 285.758 73.4251 285.784 72.9824 286.017L73.0831 287.642L73.2872 290.921L74.5966 291.676C74.9916 291.904 75.6887 291.875 76.1446 291.613L79.373 289.749C79.8157 289.495 79.8687 289.111 79.5109 288.88Z" fill="#B9B8F1"/>
<path d="M73.9022 300.752V300.736L73.6133 300.903L73.9022 300.752Z" fill="white"/>
<path d="M73.5547 298.756L73.4805 298.799L73.4831 298.838L73.772 298.669L73.7694 298.629L73.5547 298.756Z" fill="white"/>
<path d="M86.3689 292.14L72.3896 284.069C72.1749 283.746 71.9205 283.475 71.6501 283.319L55.3993 273.936C55.1581 273.798 54.9434 273.766 54.7658 273.824L54.7605 273.827C54.7181 273.843 54.6756 273.861 54.6385 273.888L54.4238 273.994L54.4265 273.999C54.612 273.914 54.8479 273.936 55.113 274.087L71.3639 283.47C71.3718 283.475 71.3798 283.483 71.3877 283.488C71.7933 283.732 72.1643 284.22 72.4056 284.774C72.5566 285.121 72.6547 285.49 72.6759 285.842L72.6971 286.179L72.7978 287.796L72.9807 290.743L73.0258 291.451L73.1398 293.275L73.4844 298.801L73.5586 298.759L73.7759 298.634L73.4525 293.455L73.3386 291.631L78.9923 294.894C79.3581 295.106 79.313 295.475 78.8889 295.718L77.9957 296.235L73.7786 298.671L73.4897 298.838L73.5135 299.23L73.6169 300.903L73.9058 300.736L75.0111 300.097L84.5559 294.587L86.1861 293.646C86.6128 293.399 86.8222 293.084 86.8169 292.784C86.809 292.543 86.6685 292.312 86.3689 292.14ZM79.374 289.749L76.1456 291.613C75.6896 291.875 74.9925 291.904 74.5976 291.676L73.2882 290.921L73.0841 287.642L72.9834 286.017C73.426 285.781 74.0569 285.755 74.4465 285.956C74.4598 285.964 74.4757 285.964 74.4889 285.972L79.4853 288.856C79.4986 288.864 79.5012 288.874 79.5118 288.88C79.8697 289.11 79.8166 289.495 79.374 289.749Z" fill="white"/>
<path d="M54.9454 290.126L56.1515 290.823L72.4023 300.206L73.611 300.903L73.5076 299.23L73.4838 298.838L73.4811 298.798L73.1366 293.272L73.0226 291.448L72.9775 290.74L72.7946 287.793L72.6939 286.176L72.6727 285.84C72.6515 285.49 72.5508 285.119 72.4023 284.771C72.1611 284.217 71.79 283.73 71.3845 283.486C71.3766 283.48 71.3686 283.473 71.3606 283.467L55.1098 274.084C54.8447 273.93 54.6115 273.912 54.4233 273.997C54.137 274.124 53.97 274.5 54.0045 275.059L54.1264 277.013L54.8394 288.448L54.9428 290.12L54.9454 290.126ZM61.1426 285.802C61.3361 285.018 62.2479 284.75 63.1835 285.203C63.2339 285.227 63.2763 285.259 63.324 285.286C63.5201 285.397 63.6977 285.527 63.8541 285.678C64.3816 286.184 64.6652 286.871 64.5247 287.443C64.3312 288.228 63.4194 288.495 62.4838 288.042C62.0305 287.822 61.6594 287.472 61.4156 287.083C61.3042 286.902 61.2221 286.714 61.1717 286.526C61.1028 286.279 61.0869 286.033 61.1426 285.802Z" fill="#2143AF"/>
<path d="M86.8104 292.784C86.8157 293.084 86.6063 293.399 86.1795 293.646L84.5494 294.587L75.0045 300.097L73.8993 300.736V300.752L73.6103 300.903L73.6077 300.906L72.399 300.206L56.1481 290.823L54.9395 290.123V290.823L56.1481 291.522L72.399 300.906L73.6077 301.605L75.0045 300.8L84.5494 295.289L86.1795 294.348C86.6169 294.096 86.8316 293.77 86.8157 293.465V292.789L86.8104 292.784Z" fill="#2143AF"/>
<path d="M63.8538 285.678C63.6974 285.527 63.5172 285.397 63.3237 285.286C63.276 285.259 63.2336 285.227 63.1832 285.203C62.2502 284.75 61.3357 285.021 61.1422 285.802C61.0866 286.03 61.1051 286.28 61.1714 286.526C61.2244 286.714 61.3039 286.902 61.4153 287.083C61.6591 287.472 62.0302 287.822 62.4835 288.042C63.4165 288.495 64.3309 288.225 64.5244 287.443C64.6649 286.871 64.3786 286.184 63.8538 285.678Z" fill="white"/>
<path d="M85.9269 289.206C85.9269 289.206 78.4469 291.035 77.0103 291.337C75.5737 291.639 74.4975 293.187 74.3941 294.07C74.2908 294.955 76.4934 296.06 77.0103 296.169C77.5272 296.28 77.665 294.621 79.3455 294.253C81.026 293.884 88.1376 292.299 88.1376 292.299L85.9269 289.206Z" fill="#FBDFB6"/>
<path d="M90.5693 271.974C90.1823 271.068 89.3686 270.421 88.3958 270.252C87.7358 270.135 87.0573 270.249 86.4635 270.583C85.1594 271.314 84.6876 272.987 85.2654 274.365C86.5987 277.543 88.7006 285.063 86.5324 287.528C86.1534 287.955 85.5994 288.212 84.9606 288.35C83.7679 288.604 82.8296 289.524 82.6493 290.733C82.6467 290.754 82.644 290.773 82.6413 290.794C82.3392 292.71 83.9905 294.433 85.9016 294.086C87.9585 293.715 89.6336 292.811 90.898 291.374C95.9977 285.577 91.5182 274.198 90.5693 271.974Z" fill="#FF9FB4"/>
</svg>
