<svg width="80" height="80" viewBox="0 0 80 80" fill="none" xmlns="http://www.w3.org/2000/svg">
<path d="M75.6004 39.7217C75.6004 33.4655 71.5848 28.1593 65.994 26.2057C62.4002 15.3057 52.122 7.41211 40.0316 7.41211C27.95 7.41211 17.6812 15.2934 14.0788 26.1809C8.45063 28.1122 4.40039 33.4403 4.40039 39.7217C4.40039 47.6342 10.816 54.0465 18.7252 54.0465V27.9025C21.6252 18.8993 30.078 12.3681 40.0316 12.3681C49.9156 12.3681 58.3188 18.8119 61.2788 27.7185V52.2689C60.2601 54.4189 54.2569 66.3249 46.3228 66.7001C45.7072 65.0251 44.1103 63.8251 42.2228 63.8251C39.8041 63.8251 37.8415 65.7844 37.8415 68.2063C37.8415 70.6251 39.804 72.5876 42.2228 72.5876C44.1259 72.5876 45.729 71.3689 46.3353 69.6751C55.7913 69.3345 62.3569 56.8999 63.8417 53.8063C70.5261 52.597 75.6009 46.7563 75.6009 39.7223L75.6004 39.7217Z" fill="white"/>
</svg>
