<svg width="133" height="250" viewBox="0 0 133 250" fill="none" xmlns="http://www.w3.org/2000/svg">
<path d="M52.06 138.853H0.710938V188.357H52.06V138.853Z" fill="white"/>
<path d="M26.3848 153.676C40.5651 153.676 52.0606 147.04 52.0606 138.853C52.0606 130.667 40.5651 124.031 26.3848 124.031C12.2044 124.031 0.708984 130.667 0.708984 138.853C0.708984 147.04 12.2044 153.676 26.3848 153.676Z" fill="#A4E7E3"/>
<path d="M26.3848 203.179C40.5651 203.179 52.0606 196.543 52.0606 188.357C52.0606 180.17 40.5651 173.534 26.3848 173.534C12.2044 173.534 0.708984 180.17 0.708984 188.357C0.708984 196.543 12.2044 203.179 26.3848 203.179Z" fill="white"/>
<path d="M44.6914 30.2209C44.6914 26.2943 47.0787 24.4918 50.0205 26.1905C52.9648 27.8892 55.3496 32.4487 55.3496 36.3753V95.6129C55.3496 99.5395 52.9648 101.339 50.0205 99.6408C47.0787 97.942 44.6914 93.3851 44.6914 89.4585V30.2209Z" fill="#F7B75D"/>
<path d="M7.29883 11.6361C7.29883 7.70959 9.68614 5.90706 12.6279 7.60579C15.5697 9.30451 17.957 13.864 17.957 17.788V74.0232C17.957 77.9497 15.5722 79.7497 12.6279 78.051C9.68361 76.3523 7.29883 71.7928 7.29883 67.8688V11.6361Z" fill="#F7B75D"/>
<path d="M32.2266 16.1046C32.2266 12.1806 34.6139 10.3781 37.5556 12.0768C40.4999 13.7755 42.8847 18.335 42.8847 22.259V81.4967C42.8847 85.4207 40.4999 87.2232 37.5556 85.5245C34.6113 83.8258 32.2266 79.2663 32.2266 75.3423V16.1046Z" fill="#F7B75D"/>
<path d="M19.7637 4.84128C19.7637 0.917246 22.1485 -0.887809 25.0927 0.813448C28.037 2.51217 30.4218 7.07164 30.4218 10.9957V65.7296C30.4218 69.6536 28.037 71.4586 25.0927 69.7599C22.1485 68.0612 19.7637 63.5017 19.7637 59.5777V4.84128Z" fill="#F7B75D"/>
<path d="M45.4703 138.853C45.4703 138.737 45.4601 138.623 45.4551 138.506V139.175C45.4627 139.068 45.4703 138.962 45.4703 138.853Z" fill="white"/>
<path d="M17.1947 148.511L9.71875 144.22C11.4656 146.025 14.0605 147.517 17.1947 148.511Z" fill="white"/>
<path d="M55.3492 76.8713L7.29883 49.1296V138.853C7.29883 140.803 8.17982 142.633 9.71905 144.223L17.195 148.514C19.9215 149.38 23.0531 149.876 26.3848 149.876C36.7392 149.876 45.1594 145.116 45.4556 139.18V138.511L45.4429 129.777C45.4429 129.777 55.3138 115.544 55.3315 101.788L55.3492 76.8713Z" fill="#F7B75D"/>
<path d="M12.8329 80.37C11.7164 78.9548 11.0278 78.2586 11.0278 78.2586L10.1063 49.1879C10.1063 49.1879 9.524 42.0841 0 36.1069L0.926586 93.2687C0.926586 93.2687 0.501276 99.9471 6.78479 111.213L7.29618 111.509V138.858C7.29618 144.319 14.1746 148.848 23.1999 149.722V127.993V109.362C23.2049 99.7243 19.2505 88.5041 12.8329 80.37Z" fill="#FFC676"/>
<path d="M132.171 185.385H80.8223V234.888H132.171V185.385Z" fill="white"/>
<path d="M106.496 200.207C120.676 200.207 132.172 193.571 132.172 185.385C132.172 177.198 120.676 170.562 106.496 170.562C92.3158 170.562 80.8203 177.198 80.8203 185.385C80.8203 193.571 92.3158 200.207 106.496 200.207Z" fill="#A4E7E3"/>
<path d="M106.496 249.711C120.676 249.711 132.172 243.075 132.172 234.888C132.172 226.702 120.676 220.066 106.496 220.066C92.3158 220.066 80.8203 226.702 80.8203 234.888C80.8203 243.075 92.3158 249.711 106.496 249.711Z" fill="white"/>
<path d="M88.1894 76.7524C88.1894 72.8258 85.8021 71.0233 82.8603 72.722C79.9161 74.4207 77.5312 78.9802 77.5312 82.9067V142.144C77.5312 146.071 79.9161 147.871 82.8603 146.172C85.8021 144.474 88.1894 139.917 88.1894 135.99V76.7524Z" fill="#F7B75D"/>
<path d="M125.582 58.1651C125.582 54.2385 123.195 52.436 120.253 54.1347C117.311 55.8334 114.924 60.3929 114.924 64.3169V120.555C114.924 124.481 117.309 126.281 120.253 124.582C123.197 122.884 125.582 118.324 125.582 114.4V58.1651Z" fill="#F7B75D"/>
<path d="M100.654 62.636C100.654 58.7119 98.2669 56.9094 95.3252 58.6081C92.3809 60.3069 89.9961 64.8663 89.9961 68.7904V128.028C89.9961 131.952 92.3809 133.755 95.3252 132.056C98.2669 130.357 100.654 125.798 100.654 121.874V62.636Z" fill="#F7B75D"/>
<path d="M113.119 51.3702C113.119 47.4462 110.734 45.6411 107.79 47.3424C104.846 49.0411 102.461 53.6006 102.461 57.5246V112.258C102.461 116.183 104.846 117.988 107.79 116.289C110.734 114.59 113.119 110.031 113.119 106.107V51.3702Z" fill="#F7B75D"/>
<path d="M87.4102 185.385C87.4102 185.268 87.4203 185.154 87.4254 185.038V185.706C87.4203 185.6 87.4102 185.494 87.4102 185.385Z" fill="white"/>
<path d="M115.686 195.043L123.161 190.752C121.417 192.557 118.822 194.048 115.686 195.043Z" fill="white"/>
<path d="M77.5312 123.403L125.582 95.6611V185.385C125.582 187.334 124.701 189.164 123.161 190.754L115.685 195.045C112.959 195.911 109.827 196.407 106.496 196.407C96.1413 196.407 87.7211 191.648 87.4249 185.711V185.043L87.4375 176.309C87.4375 176.309 77.5667 162.076 77.549 148.319L77.5312 123.403Z" fill="#F7B75D"/>
<path d="M120.049 126.901C121.165 125.486 121.854 124.79 121.854 124.79L122.775 95.7194C122.775 95.7194 123.358 88.6156 132.882 82.6384L131.955 139.8C131.955 139.8 132.38 146.479 126.097 157.744L125.585 158.041V185.39C125.585 190.851 118.707 195.38 109.682 196.253V174.524V155.894C109.679 146.256 113.634 135.036 120.049 126.901Z" fill="#FFC676"/>
<path d="M38.3485 24.8032C39.78 22.7234 41.4276 20.9948 43.2643 19.6443C44.2637 18.915 45.344 18.3208 46.4514 17.8076C52.5962 14.985 60.2804 15.6063 68.667 20.441C88.6949 32.0013 104.928 63.0222 104.928 89.708C104.928 103.415 100.62 113.288 93.7458 118.109C87.2364 122.674 78.4041 122.728 68.667 117.109C48.6392 105.549 32.4062 74.5284 32.4062 47.8426C32.4198 38.065 34.6076 30.2457 38.3485 24.8032Z" fill="#4DB5AA"/>
<path d="M34.0438 26.2033C35.4753 24.1235 37.1229 22.3949 38.9596 21.0444C39.959 20.3151 41.0393 19.7209 42.1467 19.2077C48.2915 16.3852 55.9757 17.0064 64.3623 21.8412C84.3902 33.4014 100.623 64.4223 100.623 91.1081C100.623 104.816 96.3151 114.688 89.4411 119.509C82.9317 124.074 74.0994 124.128 64.3623 118.51C44.3345 106.949 28.1016 75.9285 28.1016 49.2428C28.1151 39.4652 30.3029 31.6458 34.0438 26.2033Z" fill="#A4E7E3"/>
<path d="M66.5482 53.3133C67.4191 53.8171 68.1279 55.0374 68.1254 56.0449L68.09 68.7867L79.1785 75.1892C80.0545 75.6955 80.7582 76.9132 80.7557 77.9208L80.7304 87.0169C80.7279 88.0169 80.019 88.422 79.1431 87.9157L68.0545 81.5132L68.0191 94.2549C68.0166 95.2675 67.3026 95.6675 66.4317 95.1663L58.5103 90.5941C57.6343 90.0878 56.9255 88.8676 56.928 87.8549L56.9634 75.1132L45.8799 68.7132C45.004 68.2069 44.3002 66.9892 44.3027 65.9892L44.3281 56.893C44.3306 55.8855 45.0394 55.4829 45.9154 55.9893L56.9989 62.3892L57.0343 49.6475C57.0369 48.6399 57.7508 48.2399 58.6267 48.7463L66.5482 53.3133Z" fill="white"/>
</svg>
