<svg id="Calque_1" data-name="Calque 1" xmlns="http://www.w3.org/2000/svg" viewBox="0 0 268.53 225.32"><defs><style>.cls-1{fill:#091494;}.cls-2{fill:#fff;}</style></defs><path class="cls-1" d="M241.93,353.63q1.17-9.81,1.84-19.66H263V317.16a9.21,9.21,0,0,1-2.82,4,5.58,5.58,0,0,0,.69,1.2h-2.56a9.25,9.25,0,0,1-4,.92h-.34a9.25,9.25,0,0,1-3.68-.92h-5.78a398.58,398.58,0,0,0-6.74-90.63l-11.38,2.17a387.66,387.66,0,0,1,.82,140.76h11.77q1.26-7.35,2.24-14.74H263v-6.32Z" transform="translate(-226.3 -151.78)"/><path class="cls-1" d="M428,265.86m-50.47,1.62c0,1.5,8.09,3.41,19.49,4.22v2.49h22.11V271.7c11.4-.81,19.48-2.72,19.48-4.22m-26.11-2.9a5,5,0,0,0,.08.78m-14.07-.61" transform="translate(-226.3 -151.78)"/><path class="cls-1" d="M283.78,252.23a23.94,23.94,0,0,1-16.24-6.34c-3.27,3.39-7.12,8.69-10.6,16.83-4.7,11-8.7,27.28-9.56,51.08a6.84,6.84,0,0,0,6.59,7.09h.25a6.84,6.84,0,0,0,6.84-6.6c.86-23.69,5-38.55,9.18-47.72l2.39.7c-3.42,7.3-6.87,18.61-8.43,35.78a13.33,13.33,0,0,1,25.19,3,13.38,13.38,0,0,1,13.1-10.76,13.22,13.22,0,0,1,6.58,1.75l6.62-36c15.42,3.93,42.52,12.42,42.84,12.52a6.94,6.94,0,0,0,2.05.31,6.83,6.83,0,0,0,5.26-2.46l7.9-9.48a6.84,6.84,0,1,0-10.52-8.76l-5,6c-10.57-3.26-37.11-11.33-47.19-13.18-.25,0-.51-.07-.76-.09l-8.67-1.59A24,24,0,0,1,283.78,252.23Z" transform="translate(-226.3 -151.78)"/><path class="cls-1" d="M287.23,308.65a10.93,10.93,0,0,0-21.86,0v57.52a10.93,10.93,0,0,0,21.86,0Z" transform="translate(-226.3 -151.78)"/><path class="cls-1" d="M291.56,308.65v57.52a10.93,10.93,0,1,0,21.85,0V308.65a10.93,10.93,0,1,0-21.85,0Z" transform="translate(-226.3 -151.78)"/><path class="cls-1" d="M283.78,249.81a21.59,21.59,0,1,0-21.59-21.59A21.59,21.59,0,0,0,283.78,249.81Zm13.5-17.71-.47,3.12c-.15,0-15.34-2.19-22.39,6.79l-2.49-2C280.13,229.62,296.59,232,297.28,232.1Z" transform="translate(-226.3 -151.78)"/><path class="cls-1" d="M413.33,263.81a3,3,0,0,1,2.6-1.14l3.26.29a3.81,3.81,0,0,0-.56,1.65,3.67,3.67,0,0,0,.06,1.05h7.2l0-.15a3.71,3.71,0,0,0-1.21-3.34,3.67,3.67,0,0,0-.45-6.91l-.35-.08a3.67,3.67,0,0,0-4.2,4.53l-3.19-.73a3,3,0,0,1-2.12-1.89c-1.66-4.68-7.8-8.71-13.57-9.74l-.4-.06c-7.37-1.21-11.2,2.92-12.22,9.09-.56,3.67.06,7,2.2,9.28h21A9.77,9.77,0,0,0,413.33,263.81Z" transform="translate(-226.3 -151.78)"/><polygon class="cls-1" points="261.19 224.82 261.19 133.5 268.53 133.5 268.53 126.68 100.88 126.68 100.88 133.5 108.22 133.5 108.22 224.82 124.12 224.82 124.12 148.45 245.29 148.45 245.29 224.82 261.19 224.82"/><polygon class="cls-1" points="235.52 122.42 220.95 122.42 219.53 92.65 236.94 92.65 235.52 122.42"/><polygon class="cls-2" points="221.41 94.55 221.97 104.22 234.46 104.22 234.97 94.55 221.41 94.55"/><path class="cls-1" d="M401.84,181.83a.8.8,0,0,0-.62-.22H397.6a.83.83,0,0,0-.83.77v0a.24.24,0,0,0,0,.12v.59a9.08,9.08,0,0,1,0,1.17,23.39,23.39,0,0,1-.46,3.33,25.4,25.4,0,0,1-18.47,19.3,24.92,24.92,0,0,1-3.55.65c-.78.08-1.49.12-2.19.14h-.45c-.44,0-.91,0-1.38,0a24.11,24.11,0,0,1-3.59-.44,25.22,25.22,0,0,1-6.69-2.34,25.3,25.3,0,0,1-13.53-19.3,26.72,26.72,0,0,1-.19-2.83c0-.73,0-1.5.07-2.28a26,26,0,0,1,.46-3.29,25.29,25.29,0,0,1,22.54-20c.82-.07,1.46-.1,2-.1H372c.67,0,1.35.06,2,.12a22.6,22.6,0,0,1,3.07.51,25.41,25.41,0,0,1,7.17,2.85l-1.54,1.54-.38.38a.75.75,0,0,1-.16.15l-.39.41a.82.82,0,0,0,0,1.17.75.75,0,0,0,.37.2l14.12,3.68A.82.82,0,0,0,397,168a.78.78,0,0,0,.35-.59.77.77,0,0,0,0-.37q-1.83-7-3.66-14a.83.83,0,0,0-.52-.59l-.18,0a.86.86,0,0,0-.73.24l-4.07,4.06a30,30,0,0,0-3.55-2,30.89,30.89,0,0,0-6.79-2.3,27.36,27.36,0,0,0-3.1-.49c-.47-.05-.95-.08-1.41-.11l-.58,0h-2.25a.78.78,0,0,0-.22,0h0l-.59,0c-.46,0-.95.06-1.43.11a27.67,27.67,0,0,0-3.26.53,29.34,29.34,0,0,0-5.5,1.75,30.68,30.68,0,0,0-17.94,21.85,28.57,28.57,0,0,0-.53,3.56c0,.28-.05.58-.06.84l0,.51a.38.38,0,0,1,0,.15v2.55a.69.69,0,0,0,0,.24,30.49,30.49,0,0,0,24,28.46,27.78,27.78,0,0,0,3,.5,31.63,31.63,0,0,0,3.51.2H372c.89,0,1.8-.07,2.73-.16a30.54,30.54,0,0,0,10.64-3.14,30.71,30.71,0,0,0,16-20.24,31.88,31.88,0,0,0,.58-3.63c.07-.62.14-1.36.15-2.12v-.06a.38.38,0,0,0,0-.15v-1.17A.83.83,0,0,0,401.84,181.83Z" transform="translate(-226.3 -151.78)"/><path class="cls-1" d="M371.77,200.14a5.16,5.16,0,0,0-1.18.05.82.82,0,0,0-.58.78v3.56a.8.8,0,0,0,.79.81h1.77a.81.81,0,0,0,.81-.81h0V201a.83.83,0,0,0-.65-.79A5.14,5.14,0,0,0,371.77,200.14Z" transform="translate(-226.3 -151.78)"/><rect class="cls-1" x="143.7" y="7.77" width="3.39" height="5.18" rx="0.81"/><path class="cls-1" d="M349.61,180.75a.8.8,0,0,0-.79.66,12.62,12.62,0,0,0,0,2.13.81.81,0,0,0,.78.58h3.55a.81.81,0,0,0,.81-.81h0v-1.75a.8.8,0,0,0-.8-.81h-3.55Z" transform="translate(-226.3 -151.78)"/><path class="cls-1" d="M393.76,180.75h-3.57a.81.81,0,0,0-.81.81h0v1.75a.83.83,0,0,0,.69.8,13.89,13.89,0,0,0,1.58,0h0a12.9,12.9,0,0,0,2.34-.06.8.8,0,0,0,.59-.7,12.89,12.89,0,0,0-.05-2.06A.8.8,0,0,0,393.76,180.75Z" transform="translate(-226.3 -151.78)"/><path class="cls-1" d="M362.93,176.82a3.27,3.27,0,0,1,1.36,1.17,3,3,0,0,1,.46,1.65,4.08,4.08,0,0,1-.37,1.75,8.14,8.14,0,0,1-1.32,1.91,37.54,37.54,0,0,1-2.77,2.73H365l-.27,2.05h-7.45v-1.9c1.39-1.37,2.4-2.41,3-3.1a9.15,9.15,0,0,0,1.33-1.76,2.94,2.94,0,0,0,.39-1.42,1.5,1.5,0,0,0-.41-1.1,1.45,1.45,0,0,0-1.07-.39,2.09,2.09,0,0,0-1.09.28,4.09,4.09,0,0,0-1,.9l-1.58-1.25a5.34,5.34,0,0,1,1.71-1.46,4.55,4.55,0,0,1,2.23-.52A4.63,4.63,0,0,1,362.93,176.82Z" transform="translate(-226.3 -151.78)"/><path class="cls-1" d="M374.27,183.59v2H373v2.47h-2.61v-2.47h-4.84v-1.76l3.26-7.5,2.27.85-2.76,6.44h2.1l.29-2.71H373v2.68Z" transform="translate(-226.3 -151.78)"/><path class="cls-1" d="M382,188.08v-5h-3.51v5h-2.79V176.33h2.78v4.54H382v-4.54h2.78v11.75Z" transform="translate(-226.3 -151.78)"/></svg>