<svg id="Calque_1" data-name="Calque 1" xmlns="http://www.w3.org/2000/svg" viewBox="0 0 530.58 413.46"><defs><style>.cls-1{fill:#091494;}.cls-2{fill:#2967af;}.cls-3,.cls-4{fill:#fff;}.cls-4{stroke:#2967af;stroke-miterlimit:10;stroke-width:0.64px;}</style></defs><path class="cls-1" d="M585,404.77a19.75,19.75,0,0,1-26,10.29,181.6,181.6,0,0,0-72.59-15c-37,0-67.76,10.92-84.95,18.12a19.63,19.63,0,0,1-18.62-1.83,48.58,48.58,0,0,1-12-6.92c-28.63-25.58-41.72-44.12-56-77.79-10.22-24.54.4-44.59,13.79-51.59s31.78,4,39.43,20.09c7,11.8,15.22,26.79,25.1,41.13a75.31,75.31,0,0,1-22.92-16.82A71.18,71.18,0,0,1,355.49,300a17.18,17.18,0,0,0-31.49-3.8,17,17,0,0,0-1.58,13v.05l.06.17c1.33,4.45,6.79,20.24,21.09,36.53,8.47,9.74,24.79,24.41,50.95,32.44a134.19,134.19,0,0,0,34.33,5.63h.68A17.14,17.14,0,0,0,446.44,364a239.38,239.38,0,0,1,40-3.44,220.93,220.93,0,0,1,88.26,18.25A19.75,19.75,0,0,1,585,404.77Z" transform="translate(-91.25 -83.06)"/><path class="cls-1" d="M219.27,256.35a21.44,21.44,0,0,1,29.78,5.89l118.21,176.5c9.72-2.87,23.22-6.73,38-10.62,14.62-3.83,30.52-7.69,45.54-10.63s29-5.05,41.35-5.1,25.2,2.25,38.13,5.27c38.47,9.12,77.95,26.31,78.56,26.54a21.45,21.45,0,0,1-16,39.8v12.52h-20.6V475.8c-6.53-2.46-14.24-5.23-22.47-7.95-10.21-3.35-21.2-6.58-31.44-8.89s-19.73-3.68-26.22-3.64c-7-.05-19.46,1.58-33.09,4.28-20.57,4-44.37,10.26-62.83,15.45-9.24,2.6-17.16,4.94-22.76,6.63-2.8.83-5,1.51-6.52,2-.89.28-1.49.47-1.85.57v12.29h-20.6V480.37a21.16,21.16,0,0,1-4.1-4.53L213.38,286.12A21.47,21.47,0,0,1,219.27,256.35Z" transform="translate(-91.25 -83.06)"/><path class="cls-1" d="M267.56,248.78A38.63,38.63,0,1,1,314.88,276,38.6,38.6,0,0,1,267.56,248.78Z" transform="translate(-91.25 -83.06)"/><path class="cls-1" d="M429.53,380.62H429c-.6,0-1.17-.07-1.76-.11A131.08,131.08,0,0,1,400,376.39c-24.9-6.57-42.54-19.7-53.81-32.66-15.37-17.51-20-34.16-20.43-35.4a13.74,13.74,0,0,1,26.45-7.43h0a73.49,73.49,0,0,0,15.69,25.87,77.89,77.89,0,0,0,29.24,19.85,102.7,102.7,0,0,0,33,6.54,13.74,13.74,0,0,1,13,11.44,13.3,13.3,0,0,1,.18,2.83A13.73,13.73,0,0,1,429.53,380.62Z" transform="translate(-91.25 -83.06)"/><path class="cls-2" d="M218.19,447.87c-7.75,0-15.36-1.33-22.07-4.75-9.16-4.67-15.48-12.7-18.77-23.85s-6.48-54.29-7.59-69.4a2.53,2.53,0,0,1,5-.37c1.08,14.75,4.23,57.65,7.39,68.34,2.89,9.77,8.35,16.76,16.22,20.78,12.22,6.23,31,5.4,52.77-2.32,45.87-16.25,123.94-81.72,124.66-82.29a2.53,2.53,0,0,1,3.11,4c-3,2.33-79.44,66.54-126.08,83.06C242.87,444.6,230.35,447.87,218.19,447.87Z" transform="translate(-91.25 -83.06)"/><path class="cls-3" d="M218.19,448.87c-8.63,0-16.21-1.64-22.53-4.86-9.41-4.8-15.89-13-19.27-24.45s-6.57-55.19-7.63-69.61a3.53,3.53,0,1,1,7-.52c1,14.23,4.22,57.53,7.35,68.13,2.81,9.5,8.1,16.28,15.71,20.17,12,6.1,30.43,5.26,52-2.37,41.8-14.81,110.57-70.71,123.93-81.77l.45-.37a3.53,3.53,0,0,1,4.95.62,3.53,3.53,0,0,1-.62,4.94l-1.63,1.33c-24.4,20-85.4,68-124.73,81.89C240.34,446.56,228.56,448.87,218.19,448.87ZM172.27,348.16h-.11a1.52,1.52,0,0,0-1.4,1.63c2.83,38.54,5.37,61.82,7.55,69.19,3.21,10.88,9.36,18.7,18.26,23.24,13.42,6.84,33,6,56-2.11,39-13.82,99.81-61.64,124.13-81.55.89-.73,1.46-1.2,1.67-1.36a1.52,1.52,0,0,0,.58-1,1.54,1.54,0,0,0-.31-1.13,1.53,1.53,0,0,0-2.14-.26l-.41.33c-13.4,11.1-82.41,67.2-124.53,82.11-22.08,7.82-41.1,8.62-53.56,2.27-8.13-4.15-13.76-11.34-16.73-21.39-3.19-10.8-6.38-54.26-7.43-68.54A1.52,1.52,0,0,0,172.27,348.16Z" transform="translate(-91.25 -83.06)"/><path class="cls-1" d="M218.19,450.37c-8.87,0-16.67-1.69-23.21-5-9.79-5-16.53-13.52-20-25.36-3.39-11.46-6.62-55.46-7.68-69.92a5,5,0,1,1,10-.74c1,14.19,4.22,57.37,7.3,67.81,2.69,9.09,7.72,15.57,15,19.26,11.59,5.92,29.64,5.05,50.8-2.45,45.53-16.12,123.23-81.34,124-81.9a5,5,0,0,1,7.05.87,5,5,0,0,1-.88,7.06c-3,2.34-79.76,66.8-126.78,83.45C240.68,448,228.73,450.37,218.19,450.37ZM172.31,349.69c2.77,38.43,5.29,61.61,7.44,68.87,3.09,10.47,9,18,17.5,22.33,5.83,3,12.87,4.48,20.94,4.48,10,0,21.36-2.24,33.84-6.66C298.3,422.32,374.42,358.35,377.41,356c-.76.53-79.11,66.24-125.39,82.64-22.47,7.95-41.91,8.73-54.75,2.18-8.5-4.33-14.38-11.84-17.47-22.29C176.89,408.73,174.13,374.54,172.31,349.69Z" transform="translate(-91.25 -83.06)"/><path class="cls-3" d="M218.19,451.37c-9,0-17-1.73-23.66-5.13-10.05-5.13-17-13.86-20.54-26-3.42-11.56-6.66-55.64-7.72-70.12a6,6,0,1,1,12-.89c1,14.18,4.21,57.27,7.26,67.6,2.6,8.81,7.47,15.09,14.45,18.65,11.35,5.79,29.11,4.9,50-2.5,41.48-14.69,109.93-70.37,123.23-81.38l.45-.37a6,6,0,1,1,7.41,9.51c-.21.16-.76.61-1.63,1.32C355,382.14,293.69,430.32,254,444.36,240.91,449,228.84,451.37,218.19,451.37ZM172.26,345.66H172a4,4,0,0,0-3.72,4.31c1.07,14.44,4.29,58.36,7.65,69.72,3.42,11.56,10,19.89,19.52,24.75,14.07,7.17,34.25,6.41,57.94-2,39.35-13.94,100.41-62,124.83-81.94.89-.73,1.46-1.2,1.67-1.36a4,4,0,0,0,.7-5.65,4,4,0,0,0-5.65-.7l-.41.33c-13.34,11-82,66.92-123.83,81.72-21.42,7.59-39.74,8.44-51.59,2.4-7.49-3.82-12.69-10.5-15.46-19.86-3.11-10.54-6.29-53.79-7.33-68A4.06,4.06,0,0,0,172.26,345.66Zm45.93,100.71c-8.23,0-15.43-1.55-21.39-4.59-8.78-4.47-14.84-12.19-18-22.93-2.19-7.42-4.71-30.66-7.48-69.08h0l2-.15h0v0c1.83,24.81,4.58,58.91,7.45,68.63,3,10.19,8.72,17.48,17,21.69,12.59,6.42,31.75,5.63,54-2.24,37.54-13.29,96.89-59.59,119.88-78.21l3.56-2.9,1.68-1.37h0l0,0,1.19,1.61-.27.22-.75.61L372.85,361c-26.24,21.3-83.26,65.44-120.48,78.62C239.77,444.11,228.27,446.37,218.19,446.37Z" transform="translate(-91.25 -83.06)"/><path class="cls-4" d="M375.89,343.18c-1.85-2.22-4.69-2.91-6.33-1.54l-.67.56c-1.64,1.37-1.47,4.29.38,6.5l14.1,16.92c1.85,2.21,4.69,2.9,6.34,1.53l.66-.55c1.64-1.37,1.48-4.29-.37-6.51Z" transform="translate(-91.25 -83.06)"/><rect class="cls-2" x="371.48" y="348.34" width="6.67" height="0.4" transform="translate(-227.51 237.96) rotate(-39.84)"/><rect class="cls-2" x="380.92" y="359.65" width="6.67" height="0.4" transform="translate(-232.56 246.52) rotate(-39.83)"/><rect class="cls-2" x="376.54" y="350.5" width="6.26" height="7.72" transform="matrix(0.77, -0.64, 0.64, 0.77, -230.11, 242.33)"/><rect class="cls-3" x="376.8" y="350.82" width="5.75" height="7.09" transform="translate(-230.11 242.33) rotate(-39.83)"/><path class="cls-2" d="M388.31,360.58a.58.58,0,0,1-.73-.87.58.58,0,0,1,.73.87Z" transform="translate(-91.25 -83.06)"/><path class="cls-2" d="M386.92,361.73a.58.58,0,0,1-.72-.87.58.58,0,0,1,.72.87Z" transform="translate(-91.25 -83.06)"/><path class="cls-2" d="M385.54,362.89a.53.53,0,0,1-.72-.14.54.54,0,0,1,0-.74.58.58,0,0,1,.73.88Z" transform="translate(-91.25 -83.06)"/><path class="cls-2" d="M389.3,364.58a.53.53,0,0,1-.72-.14.47.47,0,1,1,.71-.59A.53.53,0,0,1,389.3,364.58Z" transform="translate(-91.25 -83.06)"/><path class="cls-2" d="M387.91,365.73a.52.52,0,0,1-.71-.14.47.47,0,1,1,.71.14Z" transform="translate(-91.25 -83.06)"/><path class="cls-2" d="M384.16,364a.58.58,0,0,1-.73-.87.58.58,0,0,1,.73.87Z" transform="translate(-91.25 -83.06)"/><path class="cls-2" d="M388.87,362.67a.52.52,0,0,1-.71-.14.47.47,0,1,1,.71.14Z" transform="translate(-91.25 -83.06)"/><path class="cls-2" d="M387.49,363.83a.59.59,0,1,1,0-.73A.53.53,0,0,1,387.49,363.83Z" transform="translate(-91.25 -83.06)"/><path class="cls-2" d="M386.1,365a.59.59,0,0,1-.73-.88.53.53,0,0,1,.72.14A.54.54,0,0,1,386.1,365Z" transform="translate(-91.25 -83.06)"/><path class="cls-2" d="M374.91,344.52a.58.58,0,0,0,.73.87.58.58,0,0,0-.73-.87Z" transform="translate(-91.25 -83.06)"/><path class="cls-2" d="M373.53,345.67a.59.59,0,0,0,.73.88.54.54,0,0,0,0-.74A.53.53,0,0,0,373.53,345.67Z" transform="translate(-91.25 -83.06)"/><path class="cls-2" d="M372.15,346.82a.58.58,0,0,0,.73.88.52.52,0,0,0,0-.73A.51.51,0,0,0,372.15,346.82Z" transform="translate(-91.25 -83.06)"/><path class="cls-2" d="M371.16,342.83a.51.51,0,0,0,0,.73.52.52,0,0,0,.71.14.58.58,0,0,0-.72-.87Z" transform="translate(-91.25 -83.06)"/><path class="cls-2" d="M369.77,344a.53.53,0,0,0,0,.73.47.47,0,1,0,.71-.59A.53.53,0,0,0,369.77,344Z" transform="translate(-91.25 -83.06)"/><path class="cls-2" d="M370.76,348a.58.58,0,0,0,.73.87.58.58,0,0,0-.73-.87Z" transform="translate(-91.25 -83.06)"/><path class="cls-2" d="M373,343.59a.52.52,0,0,0,0,.73.47.47,0,1,0,.71-.59A.52.52,0,0,0,373,343.59Z" transform="translate(-91.25 -83.06)"/><path class="cls-2" d="M371.57,344.74a.59.59,0,1,0,.72.15A.52.52,0,0,0,371.57,344.74Z" transform="translate(-91.25 -83.06)"/><path class="cls-2" d="M370.18,345.9a.53.53,0,0,0,0,.73.52.52,0,0,0,.72.15.58.58,0,0,0-.73-.88Z" transform="translate(-91.25 -83.06)"/><rect class="cls-1" x="59.63" y="56.75" width="46.43" height="60.76" rx="3.09"/><path class="cls-1" d="M181.38,141.24H166.82V124.3c.21-2.55,2-7.39,7.51-7.39a6.66,6.66,0,0,1,5,1.88,7.45,7.45,0,0,1,2,5.07Zm-11.56-3h8.54l-.1-14.4a4.63,4.63,0,0,0-1.11-3,3.75,3.75,0,0,0-2.82-1c-3.86,0-4.44,3.91-4.51,4.59Z" transform="translate(-91.25 -83.06)"/><rect class="cls-1" x="80.05" y="116.37" width="5.59" height="8.38" rx="0.81"/><rect class="cls-1" x="171.3" y="199.75" width="5.59" height="18.2" rx="0.81" transform="translate(291.7 -48.3) rotate(90)"/><path class="cls-1" d="M106.71,481.67a3,3,0,0,1-1.07-5.8l5-1.9a99,99,0,0,1,72.83.68l3.07,1.24a3,3,0,1,1-2.24,5.56l-3.08-1.24a93.15,93.15,0,0,0-68.44-.64l-5,1.9A2.86,2.86,0,0,1,106.71,481.67Z" transform="translate(-91.25 -83.06)"/><path class="cls-1" d="M145.9,129.9a129.8,129.8,0,0,1-48.72-9.52l-4.06-1.64a3,3,0,1,1,2.25-5.56l4.06,1.64a123.58,123.58,0,0,0,90.81.85l6.55-2.51a3,3,0,0,1,2.14,5.6l-6.54,2.51A130,130,0,0,1,145.9,129.9Z" transform="translate(-91.25 -83.06)"/><circle class="cls-1" cx="14.53" cy="403.57" r="9.89"/><circle class="cls-1" cx="95.36" cy="403.57" r="9.89"/><path class="cls-1" d="M148.29,145v50.36a5.21,5.21,0,0,0,1.48,3.62V468.56a3.72,3.72,0,1,1-7.44,0V86.79a3.72,3.72,0,0,1,7.44,0V141.4A5.21,5.21,0,0,0,148.29,145Z" transform="translate(-91.25 -83.06)"/><rect class="cls-1" x="81.82" y="126.76" width="2.36" height="66" rx="0.7"/><rect class="cls-1" x="9.23" y="190.89" width="89.43" height="86.56" rx="8"/><rect class="cls-3" x="19.69" y="203.5" width="67.5" height="23.65" rx="3.96"/><rect class="cls-3" x="17.65" y="235.42" width="30.1" height="2.36" rx="0.7"/><rect class="cls-3" x="17.65" y="242.95" width="30.1" height="2.36" rx="0.7"/><rect class="cls-3" x="17.65" y="250.47" width="30.1" height="2.36" rx="0.7"/><rect class="cls-3" x="64.19" y="64.52" width="36.97" height="23.11" rx="3.1"/></svg>