<svg width="387" height="16" viewBox="0 0 387 16" fill="none" xmlns="http://www.w3.org/2000/svg">
<path d="M0.962536 0.454545V15H2.61026V3.94886H2.75231L7.29776 15H8.88867L13.4341 3.94886H13.5762V15H15.2239V0.454545H13.1216L8.17844 12.5284H8.00799L3.06481 0.454545H0.962536ZM25.3521 15L26.8152 10.8807H32.6958L34.1589 15H36.0055L30.6646 0.454545H28.8464L23.5055 15H25.3521ZM27.3691 9.31818L29.6987 2.75568H29.8123L32.1419 9.31818H27.3691ZM44.2711 15H52.7939V13.4375H46.0325V0.454545H44.2711V15ZM63.0357 15L64.4988 10.8807H70.3794L71.8425 15H73.6891L68.3482 0.454545H66.53L61.1891 15H63.0357ZM65.0527 9.31818L67.3823 2.75568H67.4959L69.8255 9.31818H65.0527ZM86.4434 15C90.8752 15 93.3752 12.2443 93.3752 7.69886C93.3752 3.18182 90.8752 0.454545 86.6422 0.454545H81.9547V15H86.4434ZM83.7161 13.4375V2.01705H86.5286C89.9377 2.01705 91.6706 4.17614 91.6706 7.69886C91.6706 11.25 89.9377 13.4375 86.3297 13.4375H83.7161ZM104.091 0.454545H102.33V15H104.091V0.454545ZM113.623 15H122.515V13.4375H115.384V8.49432H121.947V6.93182H115.384V2.01705H122.401V0.454545H113.623V15ZM143.912 5.54688C143.508 2.1875 140.965 0.255681 137.599 0.255681C133.756 0.255681 130.823 2.96875 130.823 7.72727C130.823 12.4716 133.706 15.1989 137.599 15.1989C141.327 15.1989 143.579 12.7202 143.912 10.0426L140.802 10.0284C140.51 11.5838 139.289 12.4787 137.648 12.4787C135.439 12.4787 133.941 10.8381 133.941 7.72727C133.941 4.7017 135.418 2.97585 137.67 2.97585C139.353 2.97585 140.567 3.94886 140.802 5.54688H143.912ZM165.484 7.72727C165.484 2.96875 162.53 0.255681 158.673 0.255681C154.795 0.255681 151.862 2.96875 151.862 7.72727C151.862 12.4645 154.795 15.1989 158.673 15.1989C162.53 15.1989 165.484 12.4858 165.484 7.72727ZM162.366 7.72727C162.366 10.8097 160.903 12.4787 158.673 12.4787C156.436 12.4787 154.98 10.8097 154.98 7.72727C154.98 4.64489 156.436 2.97585 158.673 2.97585C160.903 2.97585 162.366 4.64489 162.366 7.72727ZM173.762 15H176.838V9.84375H179.082L181.838 15H185.232L182.143 9.34659C183.798 8.63636 184.714 7.1946 184.714 5.20597C184.714 2.31534 182.803 0.454545 179.501 0.454545H173.762V15ZM176.838 7.37216V2.96875H178.911C180.687 2.96875 181.546 3.7571 181.546 5.20597C181.546 6.64773 180.687 7.37216 178.926 7.37216H176.838ZM206.254 7.72727C206.254 2.96875 203.299 0.255681 199.443 0.255681C195.565 0.255681 192.632 2.96875 192.632 7.72727C192.632 12.4645 195.565 15.1989 199.443 15.1989C203.299 15.1989 206.254 12.4858 206.254 7.72727ZM203.136 7.72727C203.136 10.8097 201.673 12.4787 199.443 12.4787C197.205 12.4787 195.749 10.8097 195.749 7.72727C195.749 4.64489 197.205 2.97585 199.443 2.97585C201.673 2.97585 203.136 4.64489 203.136 7.72727ZM226.698 0.454545H223.637V9.60227H223.509L217.231 0.454545H214.532V15H217.607V5.84517H217.714L224.042 15H226.698V0.454545ZM237.746 15L238.825 11.6832H244.074L245.154 15H248.449L243.435 0.454545H239.472L234.45 15H237.746ZM239.607 9.28267L241.396 3.77841H241.51L243.3 9.28267H239.607ZM257.031 0.454545H253.615L258.636 15H262.599L267.613 0.454545H264.204L260.681 11.5057H260.546L257.031 0.454545ZM278.439 0.454545H275.364V15H278.439V0.454545ZM286.969 15H290.045V9.84375H292.289L295.045 15H298.439L295.35 9.34659C297.005 8.63636 297.921 7.1946 297.921 5.20597C297.921 2.31534 296.01 0.454545 292.708 0.454545H286.969V15ZM290.045 7.37216V2.96875H292.118C293.894 2.96875 294.753 3.7571 294.753 5.20597C294.753 6.64773 293.894 7.37216 292.133 7.37216H290.045ZM315.1 0.454545V9.96449C315.1 11.5199 313.843 12.4645 312.124 12.4645C310.427 12.4645 309.17 11.5199 309.17 9.96449V0.454545H306.094V10.071C306.094 13.3665 308.594 15.206 312.124 15.206C315.64 15.206 318.154 13.3665 318.154 10.071V0.454545H315.1ZM334.575 4.63778H337.522C337.48 2.04545 335.349 0.255681 332.11 0.255681C328.921 0.255681 326.585 2.01705 326.599 4.65909C326.592 6.80398 328.105 8.03267 330.562 8.62216L332.146 9.01989C333.73 9.40341 334.61 9.85795 334.617 10.8381C334.61 11.9034 333.602 12.6278 332.039 12.6278C330.441 12.6278 329.291 11.8892 329.191 10.4332H326.215C326.294 13.5795 328.545 15.206 332.075 15.206C335.626 15.206 337.714 13.5085 337.721 10.8452C337.714 8.4233 335.889 7.13778 333.36 6.5696L332.053 6.2571C330.789 5.96591 329.731 5.49716 329.752 4.45312C329.752 3.51562 330.583 2.8267 332.089 2.8267C333.559 2.8267 334.461 3.49432 334.575 4.63778ZM347.352 15.1349C348.126 15.1349 348.773 14.5028 348.773 13.7145C348.773 12.9403 348.126 12.3011 347.352 12.3011C346.571 12.3011 345.932 12.9403 345.932 13.7145C345.932 14.5028 346.571 15.1349 347.352 15.1349ZM357.787 15H359.982V8.65767H366.161V6.77557H359.982V2.34375H366.807V0.454545H357.787V15ZM375.506 15H377.701V9.49574H380.684C380.733 9.49574 380.776 9.49574 380.826 9.49574L383.78 15H386.28L383.056 9.11222C384.839 8.4517 385.726 6.96733 385.726 5.0142C385.726 2.33665 384.064 0.454545 380.691 0.454545H375.506V15ZM377.701 7.60653V2.33665H380.456C382.623 2.33665 383.518 3.36648 383.518 5.0142C383.518 6.65483 382.623 7.60653 380.485 7.60653H377.701Z" fill="#0069CC"/>
</svg>
