<svg width="256" height="42" viewBox="0 0 256 42" fill="none" xmlns="http://www.w3.org/2000/svg">
<path d="M66.9547 0.454545V15H68.6025V3.94886H68.7445L73.29 15H74.8809L79.4263 3.94886H79.5684V15H81.2161V0.454545H79.1138L74.1706 12.5284H74.0002L69.057 0.454545H66.9547ZM91.3443 15L92.8074 10.8807H98.688L100.151 15H101.998L96.6568 0.454545H94.8386L89.4977 15H91.3443ZM93.3613 9.31818L95.6909 2.75568H95.8045L98.1341 9.31818H93.3613ZM110.263 15H118.786V13.4375H112.025V0.454545H110.263V15ZM129.028 15L130.491 10.8807H136.372L137.835 15H139.681L134.34 0.454545H132.522L127.181 15H129.028ZM131.045 9.31818L133.374 2.75568H133.488L135.818 9.31818H131.045ZM152.436 15C156.867 15 159.367 12.2443 159.367 7.69886C159.367 3.18182 156.867 0.454545 152.634 0.454545H147.947V15H152.436ZM149.708 13.4375V2.01705H152.521C155.93 2.01705 157.663 4.17614 157.663 7.69886C157.663 11.25 155.93 13.4375 152.322 13.4375H149.708ZM170.083 0.454545H168.322V15H170.083V0.454545ZM179.615 15H188.507V13.4375H181.376V8.49432H187.939V6.93182H181.376V2.01705H188.393V0.454545H179.615V15ZM13.1058 31.5469C12.701 28.1875 10.1584 26.2557 6.7919 26.2557C2.94957 26.2557 0.0163352 28.9688 0.0163352 33.7273C0.0163352 38.4716 2.89986 41.1989 6.7919 41.1989C10.5206 41.1989 12.772 38.7202 13.1058 36.0426L9.99503 36.0284C9.70384 37.5838 8.48224 38.4787 6.84162 38.4787C4.63281 38.4787 3.13423 36.8381 3.13423 33.7273C3.13423 30.7017 4.61151 28.9759 6.86293 28.9759C8.54616 28.9759 9.76065 29.9489 9.99503 31.5469H13.1058ZM34.6776 33.7273C34.6776 28.9688 31.723 26.2557 27.8665 26.2557C23.9886 26.2557 21.0554 28.9688 21.0554 33.7273C21.0554 38.4645 23.9886 41.1989 27.8665 41.1989C31.723 41.1989 34.6776 38.4858 34.6776 33.7273ZM31.5597 33.7273C31.5597 36.8097 30.0966 38.4787 27.8665 38.4787C25.6293 38.4787 24.1733 36.8097 24.1733 33.7273C24.1733 30.6449 25.6293 28.9759 27.8665 28.9759C30.0966 28.9759 31.5597 30.6449 31.5597 33.7273ZM42.9556 41H46.0309V35.8438H48.2752L51.0309 41H54.4258L51.3363 35.3466C52.9911 34.6364 53.9073 33.1946 53.9073 31.206C53.9073 28.3153 51.9968 26.4545 48.6942 26.4545H42.9556V41ZM46.0309 33.3722V28.9688H48.1048C49.8803 28.9688 50.7397 29.7571 50.7397 31.206C50.7397 32.6477 49.8803 33.3722 48.119 33.3722H46.0309ZM75.4471 33.7273C75.4471 28.9688 72.4925 26.2557 68.636 26.2557C64.7582 26.2557 61.8249 28.9688 61.8249 33.7273C61.8249 38.4645 64.7582 41.1989 68.636 41.1989C72.4925 41.1989 75.4471 38.4858 75.4471 33.7273ZM72.3292 33.7273C72.3292 36.8097 70.8661 38.4787 68.636 38.4787C66.3988 38.4787 64.9428 36.8097 64.9428 33.7273C64.9428 30.6449 66.3988 28.9759 68.636 28.9759C70.8661 28.9759 72.3292 30.6449 72.3292 33.7273ZM95.8913 26.4545H92.8303V35.6023H92.7024L86.424 26.4545H83.7251V41H86.8004V31.8452H86.907L93.2351 41H95.8913V26.4545ZM106.939 41L108.019 37.6832H113.267L114.347 41H117.642L112.628 26.4545H108.665L103.644 41H106.939ZM108.8 35.2827L110.59 29.7784H110.703L112.493 35.2827H108.8ZM126.224 26.4545H122.808L127.829 41H131.792L136.806 26.4545H133.397L129.875 37.5057H129.74L126.224 26.4545ZM147.632 26.4545H144.557V41H147.632V26.4545ZM156.163 41H159.238V35.8438H161.482L164.238 41H167.633L164.543 35.3466C166.198 34.6364 167.114 33.1946 167.114 31.206C167.114 28.3153 165.204 26.4545 161.901 26.4545H156.163V41ZM159.238 33.3722V28.9688H161.312C163.087 28.9688 163.947 29.7571 163.947 31.206C163.947 32.6477 163.087 33.3722 161.326 33.3722H159.238ZM184.293 26.4545V35.9645C184.293 37.5199 183.036 38.4645 181.317 38.4645C179.62 38.4645 178.363 37.5199 178.363 35.9645V26.4545H175.288V36.071C175.288 39.3665 177.788 41.206 181.317 41.206C184.833 41.206 187.347 39.3665 187.347 36.071V26.4545H184.293ZM203.768 30.6378H206.716C206.673 28.0455 204.542 26.2557 201.304 26.2557C198.115 26.2557 195.778 28.017 195.792 30.6591C195.785 32.804 197.298 34.0327 199.755 34.6222L201.339 35.0199C202.923 35.4034 203.804 35.858 203.811 36.8381C203.804 37.9034 202.795 38.6278 201.233 38.6278C199.635 38.6278 198.484 37.8892 198.385 36.4332H195.409C195.487 39.5795 197.738 41.206 201.268 41.206C204.819 41.206 206.907 39.5085 206.914 36.8452C206.907 34.4233 205.082 33.1378 202.554 32.5696L201.247 32.2571C199.983 31.9659 198.924 31.4972 198.946 30.4531C198.946 29.5156 199.777 28.8267 201.282 28.8267C202.752 28.8267 203.654 29.4943 203.768 30.6378ZM216.545 41.1349C217.32 41.1349 217.966 40.5028 217.966 39.7145C217.966 38.9403 217.32 38.3011 216.545 38.3011C215.764 38.3011 215.125 38.9403 215.125 39.7145C215.125 40.5028 215.764 41.1349 216.545 41.1349ZM226.981 41H229.175V34.6577H235.354V32.7756H229.175V28.3438H236.001V26.4545H226.981V41ZM244.7 41H246.894V35.4957H249.877C249.927 35.4957 249.969 35.4957 250.019 35.4957L252.974 41H255.474L252.249 35.1122C254.032 34.4517 254.92 32.9673 254.92 31.0142C254.92 28.3366 253.258 26.4545 249.884 26.4545H244.7V41ZM246.894 33.6065V28.3366H249.65C251.816 28.3366 252.711 29.3665 252.711 31.0142C252.711 32.6548 251.816 33.6065 249.678 33.6065H246.894Z" fill="#0069CC"/>
</svg>
