<svg id="Calque_1" data-name="Calque 1" xmlns="http://www.w3.org/2000/svg" viewBox="0 0 237 237"><defs><style>.cls-1{fill:#091494;}.cls-2{fill:#fff;}</style></defs><rect class="cls-1" width="237" height="237" rx="19.84"/><path class="cls-2" d="M388.4,377l-1.63-.47c-6.28-1.79-23.52-3.76-37.38-5.34-5.57-.63-10.55-1.2-14-1.66-12-1.62-24-8.83-24.48-9.13l-.62-.37V261l2,1.23c.1.06,9.73,6,33.67,8.13a271.18,271.18,0,0,1,41.49,6.76l.95.25Z" transform="translate(-276.67 -189.61)"/><path class="cls-2" d="M394.48,377V277.35l.94-.25a271.48,271.48,0,0,1,41.5-6.76c23.94-2.18,33.57-8.07,33.67-8.13l2-1.23v99l-.62.37c-.5.3-12.52,7.51-24.49,9.13-3.41.46-8.39,1-14,1.67-13.85,1.57-31.09,3.54-37.37,5.33Z" transform="translate(-276.67 -189.61)"/><path class="cls-1" d="M345.71,357.33a13.43,13.43,0,0,1-3.06-.33c-8.12-2.6-12.68-10.8-13.94-13.39H318.14l-.34-.76c-5.61-12.54-.23-24.55,0-25.06l.35-.74h12.73c5-5.46,11.17-11.81,12.79-12.13,1.13-.31,6.16-4.88,6.76-6l.15-.42c2.08-5.58,2.86-10,2.32-13.27l-.35-2.09,2,.67c.34.11,8.3,2.82,10.09,8.17.84,2.53,2.72,11.48-7,23.46,3.31,1.13,10,3.55,12.35,5.37.56.44,1.35.94,2.23,1.51,3.74,2.4,9.38,6,7.79,10.78-1.69,5.07-6.42,7.48-12.34,6.29-4.28-.85-15.17-4.39-16.86-7.34a5.84,5.84,0,0,1,.62-6c.88-1.22,3-3.13,7.15-2.24a28.18,28.18,0,0,1,10.09,4.05l-1.5,2.07a26.28,26.28,0,0,0-9.11-3.62c-2.07-.43-3.65,0-4.57,1.24a3.38,3.38,0,0,0-.46,3.27c.85,1.49,9.49,5,15.14,6.1,4.62.91,8.15-.79,9.42-4.59,1-2.87-3.68-5.85-6.75-7.82-1-.61-1.81-1.16-2.42-1.64-2.22-1.73-10.4-4.59-13.37-5.55l-1.85-.6,1.28-1.46c10.23-11.69,8.52-20.13,7.75-22.44-.87-2.61-4.21-4.67-6.61-5.79.06,3.36-.83,7.52-2.65,12.41l-.15.43c-.45,1.35-6.54,7.14-8.65,7.56-1,.48-6.82,6.38-11.78,11.78l-.38.41H319.83c-1,2.65-3.91,11.92,0,21.44h10.56l.33.78c.05.1,4.38,10.05,12.65,12.71h0a11.82,11.82,0,0,0,4.78,0l.55,2.5A13.5,13.5,0,0,1,345.71,357.33Z" transform="translate(-276.67 -189.61)"/><path class="cls-1" d="M366.19,347.46h-2.11c-2.17,0-6.92-1.88-15-5.9a6.11,6.11,0,0,1-3.25-6.83c.41-2.06,3.32-3.66,4.2-4.1l1.15,2.29c-1.39.7-2.74,1.8-2.84,2.31a3.62,3.62,0,0,0,1.88,4c9.79,4.9,12.86,5.63,13.82,5.63H365c2.42,0,7.51.07,8.59-1.64a4.55,4.55,0,0,0,0-4.14l2.24-1.25c.08.15,1.94,3.58,0,6.74C374.1,347.21,369.66,347.46,366.19,347.46Z" transform="translate(-276.67 -189.61)"/><path class="cls-1" d="M363.12,353.84c-3.82,0-9.21-2.54-13.14-4.4l-1.78-.83c-4.28-1.94-4.92-5.17-4.92-6.92,0-2.2,2.64-4,3.17-4.29l1.36,2.17c-.93.58-2,1.61-2,2.12,0,1.39.6,3.31,3.42,4.59l1.81.85c3.51,1.65,8.81,4.15,12.05,4.15,4.11,0,5.05-.34,5.62-1.3a17.66,17.66,0,0,0,1.45-4.39l2.51.51a20.28,20.28,0,0,1-1.76,5.2C369.52,353.67,366.92,353.84,363.12,353.84Z" transform="translate(-276.67 -189.61)"/><path class="cls-1" d="M361.26,359.25a41.66,41.66,0,0,1-8.11-1.47l-.56-.13a15.46,15.46,0,0,1-8.06-4.77,13.48,13.48,0,0,0-1.67-1.51,3.06,3.06,0,0,1-1.31-2.21c-.24-2.21,1.83-4.56,2.07-4.82l1.89,1.72a5.2,5.2,0,0,0-1.42,2.82.52.52,0,0,0,.26.4,17.28,17.28,0,0,1,2,1.78,13.11,13.11,0,0,0,6.83,4.1l.57.13c3.4.8,7.63,1.79,8.39,1.27l.41-.53a2.2,2.2,0,0,0,.6-2.33l2.53-.36a4.58,4.58,0,0,1-1.13,4.29l-.39.5A3.32,3.32,0,0,1,361.26,359.25Z" transform="translate(-276.67 -189.61)"/><path class="cls-1" d="M404.08,297.85s21.43-5.44,25.27-5.44,26.88-4.8,28.16-5.76v-8s-16,5.44-27.84,7.36-24,3.84-25.59,4.48Z" transform="translate(-276.67 -189.61)"/><path class="cls-1" d="M404.08,311.29s21.43-5.44,25.27-5.44,26.88-4.8,28.16-5.76v-8s-16,5.44-27.84,7.36-24,3.84-25.59,4.48Z" transform="translate(-276.67 -189.61)"/><path class="cls-1" d="M404.08,324.41S425.51,319,429.35,319s26.88-4.8,28.16-5.76v-8s-16,5.44-27.84,7.36-24,3.84-25.59,4.48Z" transform="translate(-276.67 -189.61)"/><path class="cls-1" d="M404.08,351.92s21.43-5.44,25.27-5.44,26.88-4.79,28.16-5.75v-8s-16,5.44-27.84,7.36-24,3.84-25.59,4.48Z" transform="translate(-276.67 -189.61)"/><path class="cls-1" d="M404.08,365.36s21.43-5.44,25.27-5.44,26.88-4.8,28.16-5.76v-8s-16,5.44-27.84,7.36-24,3.84-25.59,4.48Z" transform="translate(-276.67 -189.61)"/><path class="cls-2" d="M392.8,216.38c-17,0-30.78,17.21-30.78,38.43a47.14,47.14,0,0,0,1.56,12.1l.56.12s24.26,3.3,28.42,5.22c0,0,25.6-5.06,28.8-5.06L422,267a47.21,47.21,0,0,0,1.59-12.23C423.58,233.59,409.8,216.38,392.8,216.38Zm-13.86,34.56c-2.05-.43-3.19-3.27-2.55-6.35s2.81-5.23,4.86-4.81,3.19,3.27,2.55,6.35S381,251.36,378.94,250.94Zm11.7,16.51c-7-1.7-9.6-9.81-9.6-9.81s4.69,4.91,10.24,5.76a23.75,23.75,0,0,0,10.66-1.07S397.68,269.16,390.64,267.45Zm19-17.69c-.64,3.08-2.82,5.23-4.86,4.81s-3.19-3.27-2.55-6.34,2.82-5.24,4.86-4.81S410.26,246.68,409.62,249.76Z" transform="translate(-276.67 -189.61)"/></svg>