<svg id="Calque_1" data-name="Calque 1" xmlns="http://www.w3.org/2000/svg" xmlns:xlink="http://www.w3.org/1999/xlink" viewBox="0 0 82.9 105.81"><defs><style>.cls-1{fill:#091494;}.cls-2{fill:#fff;}.cls-3{fill:url(#Dégradé_sans_nom_33);}</style><radialGradient id="Dégradé_sans_nom_33" cx="580.12" cy="198.94" r="5.29" gradientTransform="translate(-981.79 -177.14) scale(1.76 1.19)" gradientUnits="userSpaceOnUse"><stop offset="0" stop-color="#e40523"/><stop offset="1" stop-color="#091494"/></radialGradient></defs><path class="cls-1" d="M615.51,220.62c-.07-.39-.15-.84-.25-1.34-1-5.15-3.6-15.65-11.19-18.32a5.93,5.93,0,0,0-2.56-.58h-.21c-.12,0-.24,0-.37,0a6.51,6.51,0,0,0-1,0H571.07a.06.06,0,0,0,0,0c-.45-.21-2.22.16-2.66-.08h-4.24a5.84,5.84,0,0,0-.73,0c-9.09,0-15.1,3.87-18.93,12.35a42.24,42.24,0,0,0-2.15,6h0a79.16,79.16,0,0,0-1.84,8.62,8,8,0,0,0,3.3,8.09,7.46,7.46,0,0,0,4.86,1.48c5,0,14.92-2.94,36.72-15.77a6,6,0,0,0,.91-.65s5.46-3.89,2-9.52-11.54.16-11.54.16a203.65,203.65,0,0,1-21.87,11.05,27.28,27.28,0,0,1,1.86-5,8.67,8.67,0,0,1,.48,1.52c5.13-2.32,11.71-5.72,17.86-9.23a2,2,0,0,1-.35-.45l.35.45s4.29-2.13,5.14-2.6,7.6-3.19,10.69,3.66S588,222,588,222a9.31,9.31,0,0,1-1.42,1c-12.88,7.57-22.8,12.42-30,14.64v7.18h45.89c0-10.26-.37-17.16-1.24-21.73l1.49-.57a131.56,131.56,0,0,1,1.91,22.3h13A148.11,148.11,0,0,0,615.51,220.62Z" transform="translate(-540.39 -139.01)"/><path class="cls-2" d="M598.53,209.55c.64-1.86-.86-3.87-.92-4l-.48.36s1.36,1.83.82,3.39c-.32.93-1.26,1.6-2.79,2l.15.59C597.05,211.48,598.14,210.68,598.53,209.55Z" transform="translate(-540.39 -139.01)"/><path class="cls-2" d="M604.87,208.54l-.28-.53c-1.43.74-2.6.86-3.47.38-1.46-.82-1.66-3.14-1.66-3.17l-.6.05c0,.11.22,2.67,2,3.65a3,3,0,0,0,1.46.36A5.64,5.64,0,0,0,604.87,208.54Z" transform="translate(-540.39 -139.01)"/><path class="cls-2" d="M603.19,215.77s-1.52-2.05-.91-3.6c.35-.88,1.33-1.47,2.92-1.75l-.1-.59c-1.82.32-3,1-3.38,2.12-.74,1.87.91,4.09,1,4.19Z" transform="translate(-540.39 -139.01)"/><path class="cls-2" d="M599.25,213.16c1.46.78,1.6,3.31,1.6,3.34l.61,0c0-.12-.16-2.89-1.92-3.85-1-.56-2.41-.35-4,.62l.31.52C597.24,212.9,598.4,212.7,599.25,213.16Z" transform="translate(-540.39 -139.01)"/><path class="cls-1" d="M551.81,190.11c.74-2.14-1-4.44-1-4.54l-.56.42s1.57,2.1.95,3.9c-.37,1.06-1.45,1.84-3.21,2.3l.18.67C550.12,192.34,551.36,191.41,551.81,190.11Z" transform="translate(-540.39 -139.01)"/><path class="cls-1" d="M559.1,189l-.31-.62c-1.65.85-3,1-4,.44-1.69-.94-1.91-3.61-1.91-3.64l-.7.06c0,.12.25,3.06,2.26,4.19a3.44,3.44,0,0,0,1.69.42A6.53,6.53,0,0,0,559.1,189Z" transform="translate(-540.39 -139.01)"/><path class="cls-1" d="M557.17,197.27s-1.75-2.35-1-4.14c.4-1,1.53-1.69,3.35-2l-.12-.68c-2.08.36-3.39,1.19-3.88,2.44-.85,2.15,1,4.7,1.13,4.81Z" transform="translate(-540.39 -139.01)"/><path class="cls-1" d="M552.64,194.26c1.68.91,1.84,3.82,1.84,3.85l.7,0c0-.13-.18-3.33-2.21-4.42-1.2-.65-2.76-.41-4.64.71l.35.59C550.34,194,551.67,193.74,552.64,194.26Z" transform="translate(-540.39 -139.01)"/><path class="cls-1" d="M623.18,150.76c-1.24-7.21-14.87-3.95-18.27,3.77C616.53,152.83,624.35,157.54,623.18,150.76Z" transform="translate(-540.39 -139.01)"/><path class="cls-1" d="M603.28,139.66c-4.82-3.22-10.37,6.39-7.8,12.55C600.84,144.6,607.81,142.68,603.28,139.66Z" transform="translate(-540.39 -139.01)"/><path class="cls-1" d="M603.72,166.77c8.13.33,12.85,4.54,12.92-.23C616.72,161.48,607,162,603.72,166.77Z" transform="translate(-540.39 -139.01)"/><path class="cls-1" d="M579.33,197.5a20.5,20.5,0,1,0-20.5-20.5A20.5,20.5,0,0,0,579.33,197.5Zm0-19.38c3.2,0,5.79,3.22,5.79,7.19s-2.59,7.18-5.79,7.18-5.8-3.21-5.8-7.18S576.13,178.12,579.33,178.12Z" transform="translate(-540.39 -139.01)"/><path class="cls-1" d="M569.81,194.38s2.16,3.87-5.16,5.74,31.61.45,31.61.45-8.17-.56-7.31-5.63S569.81,194.38,569.81,194.38Z" transform="translate(-540.39 -139.01)"/><ellipse class="cls-3" cx="39.1" cy="59.56" rx="9.54" ry="7.45"/><ellipse class="cls-2" cx="38.98" cy="46.31" rx="5.8" ry="7.19"/></svg>