<svg id="Calque_1" data-name="Calque 1" xmlns="http://www.w3.org/2000/svg" xmlns:xlink="http://www.w3.org/1999/xlink" viewBox="0 0 185.44 211.7"><defs><style>.cls-1{fill:url(#Dégradé_sans_nom_22);}.cls-2,.cls-3{fill:#091494;}.cls-3{font-size:15.73px;font-family:FiraSans-SemiBold, Fira Sans;font-weight:600;}.cls-4{letter-spacing:-0.03em;}</style><radialGradient id="Dégradé_sans_nom_22" cx="392.98" cy="342.81" r="38.51" gradientUnits="userSpaceOnUse"><stop offset="0" stop-color="#e20613"/><stop offset="1" stop-color="#091494"/></radialGradient></defs><path class="cls-1" d="M400.92,339.08a10.29,10.29,0,0,1-9.51,14.21,10,10,0,0,1-2.71-.37,167.54,167.54,0,0,1-19.26-6.68c-1.9-.81-3.91-1.71-5.92-2.72V347a8.49,8.49,0,0,0-.14.88l-8.5,81.5a12.25,12.25,0,0,0,10.91,13.46c.43,0,.86.07,1.29.07a12.26,12.26,0,0,0,12.17-11l7.83-75.14h7L401.88,432a12.25,12.25,0,0,0,12.17,11c.42,0,.85,0,1.28-.07a12.26,12.26,0,0,0,10.92-13.46l-8.5-81.5c0-.3-.09-.59-.14-.88V337A87.88,87.88,0,0,1,400.92,339.08Z" transform="translate(-334.77 -231.24)"/><path class="cls-1" d="M390.56,296.41A24.83,24.83,0,0,1,366,274.64c-5,2.93-10.76,10.65-14.74,29.49-1.07,5.05-2,10.88-2.76,17.64-1.24,11.19,11.9,18.11,21.89,22.35a168,168,0,0,0,19,6.59,8,8,0,1,0,4.2-15.44c-12.82-3.49-26.14-9.42-29-12.83A163.65,163.65,0,0,1,367.16,306l2.29.26c-.91,4.07-1.8,9.13-2.56,15.39,2.31,1.95,8.19,4.9,15.45,7.63,0-.18,0-.35,0-.53a10.16,10.16,0,0,1,10.22-9.95h.22l2.3,0c8.53,0,16.38-1,20.26-2.21-.69-4.81-1.46-8.76-2.25-12l2.17-.37a131.46,131.46,0,0,1,2.5,13.82c-4,1.82-15,3.16-25,2.92a8,8,0,0,0-8.2,7.8,8.08,8.08,0,0,0,.09,1.31c3,1.08,6.23,2.1,9.49,3a10.22,10.22,0,0,1,5.61,3.87c10.31-.32,24.82-2,30.89-8.71a12.55,12.55,0,0,0,3.28-10A157.12,157.12,0,0,0,431,301.5c-2.92-12.65-7.15-21-12.79-25.36a16.77,16.77,0,0,0-3-1.86A24.85,24.85,0,0,1,390.56,296.41Z" transform="translate(-334.77 -231.24)"/><path class="cls-2" d="M415.24,304.21a131.46,131.46,0,0,1,2.5,13.82c-4,1.82-15,3.16-25,2.92a8,8,0,0,0-8.2,7.8,8.08,8.08,0,0,0,.09,1.31c3,1.08,6.23,2.1,9.49,3a10.22,10.22,0,0,1,5.61,3.87c10.31-.32,24.82-2,30.89-8.71a12.55,12.55,0,0,0,3.28-10A157.12,157.12,0,0,0,431,301.5" transform="translate(-334.77 -231.24)"/><path class="cls-2" d="M351.21,304.13c-1.07,5.05-2,10.88-2.76,17.64-1.24,11.19,11.9,18.11,21.89,22.35a168,168,0,0,0,19,6.59,8,8,0,1,0,4.2-15.44c-12.82-3.49-26.14-9.42-29-12.83A163.65,163.65,0,0,1,367.16,306" transform="translate(-334.77 -231.24)"/><circle class="cls-2" cx="55.79" cy="40.37" r="22.5"/><path class="cls-2" d="M360.5,247.74c-3.63-8.21-18.12-11.68-19.44-4C339.82,250.94,348.13,245.93,360.5,247.74Z" transform="translate(-334.77 -231.24)"/><path class="cls-2" d="M370.52,245.28c2.74-6.56-3.16-16.78-8.29-13.36C357.41,235.14,364.82,237.18,370.52,245.28Z" transform="translate(-334.77 -231.24)"/><path class="cls-2" d="M361.76,260.76c-3.52-5.13-13.83-5.63-13.74-.24C348.1,265.59,353.11,261.11,361.76,260.76Z" transform="translate(-334.77 -231.24)"/><path class="cls-2" d="M344,333.54a1,1,0,0,0,.37.07,1,1,0,0,0,.37-1.93,5.77,5.77,0,0,1-2.84-2.79,5.5,5.5,0,0,1,.37-4.36,1,1,0,0,0-1.82-.82,7.36,7.36,0,0,0-.4,5.92A7.69,7.69,0,0,0,344,333.54Z" transform="translate(-334.77 -231.24)"/><path class="cls-2" d="M340.68,337a1.06,1.06,0,0,0,.42.09,1,1,0,0,0,.42-1.9,9.26,9.26,0,0,1-4.35-4.78c-.74-2.13-.44-4.56.89-7.22a1,1,0,1,0-1.79-.89c-1.58,3.16-1.91,6.11-1,8.77A11.23,11.23,0,0,0,340.68,337Z" transform="translate(-334.77 -231.24)"/><path class="cls-2" d="M401.16,242a7.62,7.62,0,0,0-5.31,1.62,1,1,0,1,0,1.28,1.54A5.7,5.7,0,0,1,401,244a5.45,5.45,0,0,1,3.64,2.38,1,1,0,0,0,.8.4,1,1,0,0,0,.6-.21,1,1,0,0,0,.19-1.4A7.34,7.34,0,0,0,401.16,242Z" transform="translate(-334.77 -231.24)"/><path class="cls-2" d="M395.6,240.66a9.23,9.23,0,0,1,6.27-1.56c2.22.35,4.22,1.76,5.93,4.19a1,1,0,0,0,.82.43,1,1,0,0,0,.58-.18,1,1,0,0,0,.24-1.4c-2-2.89-4.48-4.58-7.26-5a11.18,11.18,0,0,0-7.78,1.94,1,1,0,0,0,1.2,1.6Z" transform="translate(-334.77 -231.24)"/><path class="cls-2" d="M481.15,305.82a39.05,39.05,0,0,0-38.9,35.64L424.55,344l17.91,6.24a39.06,39.06,0,1,0,38.69-44.37Zm-.06,73.86A34.65,34.65,0,1,1,515.74,345,34.65,34.65,0,0,1,481.09,379.68Z" transform="translate(-334.77 -231.24)"/><path class="cls-2" d="M486,342.24a2.5,2.5,0,0,0,1.72-.15,36.3,36.3,0,0,0,10.71-9c2.68-3.6,8-4.75,8.08-6.61s-14.94-3-18-2.67c-1.27.15-2.4.31-3.4.41A67,67,0,0,0,486,342.24Z" transform="translate(-334.77 -231.24)"/><path class="cls-2" d="M461.45,353c7.61-7.21,19.43-6.06,20.88-9.66a3.4,3.4,0,0,1,.07.34h0v0a2.37,2.37,0,0,1-.5,1.65,1.15,1.15,0,0,0,.22,1.62,1.1,1.1,0,0,0,.69.23,1.15,1.15,0,0,0,.92-.45,4.58,4.58,0,0,0,1-3.14,2.6,2.6,0,0,0,0-.34c-2.23-12.05-.93-20-.92-20.09a.75.75,0,0,0,0-.21,1.15,1.15,0,0,0-2.29-.18c0,.07-.08.48-.16,1.19-2.06-.67-7.95-2.72-13.12-1.64-5.57,1.16-11.38,4.53-11.38,18.13S457.76,356.52,461.45,353Z" transform="translate(-334.77 -231.24)"/><text class="cls-3" transform="translate(134.12 135.66)"><tspan class="cls-4">F</tspan><tspan x="7.13" y="0">oie</tspan></text></svg>