<svg id="Calque_1" data-name="Calque 1" xmlns="http://www.w3.org/2000/svg" viewBox="0 0 100.01 237.18"><defs><style>.cls-1{fill:#091494;}</style></defs><path class="cls-1" d="M369.14,334.21l.48,0a8,8,0,0,0,7.52-8.45c-2.06-35.14,1.92-53.87,6.39-63.17v150a12.37,12.37,0,1,0,24.73,0V322.33h4.64V412.6a12.36,12.36,0,1,0,24.72,0v-150c4.18,8.52,8.55,26.33,6.4,63.1a8,8,0,0,0,7.52,8.45l.47,0a8,8,0,0,0,8-7.53c2.47-42.25-2.81-69.82-15.7-81.93-5.62-5.27-11.1-6.18-13.91-6.24l-.48,0H391.26l-.48,0c-2.81.06-8.3,1-13.91,6.24-12.89,12.11-18.18,39.68-15.71,81.93A8,8,0,0,0,369.14,334.21Zm33.92-79a3.34,3.34,0,0,1,2.62,2.13c.2.52.57,4.29.94,8.69,1.27-.89,2.35-2.08,2.47-3.08.27-2.27.42-10.78.42-10.87l1.07,0,1.07,0c0,.09.14,8.6.42,10.87.12,1,1.19,2.19,2.46,3.08a86.35,86.35,0,0,1,1-8.69,3.33,3.33,0,0,1,2.61-2.13c2.18-.56,10.87,7.4,12.85,17.56,2.49,12.87,3.21,19.58,1.18,19.58s-8.08-4.58-12-5.48-6.78-3-6.66-5.93c.06-1.46.45-7.1.89-12.51a10.1,10.1,0,0,1-3.76-3.45,10.17,10.17,0,0,1-3.76,3.45c.43,5.41.82,11.05.88,12.51.12,2.91-2.73,5-6.66,5.93s-10,5.48-12,5.48-1.31-6.71,1.19-19.58C392.19,262.57,400.88,254.61,403.06,255.17Z" transform="translate(-360.57 -187.78)"/><circle class="cls-1" cx="50.01" cy="22.5" r="22.5"/></svg>