<svg id="Calque_1" data-name="Calque 1" xmlns="http://www.w3.org/2000/svg" xmlns:xlink="http://www.w3.org/1999/xlink" viewBox="0 0 198.08 211.7"><defs><style>.cls-1,.cls-3{fill:#091494;}.cls-2{fill:url(#Dégradé_sans_nom_3);}.cls-3{font-size:15.73px;font-family:FiraSans-SemiBold, Fira Sans;font-weight:600;}.cls-4{letter-spacing:-0.02em;}</style><radialGradient id="Dégradé_sans_nom_3" cx="392.5" cy="306.07" r="38.51" gradientUnits="userSpaceOnUse"><stop offset="0" stop-color="#e20613"/><stop offset="0.14" stop-color="#af0931"/><stop offset="0.46" stop-color="#31117c"/><stop offset="0.56" stop-color="#091494"/></radialGradient></defs><path class="cls-1" d="M400.92,339.08a10.29,10.29,0,0,1-9.51,14.21,10,10,0,0,1-2.71-.37,167.54,167.54,0,0,1-19.26-6.68c-1.9-.81-3.91-1.71-5.92-2.72V347a8.49,8.49,0,0,0-.14.88l-8.5,81.5a12.25,12.25,0,0,0,10.91,13.46c.43,0,.86.07,1.29.07a12.26,12.26,0,0,0,12.17-11l7.83-75.14h7L401.88,432a12.25,12.25,0,0,0,12.17,11c.42,0,.85,0,1.28-.07a12.26,12.26,0,0,0,10.92-13.46l-8.5-81.5c0-.3-.09-.59-.14-.88V337A87.88,87.88,0,0,1,400.92,339.08Z" transform="translate(-334.77 -231.24)"/><path class="cls-2" d="M390.56,296.41A24.83,24.83,0,0,1,366,274.64c-5,2.93-10.76,10.65-14.74,29.49-1.07,5.05-2,10.88-2.76,17.64-1.24,11.19,11.9,18.11,21.89,22.35a168,168,0,0,0,19,6.59,8,8,0,1,0,4.2-15.44c-12.82-3.49-26.14-9.42-29-12.83A163.65,163.65,0,0,1,367.16,306l2.29.26c-.91,4.07-1.8,9.13-2.56,15.39,2.31,1.95,8.19,4.9,15.45,7.63,0-.18,0-.35,0-.53a10.16,10.16,0,0,1,10.22-9.95h.22l2.3,0c8.53,0,16.38-1,20.26-2.21-.69-4.81-1.46-8.76-2.25-12l2.17-.37a131.46,131.46,0,0,1,2.5,13.82c-4,1.82-15,3.16-25,2.92a8,8,0,0,0-8.2,7.8,8.08,8.08,0,0,0,.09,1.31c3,1.08,6.23,2.1,9.49,3a10.22,10.22,0,0,1,5.61,3.87c10.31-.32,24.82-2,30.89-8.71a12.55,12.55,0,0,0,3.28-10A157.12,157.12,0,0,0,431,301.5c-2.92-12.65-7.15-21-12.79-25.36a16.77,16.77,0,0,0-3-1.86A24.85,24.85,0,0,1,390.56,296.41Z" transform="translate(-334.77 -231.24)"/><path class="cls-1" d="M415.24,304.21a131.46,131.46,0,0,1,2.5,13.82c-4,1.82-15,3.16-25,2.92a8,8,0,0,0-8.2,7.8,8.08,8.08,0,0,0,.09,1.31c3,1.08,6.23,2.1,9.49,3a10.22,10.22,0,0,1,5.61,3.87c10.31-.32,24.82-2,30.89-8.71a12.55,12.55,0,0,0,3.28-10A157.12,157.12,0,0,0,431,301.5" transform="translate(-334.77 -231.24)"/><path class="cls-1" d="M351.21,304.13c-1.07,5.05-2,10.88-2.76,17.64-1.24,11.19,11.9,18.11,21.89,22.35a168,168,0,0,0,19,6.59,8,8,0,1,0,4.2-15.44c-12.82-3.49-26.14-9.42-29-12.83A163.65,163.65,0,0,1,367.16,306" transform="translate(-334.77 -231.24)"/><circle class="cls-1" cx="55.79" cy="40.37" r="22.5"/><path class="cls-1" d="M360.5,247.74c-3.63-8.21-18.12-11.68-19.44-4C339.82,250.94,348.13,245.93,360.5,247.74Z" transform="translate(-334.77 -231.24)"/><path class="cls-1" d="M370.52,245.28c2.74-6.56-3.16-16.78-8.29-13.36C357.41,235.14,364.82,237.18,370.52,245.28Z" transform="translate(-334.77 -231.24)"/><path class="cls-1" d="M361.76,260.76c-3.52-5.13-13.83-5.63-13.74-.24C348.1,265.59,353.11,261.11,361.76,260.76Z" transform="translate(-334.77 -231.24)"/><path class="cls-1" d="M344,333.54a1,1,0,0,0,.37.07,1,1,0,0,0,.37-1.93,5.77,5.77,0,0,1-2.84-2.79,5.5,5.5,0,0,1,.37-4.36,1,1,0,0,0-1.82-.82,7.36,7.36,0,0,0-.4,5.92A7.69,7.69,0,0,0,344,333.54Z" transform="translate(-334.77 -231.24)"/><path class="cls-1" d="M340.68,337a1.06,1.06,0,0,0,.42.09,1,1,0,0,0,.42-1.9,9.26,9.26,0,0,1-4.35-4.78c-.74-2.13-.44-4.56.89-7.22a1,1,0,1,0-1.79-.89c-1.58,3.16-1.91,6.11-1,8.77A11.23,11.23,0,0,0,340.68,337Z" transform="translate(-334.77 -231.24)"/><path class="cls-1" d="M401.16,242a7.62,7.62,0,0,0-5.31,1.62,1,1,0,1,0,1.28,1.54A5.7,5.7,0,0,1,401,244a5.45,5.45,0,0,1,3.64,2.38,1,1,0,0,0,.8.4,1,1,0,0,0,.6-.21,1,1,0,0,0,.19-1.4A7.34,7.34,0,0,0,401.16,242Z" transform="translate(-334.77 -231.24)"/><path class="cls-1" d="M395.6,240.66a9.23,9.23,0,0,1,6.27-1.56c2.22.35,4.22,1.76,5.93,4.19a1,1,0,0,0,.82.43,1,1,0,0,0,.58-.18,1,1,0,0,0,.24-1.4c-2-2.89-4.48-4.58-7.26-5a11.18,11.18,0,0,0-7.78,1.94,1,1,0,0,0,1.2,1.6Z" transform="translate(-334.77 -231.24)"/><path class="cls-1" d="M493.79,269a39.06,39.06,0,0,0-38.89,35.65l-17.71,2.48,17.92,6.25A39.05,39.05,0,1,0,493.79,269Zm-.06,73.87a34.65,34.65,0,1,1,34.65-34.65A34.65,34.65,0,0,1,493.73,342.86Z" transform="translate(-334.77 -231.24)"/><text class="cls-3" transform="translate(142.37 98.84)"><tspan class="cls-4">C</tspan><tspan x="8.67" y="0">œur</tspan></text><path class="cls-1" d="M485.59,292.7c-.93-1.81-2.29-4.22-2.29-4.22s-2.59.42-2.31,1.12c.21.52,1.32,4.1,1.87,5.87.3-.44.59-.81.81-1.08A8.54,8.54,0,0,1,485.59,292.7Z" transform="translate(-334.77 -231.24)"/><path class="cls-1" d="M488.29,284.35a41.12,41.12,0,0,0-5-.52l.35,2.27a16.31,16.31,0,0,1,3.32.25c.06-.14.13-.28.2-.42A6.27,6.27,0,0,1,488.29,284.35Z" transform="translate(-334.77 -231.24)"/><path class="cls-1" d="M507.06,298.43a6.09,6.09,0,0,1-2.85.66,10.34,10.34,0,0,1-4.4-1.12,6.06,6.06,0,0,1-.13.82c-1.39,5.88-.8,8.76,2.15,10.61l-.38.61c-2.48-1.56-3.3-3.73-3.22-6.56A3.41,3.41,0,0,0,496.7,305a3.28,3.28,0,0,0,.17,2.68l-.66.28a4,4,0,0,1-.16-3.26,4.24,4.24,0,0,1,2.23-2,29.62,29.62,0,0,1,.7-4,3.76,3.76,0,0,0-.51-3.18,5.94,5.94,0,0,0-2.74-1.93,5,5,0,0,1-1,3.23,4.89,4.89,0,0,1-3.71,1.61l0-.72a4.24,4.24,0,0,0,3.19-1.34,4.47,4.47,0,0,0,.87-3,10.83,10.83,0,0,0-1.85-.4l.08-.72c.17,0,4.11.47,5.83,2.9a4.19,4.19,0,0,1,.76,2.14c.84.45,4.34,2.12,7.13.5-.44-2.77-1.16-4.86-3.28-5.8-.12-.06-.26-.11-.41-.17a21,21,0,0,0-.9-2.59l-4.24.83c.1.2.19.4.28.6l-.33-.05c-.84-.1-1.72-.17-2.62-.19l.24-.49.75-.14c1.92-.36,5.09-1,7.94-1.62l-.32-1.44-.14-.6c-.93.2-1.91.39-2.87.55a11.08,11.08,0,0,0-2-2.43,9.36,9.36,0,0,0-.79-.62l0-.08a6.81,6.81,0,0,1,1.55-2.17l-.93-.95a7.85,7.85,0,0,0-2.4,2l-.21.25h0c0-.11,0-.22,0-.34a21.44,21.44,0,0,1,.31-3.54l-1.88-.63c-.65.61-1.05,2.53-1.26,3.81,0,.22-.06.42-.08.59l-.29.06-.32-.55a13.91,13.91,0,0,1-1.07-2.16l-1.49.5a11.12,11.12,0,0,1,.32,2.44c0,.31,0,.58,0,.77a7,7,0,0,0-2.84,2.92,8.15,8.15,0,0,0-.58,5.34,16.13,16.13,0,0,0,2.27,4.5l-.57.43c-.19-.25-.36-.51-.53-.76a5.48,5.48,0,0,0-1.35,3.93,4,4,0,0,0,2.4,2.76,8,8,0,0,1,4.29,5.3,8.12,8.12,0,0,1,.12,3.15L493,311a7.48,7.48,0,0,0-.13-2.87,6.88,6.88,0,0,0-2.35-3.77,3.23,3.23,0,0,0-.69,2.11,1.63,1.63,0,0,0,.86,1.16l-.38.62a2.35,2.35,0,0,1-1.19-1.67,3.9,3.9,0,0,1,.83-2.66,9.58,9.58,0,0,0-1-.59,4.73,4.73,0,0,1-2.78-3.28c-.38-2.22,1.32-4.3,1.67-4.7a18.24,18.24,0,0,1-1.23-2.62,8.2,8.2,0,0,0-1.27,1.23c-1.32,1.58-4.66,6.29-1.33,10.38s7.39,10.63,15.37,10.47a9.11,9.11,0,0,0,1.21-.1c6.81-1.07,7.16-10,6.69-14C507.24,299.89,507.15,299.14,507.06,298.43Zm-12-11.09a2.43,2.43,0,0,0-1,.09,4.54,4.54,0,0,0-1.89,1l.52.37-.87,1.77-.52.09-.14,0a3.84,3.84,0,0,1,.27-2.35,3.64,3.64,0,0,1,2.42-1.67,2.16,2.16,0,0,1,1.86.21,3.31,3.31,0,0,1,.5.36Z" transform="translate(-334.77 -231.24)"/></svg>