<svg id="Calque_1" data-name="Calque 1" xmlns="http://www.w3.org/2000/svg" viewBox="0 0 164.22 187.39"><defs><style>.cls-1{fill:#091494;}</style></defs><path class="cls-1" d="M436.91,255A22.5,22.5,0,1,0,420,228a22.5,22.5,0,0,0,16.89,27m7.2-13.62c4.32-.48,8.08,1.5,8.41,4.43s-2.91,5.69-7.23,6.18-8.08-1.5-8.41-4.43,2.91-5.7,7.23-6.18" transform="translate(-339.16 -205.28)"/><path class="cls-1" d="M373.48,272.24l-.15.33c-.06.13-.11.27-.17.4l-.09.3c-.05.15-.1.29-.14.44s-.05.21-.07.31-.07.3-.09.44,0,.24,0,.36,0,.27,0,.4,0,.27,0,.41V276c0,.14,0,.28,0,.42l0,.36c0,.13,0,.26.07.39s0,.26.07.39l.09.34c0,.15.09.3.14.44l0,.12a.54.54,0,0,1,.05.11,7.08,7.08,0,0,0,.48,1.05s0,0,0,0a7.62,7.62,0,0,0,.6.92l.14.18a7.56,7.56,0,0,0,.71.79l.16.14c.16.14.33.29.5.42h0a7.93,7.93,0,0,0,7.57,1.21l26.5-9.5a8,8,0,1,0-5.4-15.06l-15.63,5.6,2.44-3.31,11-3.94,3.37-5.23a8,8,0,0,0-13.44-8.68l-18.25,28.25a.75.75,0,0,1-.07.12l-.21.37-.18.34" transform="translate(-339.16 -205.28)"/><path class="cls-1" d="M442.38,270.14a7.55,7.55,0,0,0,4.67,13.66A7.37,7.37,0,1,0,461,279.29a5.74,5.74,0,0,0,.66-.43,7.2,7.2,0,0,0-8.48-11.64l-.19.16-4.19-8.51-1,.43,3.1,7.18,2.53,5.87,1.63-.79-1.49-3a6,6,0,0,1,6.86,9.75l-.12-.19a7.4,7.4,0,0,0-3.49-2.6,6.16,6.16,0,1,1-8.3,8.82,6.1,6.1,0,0,1-1.13-4.34,7.38,7.38,0,0,0-.42,2.42,6,6,0,0,1,.1-11.91l.48,3.39,1.79-.26-1.18-6.1-1.53-7.86-1.07.21,1.26,8.83a7.44,7.44,0,0,0-4.4,1.44" transform="translate(-339.16 -205.28)"/><path class="cls-1" d="M503.26,217.77c-1.32-7.67-15.82-4.2-19.44,4,12.37-1.81,20.68,3.2,19.44-4" transform="translate(-339.16 -205.28)"/><path class="cls-1" d="M482.09,206c-5.13-3.42-11,6.8-8.29,13.36,5.7-8.1,13.11-10.14,8.29-13.36" transform="translate(-339.16 -205.28)"/><path class="cls-1" d="M496.3,234.56c.09-5.39-10.23-4.88-13.75.24,8.65.35,13.67,4.83,13.75-.24" transform="translate(-339.16 -205.28)"/><path class="cls-1" d="M393.63,220.73a7.66,7.66,0,0,0-4.39,3.4,1,1,0,0,0,.87,1.49,1,1,0,0,0,.87-.51,5.82,5.82,0,0,1,3.15-2.45,5.46,5.46,0,0,1,4.27.94,1,1,0,0,0,1.05-1.7,7.34,7.34,0,0,0-5.82-1.17" transform="translate(-339.16 -205.28)"/><path class="cls-1" d="M401.68,219.29a1,1,0,0,0-.27-1.39c-2.93-2-5.81-2.69-8.57-2.12a11.13,11.13,0,0,0-6.58,4.57,1,1,0,0,0,.31,1.38.94.94,0,0,0,.53.16,1,1,0,0,0,.85-.46,9.2,9.2,0,0,1,5.32-3.7c2.2-.45,4.56.16,7,1.83a1,1,0,0,0,1.39-.27" transform="translate(-339.16 -205.28)"/><path class="cls-1" d="M430.28,329.75a1,1,0,0,0,.94.68,1.13,1.13,0,0,0,.32-.05,7.37,7.37,0,0,0,4.61-3.75,7.64,7.64,0,0,0,.16-5.55,1,1,0,0,0-1.29-.57,1,1,0,0,0-.57,1.29,5.71,5.71,0,0,1-.11,4,5.44,5.44,0,0,1-3.44,2.7,1,1,0,0,0-.62,1.27" transform="translate(-339.16 -205.28)"/><path class="cls-1" d="M432.82,332.51a1,1,0,0,0-.67,1.25,1,1,0,0,0,1,.71,1,1,0,0,0,.29,0c3.39-1,5.77-2.77,7.08-5.26a11.22,11.22,0,0,0,.66-8,1,1,0,0,0-1.9.62,9.22,9.22,0,0,1-.53,6.44c-1.05,2-3,3.43-5.88,4.27" transform="translate(-339.16 -205.28)"/><path class="cls-1" d="M362.57,385.14l23.5-42a12.51,12.51,0,0,0,1-9.78L383,320l13.38,14.63L378.11,375a12.5,12.5,0,1,0,22.78,10.31l21.66-47.88A12.5,12.5,0,0,0,422,326a8.05,8.05,0,0,0,1.7.19,7.49,7.49,0,0,0,1.48-.14,8,8,0,0,0,6.4-9.33l-14.34-77a2.25,2.25,0,0,0-.05-.22,11.45,11.45,0,0,0-3.17-6c-6.29-6.15-19.31-8.4-31.05,1.69-16.07,14-24,24.57-32.95,45.05-1.94,5.52-2.08,9.95-1.1,13.59a12.93,12.93,0,0,0,.35,1.43l12.42,40.39-20.89,37.33a12.5,12.5,0,1,0,21.82,12.21m9.44-115,18.25-28.25a10.3,10.3,0,0,1,17.3,11.18l-1.92,3a11,11,0,0,1,1.52-.12,10.3,10.3,0,0,1,3.48,20l-2.79,1,7.76,41.67-28.78-31.48c.79-1.19,1.6-2.37,2.43-3.53l-5.12,1.84q-.43.15-.87.27l-.21,0a7.58,7.58,0,0,1-.95.18l-.28,0a11.48,11.48,0,0,1-1.17.07,9.94,9.94,0,0,1-1.34-.09l-.22,0a8.45,8.45,0,0,1-1.21-.27l-.29-.08a9.7,9.7,0,0,1-1.13-.43l-.26-.12c-.36-.18-.72-.37-1.06-.58l-.08-.05-.36-.26-.29-.2h0A10.29,10.29,0,0,1,372,270.16" transform="translate(-339.16 -205.28)"/></svg>