<svg id="Calque_1" data-name="Calque 1" xmlns="http://www.w3.org/2000/svg" viewBox="0 0 209.91 271.71"><defs><style>.cls-1{fill:#091494;}.cls-2{fill:#e30613;stroke:#e30613;stroke-miterlimit:10;stroke-width:2px;}.cls-3{fill:#fff;}</style></defs><path class="cls-1" d="M446,261.31m-78.06,2.49c0,2.34,12.5,5.29,30.13,6.54v3.85h34.22v-3.85c17.63-1.25,30.14-4.2,30.14-6.54M422,259.33a8,8,0,0,0,.12,1.2m-21.77-.94" transform="translate(-327.19 -105.39)"/><path class="cls-1" d="M387.57,303.94V367c0,5.57,4.89,10.09,10.93,10.09s10.92-4.52,10.92-10.09V303.94" transform="translate(-327.19 -105.39)"/><path class="cls-1" d="M413.75,303.94V367c0,5.57,4.9,10.09,10.93,10.09s10.93-4.52,10.93-10.09V303.94" transform="translate(-327.19 -105.39)"/><path class="cls-1" d="M423.29,258.13a4.56,4.56,0,0,1,4-1.75l5.05.44a5.6,5.6,0,0,0-.77,4.18h11.12a2,2,0,0,0,.05-.24,5.66,5.66,0,0,0-1.88-5.16,5.67,5.67,0,0,0-.69-10.69l-.54-.12a5.68,5.68,0,0,0-6.61,4.7,5.77,5.77,0,0,0,.12,2.31l-5-1.14a4.57,4.57,0,0,1-3.27-2.92c-2.56-7.25-12.06-13.48-21-15.06l-.62-.11c-11.4-1.86-17.32,4.53-18.91,14.07-.86,5.68.09,10.78,3.4,14.36h32.54A15.36,15.36,0,0,0,423.29,258.13Z" transform="translate(-327.19 -105.39)"/><polygon class="cls-1" points="160.3 271.21 160.3 179.89 167.64 179.89 167.64 173.07 0 173.07 0 179.89 7.34 179.89 7.34 271.21 23.24 271.21 23.24 194.84 144.41 194.84 144.41 271.21 160.3 271.21"/><path class="cls-1" d="M415.33,138.57a5.18,5.18,0,0,0,2.75-.94,2.69,2.69,0,0,0,1.47-2.26c0-1.12-.64-1.72-1.93-1.8a3.29,3.29,0,0,0-1.72-.72,2.42,2.42,0,0,0-1.53.44,3.38,3.38,0,0,1-.5.38c-1.14.78-1.7,1.5-1.7,2.15a2.48,2.48,0,0,0,.91,2A3.35,3.35,0,0,0,415.33,138.57Z" transform="translate(-327.19 -105.39)"/><path class="cls-1" d="M416.33,113.4c2,0,3.08-.63,3.26-1.89a2,2,0,0,1,.93-1.13,5.85,5.85,0,0,1,3.1-.57,5,5,0,0,1,1.57.26,2.37,2.37,0,0,1,1.06.56,4.28,4.28,0,0,1,.61,1.54,8,8,0,0,1,.33,2,4.67,4.67,0,0,1-.51,2.06,2.64,2.64,0,0,1-1.25,1.35l-2.87,1.13a39.54,39.54,0,0,0-3.68,1.57,12.78,12.78,0,0,0-2.13,1.48c-.86,1.75-1.4,2.92-1.6,3.49a5.34,5.34,0,0,0-.31,1.86,4.75,4.75,0,0,0,.34,1.79c.23.57.54.86.93.86a4.75,4.75,0,0,0,2.59-.53,2.46,2.46,0,0,0,1-1.64,22.59,22.59,0,0,1,1-3.56q5.32-1.85,7-2.64a7.48,7.48,0,0,0,3.09-2.8,9.58,9.58,0,0,0,1.39-5.16v0a10,10,0,0,0-.8-4.2,8.5,8.5,0,0,0-3-2.88,6.09,6.09,0,0,0-3.8-.87c-.83,0-1.66.18-2.48.19a4.6,4.6,0,0,0-3.37,1.15h0c-1.25,1-2.3,1.37-3.12,2.34a4.1,4.1,0,0,0-1.25,2.51C414.37,112.84,415,113.4,416.33,113.4Z" transform="translate(-327.19 -105.39)"/><path class="cls-1" d="M393.32,125.82q1.95-1.18,1.38-2.52a1.53,1.53,0,0,1,.15-1.1,4.44,4.44,0,0,1,1.79-1.61,4,4,0,0,1,1.12-.46,2,2,0,0,1,.92,0,3.35,3.35,0,0,1,1,.76,5.64,5.64,0,0,1,1,1.14,3.59,3.59,0,0,1,.49,1.54,2,2,0,0,1-.28,1.37l-1.41,1.87a29.58,29.58,0,0,0-1.77,2.49,9.17,9.17,0,0,0-.8,1.81c.14,1.48.25,2.45.35,2.9a4.07,4.07,0,0,0,.53,1.33,3.7,3.7,0,0,0,.94,1c.37.28.69.35.94.19a3.55,3.55,0,0,0,1.48-1.37,1.87,1.87,0,0,0,0-1.45,17.49,17.49,0,0,1-.77-2.72q2.73-3.32,3.52-4.5a5.58,5.58,0,0,0,.82-3,7.2,7.2,0,0,0-1.23-3.86v0a8,8,0,0,0-2.11-2.46,6.31,6.31,0,0,0-3.06-.7,4.62,4.62,0,0,0-2.8.93c-.52.35-1,.69-1.57,1a5.12,5.12,0,0,0-1.78,2h0a8.13,8.13,0,0,0-1,2.84,3.17,3.17,0,0,0,.21,2.17A1.29,1.29,0,0,0,393.32,125.82Z" transform="translate(-327.19 -105.39)"/><path class="cls-1" d="M402.18,138.42a2.52,2.52,0,0,0-1.41.21,1.81,1.81,0,0,0-.81.9q-.06.18-.18.45c-.43,1-.51,1.64-.25,2.07a1.9,1.9,0,0,0,1.37.92,2.51,2.51,0,0,0,1.78-.39,3.89,3.89,0,0,0,1.41-1.7,2.05,2.05,0,0,0,.06-2.06A1.32,1.32,0,0,0,402.18,138.42Z" transform="translate(-327.19 -105.39)"/><path class="cls-1" d="M392.05,201.66a7.67,7.67,0,0,0-4,1.15c1.14-1,2.39-2.07,3.78-3.22,1.71-1.42,3.61-3,5.72-4.62s-.75-7-4.1-10.3a29.57,29.57,0,0,1,11.12-3.45,1.26,1.26,0,0,0,.28,0l.76,2.21a5,5,0,0,1-.94.13,27,27,0,0,0-7.48,1.91c1.86,2.43,3.35,5.34,3.37,7.76a22.5,22.5,0,1,0-11.67-19.72,22.82,22.82,0,0,0,.58,5.06,37,37,0,0,1,12.94-4.41l.77,2.22a34,34,0,0,0-15.21,5.86l-.31.19a171.12,171.12,0,0,0-18.08,15.9c-8.45,8.91-10.49,15.23-7.47,21,4,7.55,18,6.85,26.49,5.44m26.24-57a4.19,4.19,0,1,1,1.38,5.76A4.19,4.19,0,0,1,414.81,167.65ZM400.47,165a3.5,3.5,0,1,1,1.15,4.81A3.51,3.51,0,0,1,400.47,165Z" transform="translate(-327.19 -105.39)"/><path class="cls-1" d="M381,176.44a4.85,4.85,0,0,0-.91,3.45.63.63,0,0,0,.72.55h.07a.66.66,0,0,0,.48-.71,3.67,3.67,0,0,1,.66-2.49,3.49,3.49,0,0,1,2.54-1.19.63.63,0,0,0,.57-.7.64.64,0,0,0-.7-.58A4.73,4.73,0,0,0,381,176.44Z" transform="translate(-327.19 -105.39)"/><path class="cls-1" d="M377.74,179.71h.1a.64.64,0,0,0,.48-.68,5.3,5.3,0,0,1,5.58-5.78.66.66,0,0,0,.61-.68.65.65,0,0,0-.68-.61,6.59,6.59,0,0,0-6.79,7.18A.64.64,0,0,0,377.74,179.71Z" transform="translate(-327.19 -105.39)"/><path class="cls-1" d="M486.56,241.21a313.82,313.82,0,0,1-32.83-5.67,265.58,265.58,0,0,0-1.34-28c-2-16.91-6-21.68-11.93-22.89a10.15,10.15,0,0,0-6.58.83,24.83,24.83,0,0,1-22.31,14A24.58,24.58,0,0,1,398,195.42c-3,1-5.62,1.91-8,2.77a13,13,0,0,0,1.44.13c.26,0,.52,0,.79,0l-.94,2.58,2.53,8.58-2.39,18.16-.19,3.8a27.06,27.06,0,0,1,11.31-2.25c11.55-.19,23.51,11.83,23.93,14.92s4.79,4,4.79,4a9.05,9.05,0,0,1,4.26-4.8,11.16,11.16,0,0,1-.12-1.54c.07-14.78-.45-24.38-1.05-30.45l2.27-.46a300.18,300.18,0,0,1,1.1,30.92,7.93,7.93,0,0,0,.08,1,8,8,0,0,1,2.61.28,6.92,6.92,0,0,1,5.47,7.13c5.1,1.36,17.93,4.41,38.68,7a8.72,8.72,0,0,0,1,.07,8,8,0,0,0,1-15.94Z" transform="translate(-327.19 -105.39)"/><path class="cls-1" d="M389.26,185.51,389,198.14c.33,0,.66,0,1,.05,2.38-.86,5-1.78,8-2.77A25,25,0,0,1,389.26,185.51Z" transform="translate(-327.19 -105.39)"/><path class="cls-1" d="M389,198.55l1-.36c-.32,0-.65-.05-1-.05Z" transform="translate(-327.19 -105.39)"/><path class="cls-1" d="M388.77,211.23c-.5,5-.92,11.67-1,22.35a18,18,0,0,1,3.49-2.18l.19-3.8,2.39-18.16-2.53-8.58.94-2.58c-.27,0-.53,0-.79,0a13,13,0,0,1-1.44-.13l-1,.36Z" transform="translate(-327.19 -105.39)"/><path class="cls-1" d="M498,130.69a39.06,39.06,0,0,0-38.9,35.64l-17.7,2.49,17.92,6.24A39.05,39.05,0,1,0,498,130.69ZM498,204.55a34.65,34.65,0,1,1,34.65-34.65A34.65,34.65,0,0,1,498,204.55Z" transform="translate(-327.19 -105.39)"/><path class="cls-1" d="M508.66,182.57c-6.22,0-5.21,4.74-11.52,4.74s-5.43-4.74-11.52-4.74c-1.87,0-3.45,1.3-3.45,2.84a2.92,2.92,0,0,0,1.35,2.37c1.65,1.16,4.35,1.4,7.09.67a11.69,11.69,0,0,0,13.05,0c2.74.73,5.45.49,7.09-.67a2.92,2.92,0,0,0,1.35-2.37C512.1,183.87,510.53,182.57,508.66,182.57Z" transform="translate(-327.19 -105.39)"/><path class="cls-1" d="M480.86,187.64a8.29,8.29,0,0,1-2.76-9.26,7.29,7.29,0,0,1,5.1-4.85c-.16.52-.33,1-.5,1.5a1.57,1.57,0,0,0,3,1c2.27-6.44,4.68-17.6,4.68-25.59a1.57,1.57,0,1,0-3.13,0,85,85,0,0,1-3,19.7,10.45,10.45,0,0,0-9.05,7.2A11.42,11.42,0,0,0,479,190.13a1.6,1.6,0,0,0,1,.32,1.57,1.57,0,0,0,.95-2.81Z" transform="translate(-327.19 -105.39)"/><path class="cls-1" d="M519.15,177.38a10.47,10.47,0,0,0-9-7.2,85,85,0,0,1-3-19.7,1.57,1.57,0,1,0-3.13,0c0,8,2.41,19.15,4.68,25.59a1.57,1.57,0,0,0,1.48,1,1.63,1.63,0,0,0,.52-.09,1.56,1.56,0,0,0,.95-2l-.5-1.5a7.28,7.28,0,0,1,5.11,4.85,8.3,8.3,0,0,1-2.77,9.26,1.57,1.57,0,0,0,1,2.81,1.62,1.62,0,0,0,1-.32A11.44,11.44,0,0,0,519.15,177.38Z" transform="translate(-327.19 -105.39)"/><rect class="cls-2" x="481.22" y="168.72" width="31.86" height="3.18" transform="translate(-61.15 -407.05) rotate(45)"/><rect class="cls-2" x="481.22" y="168.72" width="31.86" height="3.18" transform="translate(641.93 -166.2) rotate(135)"/><circle class="cls-3" cx="78.93" cy="71.34" r="1.31"/><circle class="cls-3" cx="83.43" cy="72.1" r="1.88"/><path class="cls-3" d="M398,195.42s-11.22,6.8-12.72,11.49S398,195.42,398,195.42Z" transform="translate(-327.19 -105.39)"/><path class="cls-3" d="M405.26,209.86c.59-.57,0-1.88-.58-1.31a9.46,9.46,0,0,0-2.84,5.9c-.26,2.64,1.68,4.33,1.9,6.8a6.94,6.94,0,0,1-1.52,4.6c-.54.67.27,1.74.8,1.07a9,9,0,0,0,1.65-7.18c-.49-2.62-2.36-3.89-1.35-6.88A7.87,7.87,0,0,1,405.26,209.86Z" transform="translate(-327.19 -105.39)"/><path class="cls-3" d="M412.53,203.1c.82-.78,0-2.61-.8-1.81a13.14,13.14,0,0,0-4,8.21c-.36,3.66,2.35,6,2.65,9.45a9.64,9.64,0,0,1-2.12,6.4c-.74.93.38,2.41,1.12,1.49a12.48,12.48,0,0,0,2.3-10c-.68-3.65-3.29-5.41-1.88-9.57A11,11,0,0,1,412.53,203.1Z" transform="translate(-327.19 -105.39)"/><path class="cls-3" d="M418.55,209.86c.59-.57,0-1.88-.57-1.31a9.46,9.46,0,0,0-2.84,5.9c-.27,2.64,1.68,4.33,1.9,6.8a6.94,6.94,0,0,1-1.52,4.6c-.54.67.27,1.74.8,1.07a9,9,0,0,0,1.65-7.18c-.49-2.62-2.36-3.89-1.35-6.88A7.85,7.85,0,0,1,418.55,209.86Z" transform="translate(-327.19 -105.39)"/></svg>