<svg id="Calque_1" data-name="Calque 1" xmlns="http://www.w3.org/2000/svg" viewBox="0 0 231.87 277.38"><defs><style>.cls-1{fill:#091494;}.cls-2{fill:#e30613;stroke:#e30613;stroke-miterlimit:10;stroke-width:2px;}</style></defs><path class="cls-1" d="M542.88,186.71h0a30.32,30.32,0,0,1-7.17-5.08c-3.08-2.63-6-5.12-9.2-5.12a10.51,10.51,0,0,0-5.11,1.12,4.6,4.6,0,0,1-4.51,0,10.47,10.47,0,0,0-5.11-1.12c-3.22,0-6.12,2.49-9.19,5.12a30.66,30.66,0,0,1-7.18,5.08h0a1.23,1.23,0,0,0-.68,1.55v0c2.12,6.17,5.53,10.73,10.12,13.57,1.68,7.22,6.85,11.52,14.32,11.52s12.63-4.3,14.31-11.52c4.59-2.84,8-7.4,10.13-13.57v0A1.25,1.25,0,0,0,542.88,186.71Zm-44,4.74a.89.89,0,0,1,1.08-1.24,26.33,26.33,0,0,0,4.25,1v5.2c0,.66,0,1.31.07,1.93A20.83,20.83,0,0,1,498.88,191.45Zm32.58,5c0,9-4.62,14.41-12.34,14.41s-12.34-5.38-12.34-14.41V191a2.42,2.42,0,0,1,1.81-2.35c10.84-1.28,9.24,3.11,9.24,7.71a1.29,1.29,0,1,0,2.57,0c0-4.51-1.6-9,9.24-7.71a2.44,2.44,0,0,1,1.82,2.35Zm-.89-10.18a93.29,93.29,0,0,0-11.45-.86h-1.29v0c-3.71.08-7.13.47-10.17.83-1.9.22-3.7.44-5.41.56a.66.66,0,0,1-.45-1.18c.83-.66,1.63-1.35,2.42-2,2.71-2.32,5.26-4.51,7.53-4.51a8,8,0,0,1,4,.88,7,7,0,0,0,6.67,0,8,8,0,0,1,4-.88c2.27,0,4.83,2.19,7.53,4.51.79.68,1.59,1.37,2.42,2a.66.66,0,0,1-.45,1.18C534.27,186.66,532.48,186.45,530.57,186.22Zm8.79,5.23a21,21,0,0,1-5.41,6.89c0-.63.07-1.28.07-1.94v-5.2a25.28,25.28,0,0,0,4.26-1A.9.9,0,0,1,539.36,191.45Z" transform="translate(-327.19 -99.72)"/><path class="cls-1" d="M446,261.31m-78.06,2.49c0,2.34,12.5,5.29,30.13,6.54v3.85h34.22v-3.85c17.63-1.25,30.14-4.2,30.14-6.54M422,259.33a8,8,0,0,0,.12,1.2m-21.77-.94" transform="translate(-327.19 -99.72)"/><path class="cls-1" d="M387.57,303.94V367c0,5.57,4.89,10.09,10.93,10.09s10.92-4.52,10.92-10.09V303.94" transform="translate(-327.19 -99.72)"/><path class="cls-1" d="M413.75,303.94V367c0,5.57,4.9,10.09,10.93,10.09s10.93-4.52,10.93-10.09V303.94" transform="translate(-327.19 -99.72)"/><path class="cls-1" d="M423.29,258.13a4.56,4.56,0,0,1,4-1.75l5.05.44a5.6,5.6,0,0,0-.77,4.18h11.12a2,2,0,0,0,.05-.24,5.66,5.66,0,0,0-1.88-5.16,5.67,5.67,0,0,0-.69-10.69l-.54-.12a5.68,5.68,0,0,0-6.61,4.7,5.77,5.77,0,0,0,.12,2.31l-5-1.14a4.57,4.57,0,0,1-3.27-2.92c-2.56-7.25-12.06-13.48-21-15.06l-.62-.11c-11.4-1.86-17.32,4.53-18.91,14.07-.86,5.68.09,10.78,3.4,14.36h32.54A15.36,15.36,0,0,0,423.29,258.13Z" transform="translate(-327.19 -99.72)"/><polygon class="cls-1" points="160.3 276.88 160.3 185.56 167.64 185.56 167.64 178.74 0 178.74 0 185.56 7.34 185.56 7.34 276.88 23.24 276.88 23.24 200.5 144.41 200.5 144.41 276.88 160.3 276.88"/><path class="cls-1" d="M415.33,132.91a5.2,5.2,0,0,0,2.75-.95,2.69,2.69,0,0,0,1.47-2.26c0-1.11-.64-1.72-1.93-1.8a3.29,3.29,0,0,0-1.72-.72,2.42,2.42,0,0,0-1.53.44,4.19,4.19,0,0,1-.5.39c-1.14.77-1.7,1.49-1.7,2.14a2.48,2.48,0,0,0,.91,2A3.36,3.36,0,0,0,415.33,132.91Z" transform="translate(-327.19 -99.72)"/><path class="cls-1" d="M416.33,107.73c2,0,3.08-.63,3.26-1.89a2,2,0,0,1,.93-1.12,5.73,5.73,0,0,1,3.1-.58,5,5,0,0,1,1.57.26,2.37,2.37,0,0,1,1.06.56,4.28,4.28,0,0,1,.61,1.54,8,8,0,0,1,.33,2,4.67,4.67,0,0,1-.51,2.06,2.64,2.64,0,0,1-1.25,1.35L422.56,113c-1.81.71-3,1.23-3.68,1.57a12.78,12.78,0,0,0-2.13,1.48c-.86,1.76-1.4,2.92-1.6,3.49a5.34,5.34,0,0,0-.31,1.86,4.75,4.75,0,0,0,.34,1.79c.23.57.54.86.93.86a4.75,4.75,0,0,0,2.59-.53,2.44,2.44,0,0,0,1-1.63,22.43,22.43,0,0,1,1-3.57q5.32-1.84,7-2.64a7.48,7.48,0,0,0,3.09-2.8,9.58,9.58,0,0,0,1.39-5.16v0a10,10,0,0,0-.8-4.2,8.5,8.5,0,0,0-3-2.88,6.09,6.09,0,0,0-3.8-.87c-.83,0-1.66.18-2.48.19a4.6,4.6,0,0,0-3.37,1.15h0c-1.25,1-2.3,1.37-3.12,2.34a4.1,4.1,0,0,0-1.25,2.51C414.37,107.17,415,107.73,416.33,107.73Z" transform="translate(-327.19 -99.72)"/><path class="cls-1" d="M393.32,120.15q1.95-1.19,1.38-2.52a1.53,1.53,0,0,1,.15-1.1,4.44,4.44,0,0,1,1.79-1.61,4,4,0,0,1,1.12-.46,2,2,0,0,1,.92,0,3.35,3.35,0,0,1,1,.76,5.64,5.64,0,0,1,1,1.14,3.59,3.59,0,0,1,.49,1.54,2,2,0,0,1-.28,1.38l-1.41,1.86a29.58,29.58,0,0,0-1.77,2.49,9.17,9.17,0,0,0-.8,1.81c.14,1.48.25,2.45.35,2.9a4.07,4.07,0,0,0,.53,1.33,3.56,3.56,0,0,0,.94,1c.37.28.69.35.94.19a3.55,3.55,0,0,0,1.48-1.37,1.87,1.87,0,0,0,0-1.45,17.49,17.49,0,0,1-.77-2.72q2.73-3.31,3.52-4.5a5.58,5.58,0,0,0,.82-3,7.2,7.2,0,0,0-1.23-3.86v0a8,8,0,0,0-2.11-2.46,6.31,6.31,0,0,0-3.06-.7,4.62,4.62,0,0,0-2.8.93c-.52.35-1,.69-1.57,1a5.12,5.12,0,0,0-1.78,2h0a8.11,8.11,0,0,0-1,2.85,3.15,3.15,0,0,0,.21,2.16A1.29,1.29,0,0,0,393.32,120.15Z" transform="translate(-327.19 -99.72)"/><path class="cls-1" d="M402.18,132.75a2.52,2.52,0,0,0-1.41.21,1.81,1.81,0,0,0-.81.9q-.06.18-.18.45c-.43,1-.51,1.64-.25,2.07a1.9,1.9,0,0,0,1.37.92,2.51,2.51,0,0,0,1.78-.39,3.89,3.89,0,0,0,1.41-1.7,2,2,0,0,0,.06-2.05A1.31,1.31,0,0,0,402.18,132.75Z" transform="translate(-327.19 -99.72)"/><path class="cls-1" d="M380.61,201.88l-.09,0h.09Z" transform="translate(-327.19 -99.72)"/><path class="cls-1" d="M390.67,178.58h0a66.44,66.44,0,0,1,11.21-.87c.72,0,1.4,0,2,0a8.49,8.49,0,1,1-.67,9.31l-.75-.1c.69,2.59,1,5.41.18,7.49a22.5,22.5,0,1,0-13.63-20.68,22.06,22.06,0,0,0,.59,5.11Z" transform="translate(-327.19 -99.72)"/><path class="cls-1" d="M387.75,234.29c.1-10.68.52-18.07,1-23.06l.24-12.68c-3.37,1.23-6.18,2.34-8.49,3.31l.09,0h-.09c-.46-.13-1.35-.78,7.33-3.55a3.61,3.61,0,0,1,1.17-.17l.24-12.63a25,25,0,0,0,8.74,9.91l1.28-.42c2.43-.8,1.77-6.23,0-10.4a25.53,25.53,0,0,1,7.71.81,2.5,2.5,0,1,0,1.3-4.82c-4.67-1.26-16-.12-17,.21a30.66,30.66,0,0,0-3.71,1.27c-9.73,3.4-17,6.42-22.05,9.17-3.36,1.83-12.29,6.69-10.9,15,.7,4.17,3.58,6.73,7.05,8.34a37.22,37.22,0,0,0,12.57,2.84c9,.59,7.84-3.17,10.26-3.13v23.62A14.45,14.45,0,0,1,387.75,234.29Z" transform="translate(-327.19 -99.72)"/><path class="cls-1" d="M387.85,198.31c-8.68,2.77-7.79,3.42-7.33,3.55,2.31-1,5.12-2.08,8.49-3.31v-.41A3.61,3.61,0,0,0,387.85,198.31Z" transform="translate(-327.19 -99.72)"/><path class="cls-1" d="M385.55,176.4a4.73,4.73,0,0,0-3.83-.06,4.89,4.89,0,0,0-2.37,2.67.63.63,0,0,0,.39.81l.07,0a.64.64,0,0,0,.75-.41,3.67,3.67,0,0,1,1.72-1.93,3.52,3.52,0,0,1,2.8.1.64.64,0,0,0,.83-.36A.65.65,0,0,0,385.55,176.4Z" transform="translate(-327.19 -99.72)"/><path class="cls-1" d="M377.37,177.8l.1,0a.65.65,0,0,0,.74-.38,5.3,5.3,0,0,1,7.59-2.63.64.64,0,0,0,.52-1.18,7.1,7.1,0,0,0-5.67-.34A7.18,7.18,0,0,0,377,177,.64.64,0,0,0,377.37,177.8Z" transform="translate(-327.19 -99.72)"/><path class="cls-1" d="M486.56,241.21a313.82,313.82,0,0,1-32.83-5.67,265.58,265.58,0,0,0-1.34-28c-2-16.91-6-21.68-11.93-22.89a10.15,10.15,0,0,0-6.58.83,24.83,24.83,0,0,1-22.31,14A24.58,24.58,0,0,1,398,195.42c-3,1-5.62,1.91-8,2.77a13,13,0,0,0,1.44.13c.26,0,.52,0,.79,0l-.94,2.58,2.53,8.58-2.39,18.87-.19,3.8a28.62,28.62,0,0,1,11.31-2.54c13.09-.56,23.51,11.41,23.93,14.5s4.79,4,4.79,4a9.05,9.05,0,0,1,4.26-4.8,11.16,11.16,0,0,1-.12-1.54c.07-14.78-.45-24.38-1.05-30.45l2.27-.46a300.18,300.18,0,0,1,1.1,30.92,7.93,7.93,0,0,0,.08,1,8,8,0,0,1,2.61.28,6.92,6.92,0,0,1,5.47,7.13c5.1,1.36,17.93,4.41,38.68,7a8.72,8.72,0,0,0,1,.07,8,8,0,0,0,1-15.94Z" transform="translate(-327.19 -99.72)"/><path class="cls-1" d="M389.26,185.51,389,198.14c.33,0,.66,0,1,.05,2.38-.86,5-1.78,8-2.77A25,25,0,0,1,389.26,185.51Z" transform="translate(-327.19 -99.72)"/><path class="cls-1" d="M389,198.55l1-.36c-.32,0-.65-.05-1-.05Z" transform="translate(-327.19 -99.72)"/><path class="cls-1" d="M388.77,211.23c-.5,5-.92,12.38-1,23.06a17.54,17.54,0,0,1,3.49-2.18l.19-3.8,2.39-18.87-2.53-8.58.94-2.58c-.27,0-.53,0-.79,0a13,13,0,0,1-1.44-.13l-1,.36Z" transform="translate(-327.19 -99.72)"/><path class="cls-1" d="M520,153.21a39.05,39.05,0,0,0-38.9,35.64l-17.71,2.49,17.92,6.24A39.05,39.05,0,1,0,520,153.21Zm-.07,73.87a34.66,34.66,0,1,1,34.65-34.65A34.66,34.66,0,0,1,519.94,227.08Z" transform="translate(-327.19 -99.72)"/><rect class="cls-2" x="503.19" y="191.24" width="31.86" height="3.18" transform="translate(-38.79 -410.31) rotate(45)"/><rect class="cls-2" x="503.19" y="191.24" width="31.86" height="3.18" transform="translate(695.35 -137.61) rotate(135)"/></svg>