<svg id="Calque_1" data-name="Calque 1" xmlns="http://www.w3.org/2000/svg" viewBox="0 0 138.17 230.46"><defs><style>.cls-1{fill:#091494;}</style></defs><path class="cls-1" d="M507.07,274a8,8,0,0,0-4.42-7.51l-2.31,15.05A8,8,0,0,0,507.07,274Z" transform="translate(-370.14 -176.13)"/><path class="cls-1" d="M387.68,393.12a12.37,12.37,0,0,0,24.73,0V350.25a122.79,122.79,0,0,1-24.73-3.78Z" transform="translate(-370.14 -176.13)"/><path class="cls-1" d="M458.55,392.52,451.94,345a123.06,123.06,0,0,1-24.29,4.86l6.41,46.08a12.36,12.36,0,0,0,24.49-3.41Z" transform="translate(-370.14 -176.13)"/><path class="cls-1" d="M455.38,340c0-16.6-2.59-40.74-5.22-60.94l-18.81-2.89L440,219.53a7.14,7.14,0,0,0-.8,0,7.41,7.41,0,0,0-1.94-.45,24.72,24.72,0,0,1-7.57,3.52,47.82,47.82,0,0,1-1.72,8,10.3,10.3,0,0,1,1.48,19.83c-19.87,7-34.09,10.37-43.46,10.37-.45,0-.87,0-1.3,0-2.56,25.11-5.66,59.57-5.66,79.32,8.67,4,23.34,8,38.16,8S446.72,344,455.38,340Zm-48.76-22.62L388.79,315l.55-4,17.83,2.46Zm21.22,0-.55-4L445.12,311l.55,4Z" transform="translate(-370.14 -176.13)"/><path class="cls-1" d="M411.82,228a8.45,8.45,0,0,0,10.82,0l.29-.46-1.06-4.18a24.76,24.76,0,0,1-8.74-2.12l-1.6,6.3Z" transform="translate(-370.14 -176.13)"/><path class="cls-1" d="M416.68,233a11.61,11.61,0,0,1-3.48-.72l-.26,1.94Z" transform="translate(-370.14 -176.13)"/><path class="cls-1" d="M421.4,190.48a9.81,9.81,0,0,1,9.25,6.63h1.7a9.76,9.76,0,0,1,12-6.23,22.51,22.51,0,0,0-42.71,1.37l10.94,3.8A9.81,9.81,0,0,1,421.4,190.48Z" transform="translate(-370.14 -176.13)"/><path class="cls-1" d="M423.1,221.13a22.47,22.47,0,0,0,18.06-8.9l.34-2.23a9.8,9.8,0,0,1-9.16-6.63h-1.69a9.75,9.75,0,0,1-18.76-1L402,198.85,400.86,201A22.49,22.49,0,0,0,423.1,221.13Z" transform="translate(-370.14 -176.13)"/><path class="cls-1" d="M386,258.44c8.14,0,21.09-2.66,42.7-10.24a8,8,0,0,0-5.31-15.1c-14.66,5.15-24.05,7.55-30,8.61l3.11-3c3.09-.68,6.91-1.66,11.61-3.06-2-5.61-3.61-11.41-3.61-16,0-.24,0-.47,0-.7H397.9l-.16,0c-8.25,0-22.45,12.3-26.23,21-3.26,7.49.1,12.3,1.7,14a12.38,12.38,0,0,0,4.23,3A21.24,21.24,0,0,0,386,258.44Z" transform="translate(-370.14 -176.13)"/><path class="cls-1" d="M401,196.34l12.75,4.46a7.68,7.68,0,0,0,15.26.49h5a7.68,7.68,0,0,0,7.6,6.63h.23l.32-2.1a4.93,4.93,0,0,1-.55,0,5.6,5.6,0,1,1,4.7-8.62l2.5.38a7.67,7.67,0,0,0-14.8,1.6h-5a7.68,7.68,0,0,0-15.12-.55L400,193.83l-3.06,5.67,1.84,1Zm20.4-1.69a5.6,5.6,0,1,1-5.59,5.59A5.6,5.6,0,0,1,421.4,194.65Z" transform="translate(-370.14 -176.13)"/><path class="cls-1" d="M446,200.22l-11.27,73.47L497,283.24l11.27-73.47Zm19.8,20.4a3.92,3.92,0,0,1,2.66,2.94c.14.64-.1,5.09-.46,10.27,1.64-.81,3.1-2,3.42-3.14.72-2.59,2.41-12.46,2.42-12.56l1.24.21,1.25.17c0,.1-1.36,10-1.45,12.71,0,1.18,1,2.76,2.32,4,1.22-5.05,2.32-9.37,2.64-9.94a3.94,3.94,0,0,1,3.42-2c2.64-.26,11.32,10.53,11.8,22.71.61,15.4.25,23.33-2.1,23s-8.59-6.78-13-8.52-7.34-4.72-6.68-8.08c.33-1.68,1.79-8.17,3.25-14.38a11.87,11.87,0,0,1-3.75-4.69,11.8,11.8,0,0,1-5,3.35c-.46,6.36-1,13-1.2,14.7-.38,3.4-4.08,5.36-8.8,5.7s-12.59,4.6-14.94,4.24-.32-8,4.88-22.55C451.88,227.28,463.4,219.58,465.84,220.62Z" transform="translate(-370.14 -176.13)"/></svg>