<svg id="Calque_1" data-name="Calque 1" xmlns="http://www.w3.org/2000/svg" viewBox="0 0 171.66 251.93"><defs><style>.cls-1{fill:#091494;}.cls-2{fill:#fff;}.cls-3{fill:#e30613;}.cls-4{fill:none;stroke:#091494;stroke-miterlimit:10;stroke-width:0.75px;}</style></defs><path class="cls-1" d="M376.13,502.66c.14,8.71-2.22,10.77-7.76,10.77H289.64c-5.25,0-7.6-2.91-7.58-10.16v-9.92h94Z" transform="translate(-279.04 -261.5)"/><path class="cls-1" d="M390.43,460.51a37.67,37.67,0,1,0-6-5.69l-9.92,17.85ZM379.66,430.7A33.31,33.31,0,1,1,413,464,33.31,33.31,0,0,1,379.66,430.7Z" transform="translate(-279.04 -261.5)"/><path class="cls-1" d="M399.92,413.85v25.73h-6.09V413.85Zm14.78,0-8.21,11.55,8.88,14.18h-7.06l-8.2-13.74,8.17-12Z" transform="translate(-279.04 -261.5)"/><path class="cls-1" d="M434.82,421a15.9,15.9,0,0,1-5.68.78,6.67,6.67,0,0,1,2.82,2,5.05,5.05,0,0,1,.89,3.09,6,6,0,0,1-1,3.39,6.72,6.72,0,0,1-2.88,2.36,10.53,10.53,0,0,1-4.4.85,11,11,0,0,1-2.26-.22,1,1,0,0,0-.47.46,1.39,1.39,0,0,0-.16.65,1,1,0,0,0,.42.87,3.11,3.11,0,0,0,1.73.32h3a10,10,0,0,1,4,.74,6.26,6.26,0,0,1,2.64,2,4.93,4.93,0,0,1,.92,2.94,5.44,5.44,0,0,1-2.65,4.81c-1.77,1.14-4.32,1.72-7.66,1.72a16.91,16.91,0,0,1-5.68-.76,5.43,5.43,0,0,1-2.92-2.14,6.48,6.48,0,0,1-.83-3.45h5.27a2.41,2.41,0,0,0,.35,1.41,2.14,2.14,0,0,0,1.28.78,10.19,10.19,0,0,0,2.67.26,6.87,6.87,0,0,0,3.34-.57,1.85,1.85,0,0,0,.93-1.66,1.66,1.66,0,0,0-.7-1.41,3.62,3.62,0,0,0-2.12-.52h-2.86a7.69,7.69,0,0,1-4.54-1.09,3.31,3.31,0,0,1-1.51-2.8,4,4,0,0,1,.63-2.1,5.21,5.21,0,0,1,1.71-1.69,6.93,6.93,0,0,1-2.69-2.35,6.14,6.14,0,0,1-.84-3.29,6.47,6.47,0,0,1,2.38-5.26,9.63,9.63,0,0,1,6.27-1.94,15,15,0,0,0,5-.6,20.55,20.55,0,0,0,4.25-2Zm-12.68,3a3.42,3.42,0,0,0-.8,2.39,3.53,3.53,0,0,0,.8,2.47,3.22,3.22,0,0,0,4.38,0,3.73,3.73,0,0,0,.76-2.56q0-3.19-3-3.19A2.8,2.8,0,0,0,422.14,424Z" transform="translate(-279.04 -261.5)"/><path class="cls-1" d="M289.64,502.35a9.09,9.09,0,0,1-8.56-12.16l9.2-25.72a9.11,9.11,0,0,1,8.56-6h57.73a9.12,9.12,0,0,1,8.27,5.3l11.8,25.72a9.1,9.1,0,0,1-8.27,12.89Z" transform="translate(-279.04 -261.5)"/><path class="cls-2" d="M356.57,459.94a7.6,7.6,0,0,1,6.91,4.43l11.8,25.71a7.6,7.6,0,0,1-6.91,10.77H289.64a7.6,7.6,0,0,1-7.15-10.16l9.2-25.72a7.6,7.6,0,0,1,7.15-5h57.73m0-3H298.84a10.61,10.61,0,0,0-10,7l-9.21,25.72a10.61,10.61,0,0,0,10,14.17h78.73a10.6,10.6,0,0,0,9.63-15l-11.8-25.71a10.61,10.61,0,0,0-9.63-6.18Z" transform="translate(-279.04 -261.5)"/><polygon class="cls-2" points="69.64 234.11 28.71 234.11 32.54 221.1 65.38 221.1 69.64 234.11"/><rect class="cls-3" x="54.06" y="221.01" width="1.5" height="11.4"/><line class="cls-4" x1="33.69" y1="221.44" x2="32.84" y2="224.44"/><line class="cls-4" x1="36.79" y1="221.44" x2="35.94" y2="224.44"/><line class="cls-4" x1="64.03" y1="221.44" x2="64.88" y2="224.44"/><line class="cls-4" x1="60.94" y1="221.44" x2="61.78" y2="224.44"/><line class="cls-4" x1="43.98" y1="221.44" x2="43.98" y2="224.44"/><line class="cls-4" x1="40.35" y1="221.44" x2="40.35" y2="224.44"/><line class="cls-4" x1="51.24" y1="221.44" x2="51.24" y2="224.44"/><line class="cls-4" x1="58.09" y1="221.44" x2="58.09" y2="224.44"/><line class="cls-4" x1="47.61" y1="221.44" x2="47.61" y2="224.44"/><path class="cls-1" d="M315.45,473a12.53,12.53,0,0,1-12.53-12.52v-9.68l1.5-1.5h22.06l1.5,1.5v9.68A12.53,12.53,0,0,1,315.45,473Z" transform="translate(-279.04 -261.5)"/><path class="cls-2" d="M326.48,450.82v9.68a11,11,0,0,1-22.06,0v-9.68h22.06m0-3H304.42l-3,3v9.68a14,14,0,0,0,28.06,0v-9.68l-3-3Z" transform="translate(-279.04 -261.5)"/><path class="cls-1" d="M341.63,473a12.53,12.53,0,0,1-12.52-12.52v-9.68l1.54-1.5,22.05.57,1.46,1.49v9.12A12.53,12.53,0,0,1,341.63,473Z" transform="translate(-279.04 -261.5)"/><path class="cls-2" d="M330.61,450.82l22.05.57v9.11a11,11,0,0,1-22.05,0v-9.68m.08-3-3.08,3v9.68a14,14,0,0,0,28.05,0v-9.11l-2.92-3-22.05-.57Z" transform="translate(-279.04 -261.5)"/><circle class="cls-1" cx="49.61" cy="20.06" r="20.06"/><path class="cls-1" d="M326.59,460.29v-80.5h4.13v80.5a11,11,0,0,0,22.06,0V326.5c4,8.29,7.53,25,5.7,56.33a7.14,7.14,0,0,0,6.7,7.54h.43a7.13,7.13,0,0,0,7.11-6.72c2.21-37.67-2.51-62.25-14-73.05-5-4.7-9.88-5.51-12.39-5.57l-.45,0H311.43l-.45,0c-2.52.06-7.39.88-12.38,5.57-11.5,10.8-16.21,35.38-14,73.05a7.14,7.14,0,0,0,7.12,6.72h.42a7.14,7.14,0,0,0,6.71-7.54c-1.84-31.33,1.71-48,5.7-56.33V460.29a11,11,0,0,0,22,0Z" transform="translate(-279.04 -261.5)"/></svg>