<svg id="Calque_1" data-name="Calque 1" xmlns="http://www.w3.org/2000/svg" viewBox="0 0 343.39 276.25"><defs><style>.cls-1{fill:#f7c71e;}.cls-2{fill:#091494;}</style></defs><circle class="cls-1" cx="171.55" cy="41.72" r="23.68"/><path class="cls-1" d="M401.74,143.68h0A2.49,2.49,0,0,1,399,141.5V132a2.49,2.49,0,0,1,2.71-2.18h0a2.49,2.49,0,0,1,2.7,2.18v9.55A2.49,2.49,0,0,1,401.74,143.68Z" transform="translate(-229.87 -129.77)"/><path class="cls-1" d="M391.07,145.67h0a2.47,2.47,0,0,1-3.33-1l-3.66-8.81a2.49,2.49,0,0,1,1.67-3h0a2.47,2.47,0,0,1,3.33,1l3.66,8.81A2.49,2.49,0,0,1,391.07,145.67Z" transform="translate(-229.87 -129.77)"/><path class="cls-1" d="M382,151.6h0a2.49,2.49,0,0,1-3.46.37l-6.74-6.75a2.47,2.47,0,0,1,.37-3.45h0a2.47,2.47,0,0,1,3.45-.37l6.75,6.75A2.48,2.48,0,0,1,382,151.6Z" transform="translate(-229.87 -129.77)"/><path class="cls-1" d="M375.85,160.56h0a2.48,2.48,0,0,1-3.05,1.66L364,158.57a2.49,2.49,0,0,1-1-3.34h0a2.48,2.48,0,0,1,3.05-1.66l8.82,3.65A2.5,2.5,0,0,1,375.85,160.56Z" transform="translate(-229.87 -129.77)"/><path class="cls-1" d="M373.61,171.18h0a2.49,2.49,0,0,1-2.18,2.7h-9.54a2.48,2.48,0,0,1-2.18-2.7h0a2.48,2.48,0,0,1,2.18-2.71h9.54A2.49,2.49,0,0,1,373.61,171.18Z" transform="translate(-229.87 -129.77)"/><path class="cls-1" d="M375.61,181.84h0a2.5,2.5,0,0,1-1,3.34l-8.82,3.65a2.48,2.48,0,0,1-3.05-1.67h0a2.49,2.49,0,0,1,1-3.33l8.82-3.65A2.48,2.48,0,0,1,375.61,181.84Z" transform="translate(-229.87 -129.77)"/><path class="cls-1" d="M381.54,190.93h0a2.5,2.5,0,0,1,.37,3.46l-6.75,6.75a2.5,2.5,0,0,1-3.46-.37h0a2.5,2.5,0,0,1-.37-3.46l6.75-6.75A2.5,2.5,0,0,1,381.54,190.93Z" transform="translate(-229.87 -129.77)"/><path class="cls-1" d="M390.49,197.06h0a2.5,2.5,0,0,1,1.67,3.06l-3.66,8.81a2.48,2.48,0,0,1-3.33,1h0a2.49,2.49,0,0,1-1.67-3l3.66-8.82A2.49,2.49,0,0,1,390.49,197.06Z" transform="translate(-229.87 -129.77)"/><path class="cls-1" d="M401.11,199.3h0a2.5,2.5,0,0,1,2.71,2.18V211a2.5,2.5,0,0,1-2.71,2.18h0A2.5,2.5,0,0,1,398.4,211v-9.55A2.5,2.5,0,0,1,401.11,199.3Z" transform="translate(-229.87 -129.77)"/><path class="cls-1" d="M411.78,197.3h0a2.49,2.49,0,0,1,3.33,1l3.65,8.82a2.48,2.48,0,0,1-1.66,3.05h0a2.49,2.49,0,0,1-3.34-1l-3.65-8.81A2.5,2.5,0,0,1,411.78,197.3Z" transform="translate(-229.87 -129.77)"/><path class="cls-1" d="M420.87,191.38h0a2.47,2.47,0,0,1,3.45-.37l6.75,6.75a2.48,2.48,0,0,1-.37,3.45h0a2.48,2.48,0,0,1-3.45.37l-6.75-6.75A2.48,2.48,0,0,1,420.87,191.38Z" transform="translate(-229.87 -129.77)"/><path class="cls-1" d="M427,182.42h0a2.48,2.48,0,0,1,3.05-1.66l8.82,3.65a2.49,2.49,0,0,1,1,3.33h0a2.48,2.48,0,0,1-3.05,1.67L428,185.76A2.5,2.5,0,0,1,427,182.42Z" transform="translate(-229.87 -129.77)"/><path class="cls-1" d="M429.24,171.8h0a2.48,2.48,0,0,1,2.18-2.7H441a2.48,2.48,0,0,1,2.18,2.7h0a2.48,2.48,0,0,1-2.18,2.71h-9.54A2.48,2.48,0,0,1,429.24,171.8Z" transform="translate(-229.87 -129.77)"/><path class="cls-1" d="M427.24,161.14h0a2.5,2.5,0,0,1,1-3.34l8.82-3.65a2.48,2.48,0,0,1,3,1.66h0a2.49,2.49,0,0,1-1,3.34l-8.82,3.65A2.48,2.48,0,0,1,427.24,161.14Z" transform="translate(-229.87 -129.77)"/><path class="cls-1" d="M421.31,152h0a2.49,2.49,0,0,1-.37-3.45l6.75-6.75a2.5,2.5,0,0,1,3.46.37h0a2.5,2.5,0,0,1,.37,3.46l-6.75,6.75A2.49,2.49,0,0,1,421.31,152Z" transform="translate(-229.87 -129.77)"/><path class="cls-1" d="M412.36,145.91h0a2.49,2.49,0,0,1-1.67-3l3.65-8.81a2.48,2.48,0,0,1,3.34-1h0a2.47,2.47,0,0,1,1.66,3.05l-3.65,8.81A2.47,2.47,0,0,1,412.36,145.91Z" transform="translate(-229.87 -129.77)"/><path class="cls-2" d="M561.26,287h-16.5a12,12,0,0,0-12,12v81.5H270.37V299a12,12,0,0,0-12-12h-16.5a12,12,0,0,0-12,12V406h40.5v-7H532.76v7h40.5V299A12,12,0,0,0,561.26,287Z" transform="translate(-229.87 -129.77)"/><rect class="cls-2" x="45.07" y="211.09" width="253.26" height="35.33" rx="12"/><rect class="cls-2" x="48.44" y="180.42" width="32" height="32" rx="15.67"/><path class="cls-2" d="M287.1,310.61a22.49,22.49,0,1,0-12.52-29.24A22.48,22.48,0,0,0,287.1,310.61Z" transform="translate(-229.87 -129.77)"/><path class="cls-2" d="M405.85,319.48c-13.56,15.52-29.68,17.84-38.09,17.84h-.44a67.36,67.36,0,0,1-27.11-6.17,72.52,72.52,0,0,1-11.41-6.25,10.2,10.2,0,1,1,11.71-16.71l.14.1.22.14c.36.24.88.57,1.58,1a63,63,0,0,0,6,3.1c3.69,1.65,11,4.41,18.77,4.41a28.58,28.58,0,0,0,16.95-5.23c-15.56-.24-32.21-5.15-44.31-8.18-9.79-3.39-21.88-.27-24.46,8.14s1.41,21,15.76,26.81c19.79,7.86,32.82,10,55.14,8.6,7.86-1.1,12.44-4.23,15.11-8.2a130.06,130.06,0,0,1,40.49-6.27,140.16,140.16,0,0,1,53.52,10.7,12.63,12.63,0,0,0,4.74.94A12.5,12.5,0,0,0,505,320.16a165.34,165.34,0,0,0-63-12.57,160.53,160.53,0,0,0-33.66,3.56A10.19,10.19,0,0,1,405.85,319.48Z" transform="translate(-229.87 -129.77)"/><path class="cls-2" d="M341.33,311.3c-.73-.43-1.29-.78-1.64-1l-.38-.25-.06-.05A8,8,0,0,0,330,323.07h0a70.23,70.23,0,0,0,11.08,6.07,65.59,65.59,0,0,0,26.24,6h.41c11.85,0,25.5-4.57,36.44-17.1a8,8,0,1,0-12-10.59c-8.24,9.17-16.5,11.58-24.86,11.69-7.26,0-14.46-2.24-19.75-4.6A62.94,62.94,0,0,1,341.33,311.3Z" transform="translate(-229.87 -129.77)"/></svg>