<svg id="Calque_1" data-name="Calque 1" xmlns="http://www.w3.org/2000/svg" viewBox="0 0 236.55 307.46"><defs><style>.cls-1{fill:#091494;}</style></defs><path class="cls-1" d="M390.75,248V419.08a14.11,14.11,0,0,0,28.21,0v-103h5.28v103a14.11,14.11,0,0,0,28.21,0V248c5.1,10.6,9.64,32,7.29,72a9.13,9.13,0,0,0,8.58,9.64l.54,0a9.12,9.12,0,0,0,9.1-8.59c2.82-48.19-3.21-79.63-17.91-93.44-6.38-6-12.62-7-15.84-7.13-.19,0-.38,0-.58,0H399.57c-.2,0-.38,0-.58,0-3.21.08-9.45,1.13-15.84,7.12-14.7,13.82-20.73,45.26-17.91,93.45a9.13,9.13,0,0,0,9.1,8.59l.54,0a9.13,9.13,0,0,0,8.58-9.64C381.11,279.93,385.66,258.57,390.75,248Z" transform="translate(-242.09 -125.72)"/><circle class="cls-1" cx="179.51" cy="62.61" r="25.66"/><rect class="cls-1" x="97.64" width="2.24" height="300.75"/><rect class="cls-1" x="147.64" width="2.24" height="300.75"/><rect class="cls-1" x="99.91" y="293.72" width="19.92" height="1"/><rect class="cls-1" x="99.91" y="283.76" width="19.92" height="1"/><rect class="cls-1" x="99.91" y="273.81" width="19.92" height="1"/><rect class="cls-1" x="99.91" y="263.85" width="19.92" height="1"/><rect class="cls-1" x="99.91" y="253.89" width="19.92" height="1"/><rect class="cls-1" x="99.91" y="243.93" width="19.92" height="1"/><rect class="cls-1" x="99.91" y="233.97" width="19.92" height="1"/><rect class="cls-1" x="99.91" y="224.02" width="19.92" height="1"/><rect class="cls-1" x="99.91" y="214.06" width="19.92" height="1"/><rect class="cls-1" x="99.91" y="204.61" width="36.68" height="1"/><rect class="cls-1" x="99.91" y="194.14" width="19.92" height="1"/><rect class="cls-1" x="99.91" y="184.19" width="19.92" height="1"/><rect class="cls-1" x="99.91" y="174.23" width="19.92" height="1"/><rect class="cls-1" x="99.91" y="164.27" width="19.92" height="1"/><rect class="cls-1" x="99.91" y="154.32" width="19.92" height="1"/><rect class="cls-1" x="99.91" y="144.36" width="19.92" height="1"/><rect class="cls-1" x="99.91" y="134.4" width="19.92" height="1"/><rect class="cls-1" x="99.91" y="124.44" width="19.92" height="1"/><rect class="cls-1" x="99.91" y="114.49" width="19.92" height="1"/><rect class="cls-1" x="99.91" y="103.76" width="36.51" height="1"/><rect class="cls-1" x="99.91" y="94.57" width="19.92" height="1"/><rect class="cls-1" x="99.91" y="84.61" width="19.92" height="1"/><rect class="cls-1" x="99.91" y="74.66" width="19.92" height="1"/><rect class="cls-1" x="99.91" y="64.7" width="19.92" height="1"/><rect class="cls-1" x="99.91" y="54.74" width="19.92" height="1"/><rect class="cls-1" x="99.91" y="44.78" width="19.92" height="1"/><rect class="cls-1" x="99.91" y="34.83" width="19.92" height="1"/><rect class="cls-1" x="99.91" y="24.87" width="19.92" height="1"/><rect class="cls-1" x="99.91" y="28.97" width="99.4" height="7.4"/><path class="cls-1" d="M318.3,394.38l-9.92-17.86a37.51,37.51,0,1,0-6,5.7Zm-38.48-8.67a33.31,33.31,0,1,1,33.31-33.31A33.31,33.31,0,0,1,279.82,385.71Z" transform="translate(-242.09 -125.72)"/><path class="cls-1" d="M267.46,341.19a10.59,10.59,0,0,1,3.32,2l-2.56,3.47a8.08,8.08,0,0,0-2.09-1.2,6.53,6.53,0,0,0-2.21-.37q-4.67,0-4.67,7.19c0,2.43.4,4.16,1.2,5.21a4,4,0,0,0,3.43,1.57,5.91,5.91,0,0,0,2.11-.35,11.7,11.7,0,0,0,2.23-1.18l2.56,3.68a11,11,0,0,1-7.19,2.56,10.88,10.88,0,0,1-5.6-1.4,9.43,9.43,0,0,1-3.66-4,13.53,13.53,0,0,1-1.28-6.06,14,14,0,0,1,1.28-6.13A9.83,9.83,0,0,1,258,342a10.2,10.2,0,0,1,5.52-1.49A11.65,11.65,0,0,1,267.46,341.19Z" transform="translate(-242.09 -125.72)"/><path class="cls-1" d="M302,342.33a7,7,0,0,1,1.59,4.84v15.95h-5.87v-15c0-2.15-.71-3.22-2.15-3.22a3,3,0,0,0-2,.74,9.21,9.21,0,0,0-1.78,2.31v15.13h-5.87v-15c0-2.15-.71-3.22-2.15-3.22a3,3,0,0,0-2,.76A8.9,8.9,0,0,0,280,348v15.13h-5.87v-21.9h5.09l.45,2.72a9.14,9.14,0,0,1,2.79-2.52,7.19,7.19,0,0,1,3.58-.87,5.57,5.57,0,0,1,3.22.93,5.32,5.32,0,0,1,2,2.63,9.63,9.63,0,0,1,2.95-2.67,7.33,7.33,0,0,1,3.62-.89A5.37,5.37,0,0,1,302,342.33Z" transform="translate(-242.09 -125.72)"/></svg>