<svg id="Calque_1" data-name="Calque 1" xmlns="http://www.w3.org/2000/svg" viewBox="0 0 116.19 219.12"><defs><style>.cls-1{fill:#091494;}</style></defs><path class="cls-1" d="M362.93,308.24h0a8,8,0,0,1-.35-16.07l5.52-.24a8.06,8.06,0,0,1-1.78-1.25l-18-16.65a7.92,7.92,0,0,1-1.56-2c-2.62,16.91-.83,30.7,2.92,47.4a9.17,9.17,0,0,0,.33,1.69c.1.35,9.73,34.87-8.45,73.62a9.85,9.85,0,1,0,17.84,8.37,137.25,137.25,0,0,0,12.32-71.31l1.33.26-.79,2-.17-.07c1,.47,25.36,12.1,12.2,62.53a9.86,9.86,0,0,0,7.05,12,9.74,9.74,0,0,0,2.49.33,9.86,9.86,0,0,0,9.53-7.37c13.48-51.66-6.21-73.89-17.2-81.89a53.87,53.87,0,0,1-2.37-12.27l-20.49.9Z" transform="translate(-338.08 -189.73)"/><path class="cls-1" d="M376.05,291.57l7-.31L382,285.07l-4,4.85A7.84,7.84,0,0,1,376.05,291.57Z" transform="translate(-338.08 -189.73)"/><path class="cls-1" d="M353.33,261.84a6.26,6.26,0,0,0-3.33,1.23l-.23.18h0a6.06,6.06,0,0,0-.64.6,6.31,6.31,0,0,0,.34,8.91l18,16.65a6.27,6.27,0,0,0,4.28,1.67h.41a6.28,6.28,0,0,0,4.43-2.26l21.26-25.53a6.31,6.31,0,0,0-9.69-8.07l-17,20.43-9.44-8.74,3.81,1.17,5.47,5.06,5.23-6.28c-6.8-1.7-13.84-3.51-20-4.88A8.52,8.52,0,0,0,353.33,261.84Z" transform="translate(-338.08 -189.73)"/><path class="cls-1" d="M384.24,252.35c1.71-3.28,5.05-4.93,7.46-3.67a4.18,4.18,0,0,1,2,2.55,8.13,8.13,0,0,1,4.47,1.83,8.24,8.24,0,0,1,.84.83A17.73,17.73,0,1,0,379.44,263l4.1-4.93A7.68,7.68,0,0,1,384.24,252.35Z" transform="translate(-338.08 -189.73)"/><path class="cls-1" d="M382.33,284.66l1.31-.19,1.5,8.44-22.49,1a6.31,6.31,0,0,0,.28,12.61h.28l29.68-1.31a6.3,6.3,0,0,0,5.93-7.41l-2.69-15.07-1.25-7a6.24,6.24,0,0,0-2.07-3.64Z" transform="translate(-338.08 -189.73)"/><path class="cls-1" d="M418.66,273.73c3.24-3.65-4.12-9.41-9.57-8C414.81,271.12,415.6,277.15,418.66,273.73Z" transform="translate(-338.08 -189.73)"/><path class="cls-1" d="M429.55,250.17c-1.24-4.72-10.11-1.78-11.93,3.55C425.25,251.92,430.72,254.61,429.55,250.17Z" transform="translate(-338.08 -189.73)"/><path class="cls-1" d="M434.47,270.53c2-4.46-6.79-7.7-11.54-4.68C430,269.21,432.61,274.72,434.47,270.53Z" transform="translate(-338.08 -189.73)"/><path class="cls-1" d="M416.63,290.71c4.69-1.35,1.52-10.15-3.84-11.84C414.77,286.46,412.22,292,416.63,290.71Z" transform="translate(-338.08 -189.73)"/><path class="cls-1" d="M415.42,260.6c.26-4.85-9-4.76-12.39-.26C410.81,261,415.17,265.16,415.42,260.6Z" transform="translate(-338.08 -189.73)"/><path class="cls-1" d="M407.22,274.66c3.69-2.11-.8-8.9-5.68-9.23C404.77,271.44,403.75,276.64,407.22,274.66Z" transform="translate(-338.08 -189.73)"/><polygon class="cls-1" points="59.79 30.34 60.97 31.62 98.41 5.12 96.64 0 59.79 30.34"/><polygon class="cls-1" points="68.84 51.48 114.71 51.22 116.19 46 68.61 49.76 68.84 51.48"/><path class="cls-1" d="M367.38,227.32a6,6,0,0,0-2.11,3.83.78.78,0,0,0,.69.87h.09a.78.78,0,0,0,.78-.7,4.5,4.5,0,0,1,1.53-2.77,4.31,4.31,0,0,1,3.37-.64.79.79,0,1,0,.24-1.56A5.82,5.82,0,0,0,367.38,227.32Z" transform="translate(-338.08 -189.73)"/><path class="cls-1" d="M372.14,222.85a8.06,8.06,0,0,0-10.21,6.5.79.79,0,0,0,.65.9h.13a.8.8,0,0,0,.78-.66,6.49,6.49,0,0,1,8.35-5.2.79.79,0,0,0,.92-.62A.8.8,0,0,0,372.14,222.85Z" transform="translate(-338.08 -189.73)"/><path class="cls-1" d="M342.12,263.74h.09a.79.79,0,0,0,.78-.7,4.47,4.47,0,0,1,1.53-2.76,4.31,4.31,0,0,1,3.37-.65.79.79,0,0,0,.9-.66.8.8,0,0,0-.67-.9,5.8,5.8,0,0,0-4.58,1,6,6,0,0,0-2.11,3.83A.78.78,0,0,0,342.12,263.74Z" transform="translate(-338.08 -189.73)"/><path class="cls-1" d="M348.3,254.58a8,8,0,0,0-10.21,6.49.78.78,0,0,0,.65.9h.13a.77.77,0,0,0,.77-.66,7.32,7.32,0,0,1,2.71-4.33,7.22,7.22,0,0,1,5.65-.86.79.79,0,0,0,.3-1.55Z" transform="translate(-338.08 -189.73)"/><path class="cls-1" d="M404.18,305.18a.74.74,0,0,0,.52-.2,5.83,5.83,0,0,0,2.17-4.15,6.07,6.07,0,0,0-1.62-4.07.78.78,0,1,0-1.12,1.1,4.59,4.59,0,0,1,1.16,2.92,4.28,4.28,0,0,1-1.64,3,.79.79,0,0,0-.06,1.11A.8.8,0,0,0,404.18,305.18Z" transform="translate(-338.08 -189.73)"/><path class="cls-1" d="M406.8,307.52a.77.77,0,0,0,.5-.18,8.7,8.7,0,0,0,3.49-6,8.82,8.82,0,0,0-2-6,.79.79,0,0,0-1.19,1,6.5,6.5,0,0,1-1.28,9.76.79.79,0,0,0-.11,1.11A.81.81,0,0,0,406.8,307.52Z" transform="translate(-338.08 -189.73)"/></svg>