<svg id="Calque_1" data-name="Calque 1" xmlns="http://www.w3.org/2000/svg" viewBox="0 0 116.26 236.3"><defs><style>.cls-1{fill:#091494;}</style></defs><path class="cls-1" d="M575.8,337.55a94.68,94.68,0,0,1,.37-23.93,62.21,62.21,0,0,1-8.83-9.78,75.15,75.15,0,0,1-10.73-21.13l0-.11a10,10,0,0,1,6.81-12.45A10,10,0,0,1,575.77,277h0a.39.39,0,0,1,0,.1l0,.07.11.36c.15.45.39,1.13.73,2a59,59,0,0,0,3.27,6.95c.24.45.53.95.84,1.48.11-.55.22-1.1.32-1.62A24.73,24.73,0,0,0,582,278a66.18,66.18,0,0,0,15.3-3.12,31.84,31.84,0,0,0,12.7-7.71,22.09,22.09,0,0,0,6.17-15.58c0-7-2.75-14.35-8-22.65a8,8,0,1,0-13.49,8.6c4.32,6.75,5.54,11.47,5.5,14.05a5.93,5.93,0,0,1-1.74,4.53c-1.72,1.93-6.07,3.95-11.2,5a73.73,73.73,0,0,1-14.58,1.34h-.47l-.51-.14c-8.53-2.13-20.91,2.5-25.94,17.15-6.81,20.17-8.27,33.3-5.68,55.52,2,10.21,7.15,14.61,13,16.43a108.44,108.44,0,0,1,7,39.38,124.6,124.6,0,0,1-8,43.49A12.5,12.5,0,1,0,575.57,443a149.71,149.71,0,0,0,9.51-52.18c0-24.67-6.25-42.5-9.18-49.55C575.91,340.11,575.88,338.89,575.8,337.55Zm-23.72,11.59Z" transform="translate(-532.94 -214.81)"/><path class="cls-1" d="M624.14,300.8l0-.37c.4-.14.92-.31,1.55-.49a18.1,18.1,0,0,1,4.77-.79,6.07,6.07,0,0,1,2.68.52,13,13,0,0,0,5.79,1.19,16.53,16.53,0,0,0,4.07-.48l.34-.1-3.16,26h-12.9l-.08-.67c-1.62.47-3.22.87-4.82,1.23l.53,4.37H644.5l4.68-38.54a2.46,2.46,0,1,0-4.89-.6h0l-.65,5.37s-.06.05-.08.08a11,11,0,0,1-4.67.86,10.68,10.68,0,0,1-4.66-.92,8.42,8.42,0,0,0-3.81-.79,22.16,22.16,0,0,0-6.62,1.24l-.71-5.84a2.47,2.47,0,0,0-4.9.6l1.16,9.51c1.17-.31,2.36-.66,3.56-1.06C623.31,301,623.72,300.9,624.14,300.8Z" transform="translate(-532.94 -214.81)"/><path class="cls-1" d="M574.8,280.21c-.36-.91-.61-1.62-.76-2.09-.08-.23-.14-.4-.17-.5s0-.08,0-.09h0A8,8,0,1,0,558.48,282,72.55,72.55,0,0,0,569,302.66a55.44,55.44,0,0,0,15.36,14.59,45.57,45.57,0,0,0,24.29,6.89h.1a60,60,0,0,0,19-3.29,8,8,0,0,0-5.05-15.18,44,44,0,0,1-13.93,2.47,29.5,29.5,0,0,1-16-4.48c-6.56-4-11.47-10.59-14.58-16.26A59.54,59.54,0,0,1,574.8,280.21Z" transform="translate(-532.94 -214.81)"/><path class="cls-1" d="M583.17,232.31a2,2,0,0,1,1.62.83l3,4.12-3.24,2.37-3-4.13a2,2,0,0,1,.44-2.81,2,2,0,0,1,1.18-.38m0-1a3.08,3.08,0,0,0-1.77.57,3,3,0,0,0-.66,4.2l3.59,4.95,4.86-3.55-3.59-4.93a3,3,0,0,0-2.43-1.24Z" transform="translate(-532.94 -214.81)"/><path class="cls-1" d="M592.91,242.6l-3.72-5.12L584.33,241l3.71,5.11a3,3,0,0,0,4.87-3.54Z" transform="translate(-532.94 -214.81)"/><path class="cls-1" d="M568.05,256a22.5,22.5,0,1,0-31.24-6,22.5,22.5,0,0,0,31.24,6M563,241.4c2.59-3.49,6.61-4.9,9-3.14s2.19,6-.4,9.49-6.61,4.9-9,3.15-2.19-6,.4-9.5" transform="translate(-532.94 -214.81)"/></svg>